<?xml version="1.0" encoding="UTF-8"?>
<svg width="113px" height="318px" viewBox="0 0 113 318" version="1.1" xmlns="http://www.w3.org/2000/svg" xmlns:xlink="http://www.w3.org/1999/xlink">
    <title>front</title>
    <defs>
        <linearGradient x1="50%" y1="42.4354877%" x2="50%" y2="93.1847%" id="linearGradient-1">
            <stop stop-color="#F6F6F8" stop-opacity="0" offset="0%"></stop>
            <stop stop-color="#F6F6F8" offset="100%"></stop>
        </linearGradient>
    </defs>
    <g id="UI" stroke="none" stroke-width="1" fill="none" fill-rule="evenodd">
        <g id="ex-details" transform="translate(-23.000000, -165.000000)">
            <g id="front" transform="translate(24.000000, 166.000000)">
                <g id="fill">
                    <path d="M110.537646,169.816206 C109.749283,167.930739 108.364843,162.015394 107.968913,157.102472 C106.912228,144.007783 105.994512,124.469328 105.040087,120.764228 C103.728189,115.668728 100.932213,110.402939 100.932213,108.575406 C100.932213,92.5858056 97.3697244,88.5752389 97.3697244,85.9884278 C97.3697244,84.3109944 98.1484724,85.20545 98.1484724,75.5147833 C98.1484724,65.8241167 87.6087165,55.6857833 77.0680866,55.6857833 L66.824622,49.2744944 L66.824622,40.0314944 L66.7302283,40.0314944 C64.156252,42.9141167 59.5580551,47.2994944 55.3942441,47.2994944 C51.2304331,47.2994944 46.6322362,42.9141167 44.0582598,40.0314944 L43.9638661,40.0314944 L43.9638661,49.2744944 L33.7204016,55.6857833 C23.1797717,55.6857833 12.6400157,65.8241167 12.6400157,75.5147833 C12.6400157,85.20545 13.4196378,84.3109944 13.4196378,85.9884278 C13.4196378,88.5752389 9.85627559,92.5858056 9.85627559,108.575406 C9.85627559,110.402939 7.0594252,115.668728 5.74752756,120.764228 C4.79397638,124.469328 3.87713386,144.007783 2.82044882,157.102472 C2.42364567,162.015394 1.04007874,167.930739 0.25084252,169.816206 C-1.59158268,174.220017 7.29540945,180.965739 7.88974016,181.205372 C8.65712598,181.516983 8.91845669,179.969461 9.17891339,179.36555 C10.2478346,176.880561 6.26931496,173.926839 6.52540157,172.202006 C6.83392913,170.128694 7.1983937,166.487672 8.63177953,167.068761 C10.0660394,167.64985 10.5511181,170.951172 11.9845039,171.532261 C13.4178898,172.11335 14.0331969,171.727128 14.4719528,170.635172 C14.7289134,169.995272 13.099748,165.989094 11.6375197,162.227817 C10.6044331,159.569906 10.7809843,157.66425 10.7809843,157.66425 C10.7809843,157.66425 22.1842677,131.051783 22.6658504,125.684172 C24.2154803,123.21235 23.4952913,121.974683 23.6936929,120.182261 C24.4881732,112.987117 24.4977874,99.0708278 25.5553465,99.0708278 C26.5578425,99.0708278 26.6688425,103.432506 26.6688425,106.115872 C26.6688425,112.266461 31.2338268,112.489417 31.2338268,120.764228 C31.2338268,127.025417 29.5635827,124.454406 29.5635827,135.412583 C29.5635827,138.655094 24.144685,141.636906 24.144685,154.607828 C24.144685,157.962694 20.5821969,164.223883 20.5821969,177.791694 C20.5821969,203.733539 27.4484646,216.36915 27.4484646,227.328206 C27.4484646,239.068483 25.3324724,238.06255 25.3324724,251.704094 C25.3324724,265.346517 33.7946929,282.789717 33.7946929,292.294294 C33.7946929,313.204717 26.8917165,307.837106 26.8917165,312.645572 C26.8917165,313.913083 28.2272126,314.732928 28.2272126,314.732928 L40.0299213,316.000439 L46.1156929,316.000439 L47.9721024,313.763861 C47.9721024,313.763861 46.3385669,310.931272 46.3385669,309.439928 C46.3385669,307.949461 47.1548976,305.042261 47.1548976,303.252472 C47.1548976,301.463561 44.8544882,295.201494 44.8544882,289.536317 C44.8544882,283.871139 44.7059055,267.582217 44.7059055,267.582217 C44.7059055,267.582217 45.2626535,262.215483 45.2626535,256.624039 C45.2626535,251.033472 41.8111654,248.23775 41.8111654,245.778217 C41.8111654,243.317806 51.7198819,225.426939 51.7198819,205.523328 C51.7198819,194.900461 54.280748,177.008717 54.280748,164.596939 L55.3942441,164.596939 L56.5077402,164.596939 C56.5077402,177.008717 59.0686063,194.900461 59.0686063,205.523328 C59.0686063,225.426939 68.9781969,243.317806 68.9781969,245.778217 C68.9781969,248.23775 65.5258346,251.033472 65.5258346,256.624039 C65.5258346,262.215483 66.0825827,267.582217 66.0825827,267.582217 C66.0825827,267.582217 65.934874,283.871139 65.934874,289.536317 C65.934874,295.201494 63.6335906,301.463561 63.6335906,303.252472 C63.6335906,305.042261 64.4499213,307.949461 64.4499213,309.439928 C64.4499213,310.931272 62.8172598,313.763861 62.8172598,313.763861 L64.6727953,316.000439 L70.7594409,316.000439 L82.5612756,314.732928 C82.5612756,314.732928 83.8976457,313.913083 83.8976457,312.645572 C83.8976457,307.837106 76.9946693,313.204717 76.9946693,292.294294 C76.9946693,282.789717 85.4560157,265.346517 85.4560157,251.704094 C85.4560157,238.06255 83.3400236,239.068483 83.3400236,227.328206 C83.3400236,216.36915 90.2062913,203.733539 90.2062913,177.791694 C90.2062913,164.223883 86.6438031,157.962694 86.6438031,154.607828 C86.6438031,141.636906 81.2249055,138.655094 81.2249055,135.412583 C81.2249055,124.454406 79.5546614,127.025417 79.5546614,120.764228 C79.5546614,112.489417 84.1196457,112.266461 84.1196457,106.115872 C84.1196457,103.432506 84.2315197,99.0708278 85.2331417,99.0708278 C86.2907008,99.0708278 86.300315,112.987117 87.0947953,120.182261 C87.2931969,121.974683 86.5730079,123.21235 88.1226378,125.684172 C88.6050945,131.051783 100.008378,157.66425 100.008378,157.66425 C100.008378,157.66425 100.184055,159.569906 99.1518425,162.227817 C97.6896142,165.989094 96.0595748,169.995272 96.3165354,170.635172 C96.7552913,171.727128 97.3705984,172.11335 98.8039843,171.532261 C100.238244,170.951172 100.723323,167.64985 102.156709,167.068761 C103.590094,166.487672 103.955433,170.128694 104.263087,172.202006 C104.520047,173.926839 100.540654,176.880561 101.609575,179.36555 C101.870031,179.969461 102.132236,181.516983 102.899622,181.205372 C103.492205,180.965739 112.380071,174.220017 110.537646,169.816206" id="Fill-1" fill="#FFFFFF"></path>
                    <path d="M12.6397535,75.5151344 C12.6397535,85.2058011 13.4193756,84.3113456 13.4193756,85.9887789 C18.3182339,84.9828456 21.546848,80.7335233 27.4482024,70.7812789 C33.3486827,60.8299122 38.359415,62.39499 38.359415,60.0469344 C38.359415,58.2571456 34.9079268,57.4750456 33.7201394,55.6861344 C23.1803835,55.6861344 12.6397535,65.82359 12.6397535,75.5151344" id="Fill-4" fill="#BCC4FF"></path>
                    <path d="M50.7179102,66.3087378 C50.0641465,65.0113822 40.6973197,60.0466711 38.3593276,60.0466711 C38.3593276,62.3947267 33.3485953,60.8296489 27.448115,70.7810156 C25.2569575,74.4773378 23.4337606,77.3854156 21.7565244,79.6342822 L21.7573984,79.6342822 C24.4170283,81.1071933 23.5508787,82.2983378 26.0007449,84.4234378 C28.449737,86.54766 36.5780835,89.7901711 41.5879417,89.7901711 C46.598674,89.7901711 53.5637055,86.7714933 53.5637055,86.7714933 L53.5637055,79.1673044 C53.5637055,70.8933711 51.7335165,68.3214822 50.7179102,66.3087378" id="Fill-6" fill="#7E8DFE"></path>
                    <path d="M43.5179433,103.739026 L43.5179433,96.2033033 C43.5179433,93.59367 44.557148,91.6555367 46.4869748,91.6555367 C48.4168016,91.6555367 52.3507465,90.0158478 52.7964945,90.0158478 C53.2413685,90.0158478 54.1328646,90.16507 54.1328646,91.09727 L54.1328646,101.233848 C54.1328646,102.705881 52.3883291,102.798926 49.9760457,102.798926 C48.5653843,102.798926 45.5587701,104.074337 44.9286047,104.708092 C44.2975654,105.341848 43.5179433,104.484259 43.5179433,103.739026" id="Fill-8" fill="#FFFFFF"></path>
                    <path d="M54.132515,107.858349 C54.132515,106.74006 53.6133496,105.845604 52.2769795,105.845604 L48.8622,105.845604 C47.5258299,105.845604 43.7404677,108.155916 43.7404677,110.243271 L43.7404677,115.099138 C43.7404677,116.068204 44.1862157,116.589604 45.3740031,116.589604 L50.5700268,116.589604 C51.2377748,116.589604 54.132515,115.247482 54.132515,113.38396 L54.132515,107.858349 Z" id="Fill-10" fill="#FFFFFF"></path>
                    <path d="M43.425385,126.74681 L43.425385,121.201888 C43.425385,120.251254 43.9261961,118.909132 45.3735661,118.909132 L51.3859205,118.909132 C52.2765425,118.909132 54.0586606,120.027421 54.0586606,121.258066 L54.0586606,126.74681 C54.0586606,127.585088 53.6688496,129.038688 52.7222906,129.038688 L46.4870622,129.038688 C45.4845661,129.038688 43.425385,128.088054 43.425385,126.74681" id="Fill-12" fill="#FFFFFF"></path>
                    <path d="M52.4253874,131.721616 L46.2644504,131.721616 C45.076663,131.721616 43.7402929,132.690682 43.7402929,133.808971 C43.7402929,134.92726 49.2334819,159.528738 53.5388835,159.528738 L54.0580488,159.528738 C54.2817969,153.720482 54.0580488,134.802616 54.0580488,133.808971 C54.0580488,132.616071 53.8351748,131.721616 52.4253874,131.721616" id="Fill-14" fill="#FFFFFF"></path>
                    <path d="M67.2704575,103.739026 L67.2704575,96.2033033 C67.2704575,93.59367 66.2312528,91.6555367 64.301426,91.6555367 C62.3715992,91.6555367 58.4376543,90.0158478 57.9919063,90.0158478 C57.5470323,90.0158478 56.6564102,90.16507 56.6564102,91.09727 L56.6564102,101.233848 C56.6564102,102.705881 58.4009457,102.798926 60.8132291,102.798926 C62.2230165,102.798926 65.2296307,104.074337 65.8606701,104.708092 C66.4908354,105.341848 67.2704575,104.484259 67.2704575,103.739026" id="Fill-16" fill="#FFFFFF"></path>
                    <path d="M56.6564102,107.858349 C56.6564102,106.74006 57.1755756,105.845604 58.5119457,105.845604 L61.9258512,105.845604 C63.2622213,105.845604 67.0484575,108.155916 67.0484575,110.243271 L67.0484575,115.099138 C67.0484575,116.068204 66.6027094,116.589604 65.414922,116.589604 L60.2188984,116.589604 C59.5511504,116.589604 56.6564102,115.247482 56.6564102,113.38396 L56.6564102,107.858349 Z" id="Fill-18" fill="#FFFFFF"></path>
                    <path d="M67.3634528,126.74681 L67.3634528,121.201888 C67.3634528,120.251254 66.8626417,118.909132 65.4152717,118.909132 L59.4029173,118.909132 C58.5122953,118.909132 56.7301772,120.027421 56.7301772,121.258066 L56.7301772,126.74681 C56.7301772,127.585088 57.1199882,129.038688 58.0665472,129.038688 L64.3017756,129.038688 C65.3033976,129.038688 67.3634528,128.088054 67.3634528,126.74681" id="Fill-20" fill="#FFFFFF"></path>
                    <path d="M58.3634504,131.721616 L64.5243874,131.721616 C65.7121748,131.721616 67.0485449,132.690682 67.0485449,133.808971 C67.0485449,134.92726 61.5553559,159.528738 57.2499543,159.528738 L56.730789,159.528738 C56.5070409,153.720482 56.730789,134.802616 56.730789,133.808971 C56.730789,132.616071 56.952789,131.721616 58.3634504,131.721616" id="Fill-22" fill="#FFFFFF"></path>
                    <path d="M23.6934307,76.8540967 L23.6934307,76.8540967 C23.4591945,77.2078411 23.2302024,77.5510522 23.0029583,77.8828522 C23.2302024,77.5510522 23.4591945,77.2087189 23.6934307,76.8540967" id="Fill-24" fill="#FFFFFF"></path>
                    <path d="M21.7572236,79.6344578 L21.7572236,79.6344578 C21.9075543,79.4325689 22.0613811,79.2175133 22.2143339,79.0050911 C19.1753811,83.22808 16.6625858,85.3224578 13.4191134,85.9886911 C13.4191134,88.5755022 9.8566252,92.5860689 9.8566252,108.576547 C9.8566252,111.819058 17.5636961,115.990258 21.1017118,108.576547 C23.3968772,103.767202 24.2595307,101.763236 24.7961764,100.582624 C25.0688693,99.6328689 25.327578,99.0719689 25.5556961,99.0719689 C26.3344441,97.7298467 26.0005701,84.4236133 26.0005701,84.4236133 C23.551578,82.2985133 24.4168535,81.1073689 21.7572236,79.6344578" id="Fill-26" fill="#FFFFFF"></path>
                    <path d="M22.3452614,78.8256733 C22.5567732,78.5298622 22.7700331,78.22264 22.986789,77.9057622 C22.7700331,78.22264 22.5567732,78.5298622 22.3452614,78.8256733" id="Fill-28" fill="#FFFFFF"></path>
                    <path d="M55.3944189,8.77777778e-05 C45.3161433,8.77777778e-05 40.2774425,8.95342111 40.2774425,13.6249544 C40.2774425,18.2964878 42.0211039,37.5672211 42.0211039,37.5672211 C42.0211039,37.5672211 49.1924031,47.2991433 55.3944189,47.2991433 C61.5964346,47.2991433 68.7677339,37.5672211 68.7677339,37.5672211 C68.7677339,37.5672211 70.5113953,18.2964878 70.5113953,13.6249544 C70.5113953,8.95342111 65.4726945,8.77777778e-05 55.3944189,8.77777778e-05" id="Fill-30" fill="#FFFFFF"></path>
                    <path d="M70.0171394,140.444532 C70.0171394,132.169721 72.1698402,132.840343 72.1698402,128.442677 C72.1698402,119.27341 70.0171394,111.446266 70.0171394,107.346166 C70.0171394,103.246066 70.387722,89.79061 70.387722,89.79061 L70.2129189,89.7502322 C69.8641866,89.7765656 69.5259425,89.79061 69.1999346,89.79061 C64.1900764,89.79061 57.2250449,86.7719322 57.2250449,86.7719322 L55.3948559,86.7719322 L53.5637929,86.7719322 C53.5637929,86.7719322 46.5987614,89.79061 41.5880291,89.79061 C41.2637693,89.79061 40.9246512,89.7765656 40.5759189,89.7502322 L40.4002417,89.79061 C40.4002417,89.79061 40.7716984,103.246066 40.7716984,107.346166 C40.7716984,111.446266 38.6189976,119.27341 38.6189976,128.442677 C38.6189976,132.840343 40.7716984,132.169721 40.7716984,140.444532 C40.7716984,143.351732 38.5447063,145.401343 35.6499661,145.401343 C35.6499661,152.07421 51.238037,164.597466 55.3948559,164.597466 C59.5508008,164.597466 75.1388717,152.07421 75.1388717,145.401343 C72.2432575,145.401343 70.0171394,143.351732 70.0171394,140.444532" id="Fill-32" fill="#FFFFFF"></path>
                    <path d="M75.1386969,145.401782 C77.0685236,140.37036 81.2253425,135.412671 81.2253425,135.412671" id="Fill-34" fill="#FFFFFF"></path>
                    <path d="M27.404152,225.795957 C27.404152,226.696557 27.9303094,227.216201 28.3760575,227.216201 C28.8218055,227.216201 29.8540181,222.137379 29.8540181,218.755301 C29.6748449,218.760568 29.5638449,218.296223 29.5638449,216.993601 C29.5638449,212.361568 25.2208606,203.883112 25.2208606,187.631934 C25.2208606,171.380757 30.1573016,153.639112 31.235837,146.616012 L31.0033488,143.341901 C30.902837,141.484523 30.790963,136.988546 30.790963,136.988546 L29.5638449,135.317257 C29.5638449,135.349734 29.5638449,135.379579 29.5638449,135.412934 C29.5638449,138.655446 24.1449472,141.637257 24.1449472,154.608179 C24.1449472,157.963046 20.5824591,164.224234 20.5824591,177.792046 C20.5824591,178.58819 20.5894512,179.37029 20.6016874,180.141857 C20.6051835,180.352523 20.6121756,180.556168 20.6165457,180.765079 C20.6279079,181.318957 20.6392701,181.871957 20.6567504,182.413546 C20.6654906,182.673368 20.6777268,182.92529 20.6873409,183.181601 C20.7056953,183.662623 20.7231756,184.144523 20.746774,184.61589 C20.7598843,184.887123 20.7764906,185.151334 20.7904748,185.419057 C20.8149472,185.865846 20.8394197,186.313512 20.8673882,186.751523 C20.8848685,187.020123 20.9049709,187.283457 20.9233252,187.548546 C20.9539157,187.977779 20.9845063,188.406134 21.0177189,188.825712 C21.0386953,189.082901 21.0622937,189.334823 21.0841441,189.589379 C21.1199787,190.008957 21.1566874,190.428534 21.1960181,190.839334 C21.2196165,191.081601 21.244963,191.319479 21.2685614,191.559112 C21.3113882,191.974301 21.354215,192.387734 21.3996638,192.795023 C21.4250102,193.019734 21.4503567,193.240934 21.4765772,193.462134 C21.524648,193.876446 21.5744669,194.289001 21.6260339,194.694534 C21.6513803,194.899057 21.6784748,195.100946 21.7046953,195.303712 C21.7597583,195.721534 21.8156953,196.135846 21.8742543,196.54489 C21.8996008,196.724834 21.9249472,196.903023 21.9511677,197.08209 C22.0132228,197.507812 22.076152,197.930901 22.1417031,198.347846 C22.1653016,198.500579 22.1889,198.651557 22.2133724,198.802534 C22.2832937,199.244057 22.354963,199.682068 22.4275063,200.113057 C22.4476087,200.230679 22.467711,200.347423 22.4878134,200.464168 C22.5673488,200.931146 22.6495063,201.392857 22.7316638,201.847546 C22.744774,201.921279 22.7587583,201.996768 22.7727425,202.070501 C22.8653882,202.578734 22.9606559,203.079946 23.0559236,203.573257 C23.0585457,203.587301 23.0611677,203.602223 23.0646638,203.616268 C24.8764984,212.941779 27.0694039,219.698034 27.4006559,225.792446 L27.404152,225.795957 Z" id="Fill-36" fill="#FFFFFF"></path>
                    <path d="M55.3944189,47.2994067 C54.1908992,47.2994067 52.9515449,46.93074 51.734915,46.3391178 L51.7331669,46.3391178 C51.7331669,50.6165289 52.5739701,62.99144 55.3944189,62.99144 C58.2148677,62.99144 59.0556709,50.6165289 59.0556709,46.3391178 L59.0539228,46.3391178 C57.8372929,46.93074 56.5979386,47.2994067 55.3944189,47.2994067" id="Fill-38" fill="#FFFFFF"></path>
                    <path d="M31.2360992,146.616451 C30.1575638,153.638673 25.2211228,171.381196 25.2211228,187.632373 C25.2211228,203.882673 29.5641071,212.361129 29.5641071,216.993162 C29.5641071,221.625196 30.9738945,215.661573 31.7910992,215.661573 C32.6065559,215.661573 35.5878236,221.345184 35.5878236,224.867707 C35.5878236,225.032729 35.6026819,225.125773 35.6315244,225.15474 C35.6210362,224.977429 35.6315244,224.772907 35.6254063,224.588573 C35.609674,224.113696 35.5930677,223.638818 35.609674,223.12444 C35.6149181,222.943618 35.6323984,222.748751 35.6402646,222.564418 C35.6682331,221.98684 35.6988236,221.405751 35.7556346,220.796573 C35.7661228,220.68334 35.7818551,220.566596 35.7932173,220.452484 C36.166422,216.695596 36.9740126,212.527907 37.4486031,209.249407 C37.4634614,209.155484 37.4809417,209.048396 37.494052,208.956229 C37.5919417,208.260151 37.6732252,207.607962 37.7282882,207.013707 C38.1731622,202.245618 40.992737,192.411873 42.3605717,186.593962 C42.3605717,186.593962 42.3631937,186.543051 42.3675638,186.466684 C42.3736819,186.368373 42.3850441,186.155951 42.4016504,185.862773 C42.4042724,185.818007 42.4068945,185.752173 42.4095165,185.703896 C42.4235008,185.434418 42.4392331,185.126318 42.4584614,184.736584 C42.4584614,184.726929 42.4584614,184.71464 42.4593354,184.705862 C42.4803118,184.269607 42.5021622,183.771907 42.5257606,183.206618 C42.5257606,183.184673 42.5266346,183.156584 42.5275087,183.13464 C42.5965559,181.424729 42.6673512,179.193418 42.6988157,176.678584 C42.7023118,176.48284 42.7014378,176.273051 42.7031858,176.074673 C42.710178,175.411073 42.716325,174.746596 42.716325,174.054907 C42.7171701,173.155184 42.6979417,171.246896 42.6979417,171.216173 C42.6979417,166.984407 37.8550205,153.394651 35.9706425,147.488962 C35.5965638,146.316251 35.773115,145.87824 35.6498787,145.401607 C34.9095874,142.52864 30.7903512,136.988984 30.7903512,136.988984 L31.2360992,146.616451 Z" id="Fill-40" fill="#FFFFFF"></path>
                    <path d="M42.6977669,171.218192 C42.6977669,171.248037 42.6977669,171.277003 42.6977669,171.306848 C42.7117512,172.236414 42.7169953,173.155448 42.7161213,174.054292 C42.7161213,174.746859 42.7100031,175.411337 42.703011,176.074059 C42.701263,176.272437 42.702137,176.483103 42.6986409,176.67797 C42.6671764,179.193681 42.5963811,181.424992 42.5282079,183.134903 C42.5264598,183.156848 42.5255858,183.184059 42.5255858,183.206881 C42.5019874,183.771292 42.480137,184.26987 42.4600346,184.705248 C42.4591606,184.714903 42.4591606,184.727192 42.4582866,184.736848 C42.4399323,185.125703 42.423326,185.434681 42.4093417,185.703281 C42.4067197,185.752437 42.4049717,185.817392 42.4014756,185.863037 C42.3857433,186.156214 42.3735071,186.367759 42.367389,186.466948 C42.3630189,186.543314 42.3603969,186.594226 42.3603969,186.594226 C40.9925622,192.412137 38.1738614,202.245003 37.7281134,207.01397 C37.6730504,207.608226 37.5917669,208.260414 37.4938772,208.956492 C37.4938772,208.958248 37.4930031,208.960003 37.4930031,208.961759 C37.3645228,209.872892 37.2037039,210.874437 37.0341449,211.906703 C36.8908063,212.78097 36.7413496,213.687714 36.5936409,214.608503 C36.5892709,214.634837 36.5849008,214.662048 36.5805307,214.688381 C36.429326,215.631114 36.2816173,216.58877 36.1487669,217.540281 C36.1452709,217.557837 36.1435228,217.57627 36.1409008,217.593826 C36.0054283,218.558503 35.8865622,219.517914 35.7939165,220.45187 C35.7904205,220.490492 35.7851764,220.528237 35.7808063,220.566859 C35.7729402,220.644981 35.761578,220.726614 35.7545858,220.804737 C35.7003969,221.398992 35.6698063,221.966914 35.6427118,222.531326 C35.6383417,222.618226 35.6322236,222.708637 35.6278535,222.794659 C35.6208614,222.906137 35.6129953,223.017614 35.6094992,223.124703 C35.5937669,223.638203 35.6094992,224.113081 35.6261055,224.588837 L35.6261055,224.611659 C35.6357197,224.905714 35.6269795,225.224348 35.650578,225.501726 C36.095452,230.719237 39.8065228,230.42167 39.8065228,230.42167 C42.2747433,230.42167 47.1080504,228.88117 48.6699165,226.046826 C48.8412236,225.429748 49.0081606,224.800381 49.1716016,224.16487 C50.6285858,218.496181 51.7202315,212.122637 51.7202315,205.523503 C51.7202315,204.366592 51.7525701,203.11927 51.805885,201.806992 C51.805885,192.526248 47.2374047,181.224859 42.6977669,171.218192" id="Fill-42" fill="#FFFFFF"></path>
                    <path d="M83.3846858,225.795957 C83.3846858,226.696557 82.8576543,227.216201 82.4127803,227.216201 C81.9670323,227.216201 80.9348197,222.137379 80.9348197,218.755301 C81.1131189,218.760568 81.2249929,218.296223 81.2249929,216.993601 C81.2249929,212.361568 85.5679772,203.883112 85.5679772,187.631934 C85.5679772,171.380757 80.6315362,153.639112 79.5530008,146.616012 L79.785489,143.341901 C79.8860008,141.484523 79.9978748,136.988546 79.9978748,136.988546 L81.2249929,135.317257 C81.2249929,135.349734 81.2249929,135.379579 81.2249929,135.412934 C81.2249929,138.655446 86.6438906,141.637257 86.6438906,154.608179 C86.6438906,157.963046 90.2063787,164.224234 90.2063787,177.792046 C90.2063787,178.58819 90.1993866,179.37029 90.1871504,180.141857 C90.1836543,180.352523 90.1766622,180.556168 90.1722921,180.765079 C90.1609299,181.318957 90.1486937,181.871957 90.1312134,182.413546 C90.1233472,182.673368 90.111111,182.92529 90.1014969,183.181601 C90.0831425,183.662623 90.0656622,184.144523 90.0420638,184.61589 C90.0289535,184.887123 90.0123472,185.151334 89.997489,185.419057 C89.9738906,185.865846 89.9494181,186.313512 89.9214496,186.751523 C89.9039693,187.020123 89.8838669,187.283457 89.8646386,187.548546 C89.834922,187.977779 89.8043315,188.406134 89.7702449,188.825712 C89.7501425,189.082901 89.7265441,189.334823 89.7046937,189.589379 C89.6688591,190.008957 89.6321504,190.428534 89.5928197,190.839334 C89.5692213,191.081601 89.5438748,191.319479 89.5202764,191.559112 C89.4774496,191.974301 89.4346228,192.387734 89.389174,192.795023 C89.3638276,193.019734 89.3384811,193.240934 89.3122606,193.462134 C89.2633157,193.876446 89.2143709,194.289001 89.1628039,194.694534 C89.1374575,194.899057 89.110363,195.100946 89.0841425,195.303712 C89.0290795,195.721534 88.9731425,196.135846 88.9145835,196.54489 C88.889237,196.724834 88.8638906,196.903023 88.8376701,197.08209 C88.775615,197.507812 88.7118118,197.930901 88.6471346,198.347846 C88.6235362,198.500579 88.5999378,198.651557 88.5754654,198.802534 C88.5055441,199.244057 88.4338748,199.682068 88.3604575,200.113057 C88.3412291,200.230679 88.3211268,200.347423 88.3010244,200.464168 C88.221489,200.931146 88.1393315,201.392857 88.057174,201.847546 C88.0431898,201.921279 88.0300795,201.996768 88.0160953,202.070501 C87.9225756,202.578734 87.8281819,203.079946 87.7329142,203.573257 C87.7302921,203.587301 87.7276701,203.602223 87.724174,203.616268 C85.9123394,212.941779 83.7194339,219.698034 83.3881819,225.792446 L83.3846858,225.795957 Z" id="Fill-44" fill="#FFFFFF"></path>
                    <path d="M79.5527386,146.616451 C80.631274,153.638673 85.567715,171.381196 85.567715,187.632373 C85.567715,203.882673 81.2247307,212.361129 81.2247307,216.993162 C81.2247307,221.625196 79.8149433,215.661573 78.9977386,215.661573 C78.1814079,215.661573 75.2010142,221.345184 75.2010142,224.867707 C75.2010142,225.032729 75.1852819,225.125773 75.1573134,225.15474 C75.1678016,224.977429 75.1573134,224.772907 75.1634315,224.588573 C75.1791638,224.113696 75.1957701,223.638818 75.1791638,223.12444 C75.1739197,222.943618 75.1564394,222.748751 75.1476992,222.564418 C75.1206047,221.98684 75.0891402,221.405751 75.0332031,220.796573 C75.0218409,220.68334 75.0069827,220.566596 74.9947465,220.452484 C74.6224157,216.695596 73.8148252,212.527907 73.3402346,209.249407 C73.3253764,209.155484 73.3078961,209.048396 73.2947858,208.956229 C73.1968961,208.260151 73.1156126,207.607962 73.0605496,207.013707 C72.6148016,202.245618 69.7961008,192.411873 68.4282661,186.593962 C68.4282661,186.593962 68.4256441,186.543051 68.421274,186.466684 C68.4151559,186.368373 68.4037937,186.155951 68.3871874,185.862773 C68.3845654,185.818007 68.3810693,185.752173 68.3793213,185.703896 C68.365337,185.434418 68.3487307,185.126318 68.3303764,184.736584 C68.3295024,184.726929 68.3295024,184.71464 68.3295024,184.705862 C68.308526,184.269607 68.2866756,183.771907 68.2630772,183.206618 C68.2630772,183.184673 68.2622031,183.156584 68.2604551,183.13464 C68.1922819,181.424729 68.1214866,179.193418 68.090022,176.678584 C68.086526,176.48284 68.0874,176.273051 68.084778,176.074673 C68.0786598,175.411073 68.0716677,174.746596 68.0716677,174.054907 C68.0716677,173.155184 68.0908961,171.246896 68.0908961,171.216173 C68.0908961,166.984407 72.9338173,153.394651 74.8181953,147.488962 C75.192274,146.316251 75.0157228,145.87824 75.1389591,145.401607 C75.8792504,142.52864 79.9984866,136.988984 79.9984866,136.988984 L79.5527386,146.616451 Z" id="Fill-46" fill="#FFFFFF"></path>
                    <path d="M68.0911583,171.218192 C68.0911583,171.248037 68.0902843,171.277003 68.0902843,171.306848 C68.077174,172.236414 68.0719299,173.155448 68.0719299,174.054292 C68.0719299,174.746859 68.078922,175.411337 68.0850402,176.074059 C68.0876622,176.272437 68.0867882,176.483103 68.0902843,176.67797 C68.1217488,179.193681 68.1925441,181.424992 68.2607173,183.134903 C68.2624654,183.156848 68.2624654,183.184059 68.2633394,183.206881 C68.2869378,183.771292 68.3087882,184.26987 68.3288906,184.705248 C68.3297646,184.714903 68.3297646,184.727192 68.3306386,184.736848 C68.3489929,185.125703 68.3647252,185.434681 68.3795835,185.703281 C68.3813315,185.752437 68.3839535,185.817392 68.3874496,185.863037 C68.4031819,186.156214 68.4154181,186.367759 68.4206622,186.466948 C68.4259063,186.543314 68.4285283,186.594226 68.4285283,186.594226 C69.796363,192.412137 72.6150638,202.245003 73.0608118,207.01397 C73.1158748,207.608226 73.1971583,208.260414 73.295048,208.956492 C73.295048,208.958248 73.295922,208.960003 73.295922,208.961759 C73.4244024,209.872892 73.5852213,210.874437 73.7547803,211.906703 C73.8972449,212.78097 74.0475756,213.687714 74.1952843,214.608503 C74.1996543,214.634837 74.2040244,214.662048 74.2083945,214.688381 C74.3595992,215.631114 74.5073079,216.58877 74.6401583,217.540281 C74.6427803,217.557837 74.6454024,217.57627 74.6480244,217.593826 C74.7826228,218.558503 74.902363,219.517914 74.9950087,220.45187 C74.9985047,220.490492 75.0028748,220.528237 75.0081189,220.566859 C75.015985,220.644981 75.0273472,220.726614 75.0343394,220.804737 C75.0885283,221.398992 75.1191189,221.966914 75.1462134,222.531326 C75.1505835,222.618226 75.1567016,222.708637 75.1610717,222.794659 C75.1680638,222.906137 75.1759299,223.017614 75.179426,223.124703 C75.1951583,223.638203 75.179426,224.113081 75.1628197,224.588837 L75.1628197,224.611659 C75.1532055,224.905714 75.1619457,225.224348 75.1383472,225.501726 C74.6934732,230.719237 70.9815283,230.42167 70.9815283,230.42167 C68.5141819,230.42167 63.6800008,228.88117 62.1190087,226.046826 C61.9477016,225.429748 61.7807646,224.800381 61.6164496,224.16487 C60.1603394,218.496181 59.0686937,212.122637 59.0686937,205.523503 C59.0686937,204.366592 59.0363551,203.11927 58.9830402,201.806992 C58.9830402,192.526248 63.5515205,181.224859 68.0911583,171.218192" id="Fill-48" fill="#FFFFFF"></path>
                    <path d="M45.0347102,292.402963 C45.0373323,292.409986 45.0408283,292.41613 45.0434504,292.422274 C44.9350724,291.458474 44.853789,290.490286 44.853789,289.536141 C44.853789,283.870963 44.7060803,267.582919 44.7060803,267.582919 C44.7060803,267.582919 45.2628283,262.215308 45.2628283,256.623863 C45.2628283,251.033297 41.8113402,248.237574 41.8113402,245.778041 C39.9304583,250.992041 35.4292772,270.935152 45.0347102,292.402963" id="Fill-50" fill="#FFFFFF"></path>
                    <path d="M25.3326472,251.704182 C25.3326472,263.480449 31.6281827,278.078771 33.3526157,287.968693 C33.3526157,287.963427 33.3534898,287.959038 33.3543638,287.953771 C35.9274661,260.903293 29.1835606,253.266627 25.5660094,244.947049 C25.4244189,246.748249 25.3326472,248.90846 25.3326472,251.704182" id="Fill-52" fill="#FFFFFF"></path>
                    <path d="M65.7541276,292.402963 C65.7515055,292.409986 65.7480094,292.41613 65.7445134,292.422274 C65.8537654,291.458474 65.9350488,290.490286 65.9350488,289.536141 C65.9350488,283.870963 66.0827575,267.582919 66.0827575,267.582919 C66.0827575,267.582919 65.5260094,262.215308 65.5260094,256.623863 C65.5260094,251.033297 68.9774976,248.237574 68.9774976,245.778041 C70.8575055,250.992041 75.3595606,270.935152 65.7541276,292.402963" id="Fill-54" fill="#FFFFFF"></path>
                    <path d="M85.4557535,251.704182 C85.4557535,263.480449 79.1610921,278.078771 77.4366591,287.968693 C77.435785,287.963427 77.434911,287.959038 77.434037,287.953771 C74.8609346,260.903293 81.6057142,253.266627 85.2232654,244.947049 C85.3648559,246.748249 85.4557535,248.90846 85.4557535,251.704182" id="Fill-56" fill="#FFFFFF"></path>
                    <path d="M9.85645039,108.576196 C9.85645039,107.77654 9.87218268,107.029551 9.88878898,106.288707 C9.86956063,107.021651 9.85645039,107.77654 9.85645039,108.576196" id="Fill-58" fill="#FFFFFF"></path>
                    <path d="M13.6550976,125.684348 C14.4093732,121.08567 15.1636488,119.424914 13.6550976,116.589692 C12.1465465,113.755348 11.1405543,117.65707 7.08512126,116.589692 C6.58693228,117.945859 6.1105937,119.358203 5.74787717,120.764403 C4.9228063,123.96917 5.18675906,139.195103 4.5898063,151.723626 L4.59068031,151.723626 C4.59068031,151.723626 7.87173543,145.182426 8.12345197,138.616648 C8.37429449,132.05087 12.900822,130.283026 13.6550976,125.684348" id="Fill-60" fill="#FFFFFF"></path>
                    <path d="M14.5260543,133.629729 C12.397826,140.131429 10.7808969,157.664162 10.7808969,157.664162 C10.7808969,157.664162 22.1841803,131.051696 22.665763,125.684084 C22.665763,125.684084 16.6542827,127.128029 14.5260543,133.629729" id="Fill-62" fill="#FFFFFF"></path>
                    <path d="M98.1486472,75.5151344 C98.1486472,85.2058011 97.3690252,84.3113456 97.3690252,85.9887789 C92.4701669,84.9828456 89.2415528,80.7335233 83.3410724,70.7812789 C77.4397181,60.8299122 72.4289858,62.39499 72.4289858,60.0469344 C72.4289858,58.2571456 75.880474,57.4750456 77.0682614,55.6861344 C87.6080173,55.6861344 98.1486472,65.82359 98.1486472,75.5151344" id="Fill-64" fill="#BCC4FF"></path>
                    <path d="M60.0704906,66.3087378 C60.7251283,65.0113822 70.0910811,60.0466711 72.4290732,60.0466711 C72.4290732,62.3947267 77.4398055,60.8296489 83.3411598,70.7810156 C85.5323173,74.4773378 87.3546402,77.3854156 89.0318764,79.6342822 C86.3722465,81.1071933 87.237522,82.2983378 84.7876559,84.4234378 C82.3386638,86.54766 74.2111913,89.7901711 69.2004591,89.7901711 C64.1897268,89.7901711 57.2246953,86.7714933 57.2246953,86.7714933 L57.2246953,79.1673044 C57.2246953,70.8933711 59.0557583,68.3214822 60.0704906,66.3087378" id="Fill-66" fill="#7E8DFE"></path>
                    <path d="M87.0949701,76.8540967 L87.0949701,76.8540967 C87.3292063,77.2078411 87.5590724,77.5510522 87.7854425,77.8828522 C87.5590724,77.5510522 87.3292063,77.2087189 87.0949701,76.8540967" id="Fill-68" fill="#FFFFFF"></path>
                    <path d="M89.0317016,79.6344578 L89.0317016,79.6344578 C88.8813709,79.4325689 88.7275441,79.2175133 88.5737173,79.0050911 C91.6135441,83.22808 94.1263394,85.3224578 97.3698118,85.9886911 C97.3698118,88.5755022 100.9323,92.5860689 100.9323,108.576547 C100.9323,111.819058 93.2252291,115.990258 89.6872134,108.576547 C87.392048,103.767202 86.5285205,101.763236 85.9927488,100.582624 C85.7191819,99.6328689 85.4613472,99.0719689 85.2332291,99.0719689 C84.4544811,97.7298467 84.7883551,84.4236133 84.7883551,84.4236133 C87.2373472,82.2985133 86.3720717,81.1073689 89.0317016,79.6344578" id="Fill-70" fill="#FFFFFF"></path>
                    <path d="M88.4435764,78.8256733 C88.2320646,78.5298622 88.0179307,78.22264 87.8011748,77.9057622 C88.0188047,78.22264 88.2320646,78.5298622 88.4435764,78.8256733" id="Fill-72" fill="#FFFFFF"></path>
                    <path d="M97.1338276,125.684348 C96.379552,121.08567 95.6252764,119.424914 97.1338276,116.589692 C98.6423787,113.755348 99.6483709,117.65707 103.703804,116.589692 C104.201993,117.945859 104.678331,119.358203 105.040174,120.764403 C105.866119,123.96917 105.602166,139.195103 106.199119,151.723626 L106.198245,151.723626 C106.198245,151.723626 102.91719,145.182426 102.665473,138.616648 C102.413757,132.05087 97.8881031,130.283026 97.1338276,125.684348" id="Fill-74" fill="#FFFFFF"></path>
                    <path d="M96.2627835,133.629729 C98.3910118,140.131429 100.007941,157.664162 100.007941,157.664162 C100.007941,157.664162 88.6046575,131.051696 88.1230748,125.684084 C88.1230748,125.684084 94.1345551,127.128029 96.2627835,133.629729" id="Fill-76" fill="#FFFFFF"></path>
                    <path d="M40.7047488,21.8241011 C40.7047488,20.5478122 38.884174,20.1879233 37.6990087,20.1879233 C36.5120953,20.1879233 36.0558591,22.0207233 36.9683315,26.3279789 C37.8808039,30.6361122 41.5158354,31.8887011 41.5158354,31.8887011 L40.7047488,21.8241011 Z" id="Fill-78" fill="#FFFFFF"></path>
                    <path d="M70.084089,21.8241011 C70.084089,20.5478122 71.9037898,20.1879233 73.0898291,20.1879233 C74.2767425,20.1879233 74.7329787,22.0207233 73.8205063,26.3279789 C72.9071598,30.6361122 69.2730024,31.8887011 69.2730024,31.8887011 L70.084089,21.8241011 Z" id="Fill-80" fill="#FFFFFF"></path>
                </g>
                <g id="stroke" stroke="#353E82" stroke-linejoin="round" stroke-width="1.742">
                    <path d="M12.6397535,75.5151344 C12.6397535,85.2058011 13.4193756,84.3113456 13.4193756,85.9887789 C18.3182339,84.9828456 21.546848,80.7335233 27.4482024,70.7812789 C33.3486827,60.8299122 38.359415,62.39499 38.359415,60.0469344 C38.359415,58.2571456 34.9079268,57.4750456 33.7201394,55.6861344 C23.1803835,55.6861344 12.6397535,65.82359 12.6397535,75.5151344 Z" id="Stroke-1"></path>
                    <path d="M50.7179102,66.3087378 C50.0641465,65.0113822 40.6973197,60.0466711 38.3593276,60.0466711 C38.3593276,62.3947267 33.3485953,60.8296489 27.448115,70.7810156 C25.2569575,74.4773378 23.4337606,77.3854156 21.7565244,79.6342822 L21.7573984,79.6342822 C24.4170283,81.1071933 23.5508787,82.2983378 26.0007449,84.4234378 C28.449737,86.54766 36.5780835,89.7901711 41.5879417,89.7901711 C46.598674,89.7901711 53.5637055,86.7714933 53.5637055,86.7714933 L53.5637055,79.1673044 C53.5637055,70.8933711 51.7335165,68.3214822 50.7179102,66.3087378 Z" id="Stroke-3"></path>
                    <path d="M43.5179433,103.739026 L43.5179433,96.2033033 C43.5179433,93.59367 44.557148,91.6555367 46.4869748,91.6555367 C48.4168016,91.6555367 52.3507465,90.0158478 52.7964945,90.0158478 C53.2413685,90.0158478 54.1328646,90.16507 54.1328646,91.09727 L54.1328646,101.233848 C54.1328646,102.705881 52.3883291,102.798926 49.9760457,102.798926 C48.5653843,102.798926 45.5587701,104.074337 44.9286047,104.708092 C44.2975654,105.341848 43.5179433,104.484259 43.5179433,103.739026 Z" id="Stroke-5"></path>
                    <path d="M54.132515,107.858349 C54.132515,106.74006 53.6133496,105.845604 52.2769795,105.845604 L48.8622,105.845604 C47.5258299,105.845604 43.7404677,108.155916 43.7404677,110.243271 L43.7404677,115.099138 C43.7404677,116.068204 44.1862157,116.589604 45.3740031,116.589604 L50.5700268,116.589604 C51.2377748,116.589604 54.132515,115.247482 54.132515,113.38396 L54.132515,107.858349 Z" id="Stroke-7"></path>
                    <path d="M43.425385,126.74681 L43.425385,121.201888 C43.425385,120.251254 43.9261961,118.909132 45.3735661,118.909132 L51.3859205,118.909132 C52.2765425,118.909132 54.0586606,120.027421 54.0586606,121.258066 L54.0586606,126.74681 C54.0586606,127.585088 53.6688496,129.038688 52.7222906,129.038688 L46.4870622,129.038688 C45.4845661,129.038688 43.425385,128.088054 43.425385,126.74681 Z" id="Stroke-9"></path>
                    <path d="M52.4253874,131.721616 L46.2644504,131.721616 C45.076663,131.721616 43.7402929,132.690682 43.7402929,133.808971 C43.7402929,134.92726 49.2334819,159.528738 53.5388835,159.528738 L54.0580488,159.528738 C54.2817969,153.720482 54.0580488,134.802616 54.0580488,133.808971 C54.0580488,132.616071 53.8351748,131.721616 52.4253874,131.721616 Z" id="Stroke-11"></path>
                    <path d="M67.2704575,103.739026 L67.2704575,96.2033033 C67.2704575,93.59367 66.2312528,91.6555367 64.301426,91.6555367 C62.3715992,91.6555367 58.4376543,90.0158478 57.9919063,90.0158478 C57.5470323,90.0158478 56.6564102,90.16507 56.6564102,91.09727 L56.6564102,101.233848 C56.6564102,102.705881 58.4009457,102.798926 60.8132291,102.798926 C62.2230165,102.798926 65.2296307,104.074337 65.8606701,104.708092 C66.4908354,105.341848 67.2704575,104.484259 67.2704575,103.739026 Z" id="Stroke-13"></path>
                    <path d="M56.6564102,107.858349 C56.6564102,106.74006 57.1755756,105.845604 58.5119457,105.845604 L61.9258512,105.845604 C63.2622213,105.845604 67.0484575,108.155916 67.0484575,110.243271 L67.0484575,115.099138 C67.0484575,116.068204 66.6027094,116.589604 65.414922,116.589604 L60.2188984,116.589604 C59.5511504,116.589604 56.6564102,115.247482 56.6564102,113.38396 L56.6564102,107.858349 Z" id="Stroke-15"></path>
                    <path d="M67.3634528,126.74681 L67.3634528,121.201888 C67.3634528,120.251254 66.8626417,118.909132 65.4152717,118.909132 L59.4029173,118.909132 C58.5122953,118.909132 56.7301772,120.027421 56.7301772,121.258066 L56.7301772,126.74681 C56.7301772,127.585088 57.1199882,129.038688 58.0665472,129.038688 L64.3017756,129.038688 C65.3033976,129.038688 67.3634528,128.088054 67.3634528,126.74681 Z" id="Stroke-17"></path>
                    <path d="M58.3634504,131.721616 L64.5243874,131.721616 C65.7121748,131.721616 67.0485449,132.690682 67.0485449,133.808971 C67.0485449,134.92726 61.5553559,159.528738 57.2499543,159.528738 L56.730789,159.528738 C56.5070409,153.720482 56.730789,134.802616 56.730789,133.808971 C56.730789,132.616071 56.952789,131.721616 58.3634504,131.721616 Z" id="Stroke-19"></path>
                    <path d="M23.6934307,76.8540967 L23.6934307,76.8540967 C23.4591945,77.2078411 23.2302024,77.5510522 23.0029583,77.8828522 C23.2302024,77.5510522 23.4591945,77.2087189 23.6934307,76.8540967 Z" id="Stroke-21"></path>
                    <path d="M21.7572236,79.6344578 L21.7572236,79.6344578 C21.9075543,79.4325689 22.0613811,79.2175133 22.2143339,79.0050911 C19.1753811,83.22808 16.6625858,85.3224578 13.4191134,85.9886911 C13.4191134,88.5755022 9.8566252,92.5860689 9.8566252,108.576547 C9.8566252,111.819058 17.5636961,115.990258 21.1017118,108.576547 C23.3968772,103.767202 24.2595307,101.763236 24.7961764,100.582624 C25.0688693,99.6328689 25.327578,99.0719689 25.5556961,99.0719689 C26.3344441,97.7298467 26.0005701,84.4236133 26.0005701,84.4236133 C23.551578,82.2985133 24.4168535,81.1073689 21.7572236,79.6344578 Z" id="Stroke-23"></path>
                    <path d="M22.3452614,78.8256733 C22.5567732,78.5298622 22.7700331,78.22264 22.986789,77.9057622 C22.7700331,78.22264 22.5567732,78.5298622 22.3452614,78.8256733 Z" id="Stroke-25"></path>
                    <path d="M55.3944189,8.77777778e-05 C45.3161433,8.77777778e-05 40.2774425,8.95342111 40.2774425,13.6249544 C40.2774425,18.2964878 42.0211039,37.5672211 42.0211039,37.5672211 C42.0211039,37.5672211 49.1924031,47.2991433 55.3944189,47.2991433 C61.5964346,47.2991433 68.7677339,37.5672211 68.7677339,37.5672211 C68.7677339,37.5672211 70.5113953,18.2964878 70.5113953,13.6249544 C70.5113953,8.95342111 65.4726945,8.77777778e-05 55.3944189,8.77777778e-05 Z" id="Stroke-27"></path>
                    <path d="M70.0171394,140.444532 C70.0171394,132.169721 72.1698402,132.840343 72.1698402,128.442677 C72.1698402,119.27341 70.0171394,111.446266 70.0171394,107.346166 C70.0171394,103.246066 70.387722,89.79061 70.387722,89.79061 L70.2129189,89.7502322 C69.8641866,89.7765656 69.5259425,89.79061 69.1999346,89.79061 C64.1900764,89.79061 57.2250449,86.7719322 57.2250449,86.7719322 L55.3948559,86.7719322 L53.5637929,86.7719322 C53.5637929,86.7719322 46.5987614,89.79061 41.5880291,89.79061 C41.2637693,89.79061 40.9246512,89.7765656 40.5759189,89.7502322 L40.4002417,89.79061 C40.4002417,89.79061 40.7716984,103.246066 40.7716984,107.346166 C40.7716984,111.446266 38.6189976,119.27341 38.6189976,128.442677 C38.6189976,132.840343 40.7716984,132.169721 40.7716984,140.444532 C40.7716984,143.351732 38.5447063,145.401343 35.6499661,145.401343 C35.6499661,152.07421 51.238037,164.597466 55.3948559,164.597466 C59.5508008,164.597466 75.1388717,152.07421 75.1388717,145.401343 C72.2432575,145.401343 70.0171394,143.351732 70.0171394,140.444532 Z" id="Stroke-29"></path>
                    <path d="M75.1386969,145.401782 C77.0685236,140.37036 81.2253425,135.412671 81.2253425,135.412671" id="Stroke-31"></path>
                    <path d="M27.404152,225.795957 C27.404152,226.696557 27.9303094,227.216201 28.3760575,227.216201 C28.8218055,227.216201 29.8540181,222.137379 29.8540181,218.755301 C29.6748449,218.760568 29.5638449,218.296223 29.5638449,216.993601 C29.5638449,212.361568 25.2208606,203.883112 25.2208606,187.631934 C25.2208606,171.380757 30.1573016,153.639112 31.235837,146.616012 L31.0033488,143.341901 C30.902837,141.484523 30.790963,136.988546 30.790963,136.988546 L29.5638449,135.317257 C29.5638449,135.349734 29.5638449,135.379579 29.5638449,135.412934 C29.5638449,138.655446 24.1449472,141.637257 24.1449472,154.608179 C24.1449472,157.963046 20.5824591,164.224234 20.5824591,177.792046 C20.5824591,178.58819 20.5894512,179.37029 20.6016874,180.141857 C20.6051835,180.352523 20.6121756,180.556168 20.6165457,180.765079 C20.6279079,181.318957 20.6392701,181.871957 20.6567504,182.413546 C20.6654906,182.673368 20.6777268,182.92529 20.6873409,183.181601 C20.7056953,183.662623 20.7231756,184.144523 20.746774,184.61589 C20.7598843,184.887123 20.7764906,185.151334 20.7904748,185.419057 C20.8149472,185.865846 20.8394197,186.313512 20.8673882,186.751523 C20.8848685,187.020123 20.9049709,187.283457 20.9233252,187.548546 C20.9539157,187.977779 20.9845063,188.406134 21.0177189,188.825712 C21.0386953,189.082901 21.0622937,189.334823 21.0841441,189.589379 C21.1199787,190.008957 21.1566874,190.428534 21.1960181,190.839334 C21.2196165,191.081601 21.244963,191.319479 21.2685614,191.559112 C21.3113882,191.974301 21.354215,192.387734 21.3996638,192.795023 C21.4250102,193.019734 21.4503567,193.240934 21.4765772,193.462134 C21.524648,193.876446 21.5744669,194.289001 21.6260339,194.694534 C21.6513803,194.899057 21.6784748,195.100946 21.7046953,195.303712 C21.7597583,195.721534 21.8156953,196.135846 21.8742543,196.54489 C21.8996008,196.724834 21.9249472,196.903023 21.9511677,197.08209 C22.0132228,197.507812 22.076152,197.930901 22.1417031,198.347846 C22.1653016,198.500579 22.1889,198.651557 22.2133724,198.802534 C22.2832937,199.244057 22.354963,199.682068 22.4275063,200.113057 C22.4476087,200.230679 22.467711,200.347423 22.4878134,200.464168 C22.5673488,200.931146 22.6495063,201.392857 22.7316638,201.847546 C22.744774,201.921279 22.7587583,201.996768 22.7727425,202.070501 C22.8653882,202.578734 22.9606559,203.079946 23.0559236,203.573257 C23.0585457,203.587301 23.0611677,203.602223 23.0646638,203.616268 C24.8764984,212.941779 27.0694039,219.698034 27.4006559,225.792446 L27.404152,225.795957 Z" id="Stroke-33"></path>
                    <path d="M55.3944189,47.2994067 C54.1908992,47.2994067 52.9515449,46.93074 51.734915,46.3391178 L51.7331669,46.3391178 C51.7331669,50.6165289 52.5739701,62.99144 55.3944189,62.99144 C58.2148677,62.99144 59.0556709,50.6165289 59.0556709,46.3391178 L59.0539228,46.3391178 C57.8372929,46.93074 56.5979386,47.2994067 55.3944189,47.2994067 Z" id="Stroke-35"></path>
                    <path d="M31.2360992,146.616451 C30.1575638,153.638673 25.2211228,171.381196 25.2211228,187.632373 C25.2211228,203.882673 29.5641071,212.361129 29.5641071,216.993162 C29.5641071,221.625196 30.9738945,215.661573 31.7910992,215.661573 C32.6065559,215.661573 35.5878236,221.345184 35.5878236,224.867707 C35.5878236,225.032729 35.6026819,225.125773 35.6315244,225.15474 C35.6210362,224.977429 35.6315244,224.772907 35.6254063,224.588573 C35.609674,224.113696 35.5930677,223.638818 35.609674,223.12444 C35.6149181,222.943618 35.6323984,222.748751 35.6402646,222.564418 C35.6682331,221.98684 35.6988236,221.405751 35.7556346,220.796573 C35.7661228,220.68334 35.7818551,220.566596 35.7932173,220.452484 C36.166422,216.695596 36.9740126,212.527907 37.4486031,209.249407 C37.4634614,209.155484 37.4809417,209.048396 37.494052,208.956229 C37.5919417,208.260151 37.6732252,207.607962 37.7282882,207.013707 C38.1731622,202.245618 40.992737,192.411873 42.3605717,186.593962 C42.3605717,186.593962 42.3631937,186.543051 42.3675638,186.466684 C42.3736819,186.368373 42.3850441,186.155951 42.4016504,185.862773 C42.4042724,185.818007 42.4068945,185.752173 42.4095165,185.703896 C42.4235008,185.434418 42.4392331,185.126318 42.4584614,184.736584 C42.4584614,184.726929 42.4584614,184.71464 42.4593354,184.705862 C42.4803118,184.269607 42.5021622,183.771907 42.5257606,183.206618 C42.5257606,183.184673 42.5266346,183.156584 42.5275087,183.13464 C42.5965559,181.424729 42.6673512,179.193418 42.6988157,176.678584 C42.7023118,176.48284 42.7014378,176.273051 42.7031858,176.074673 C42.710178,175.411073 42.716325,174.746596 42.716325,174.054907 C42.7171701,173.155184 42.6979417,171.246896 42.6979417,171.216173 C42.6979417,166.984407 37.8550205,153.394651 35.9706425,147.488962 C35.5965638,146.316251 35.773115,145.87824 35.6498787,145.401607 C34.9095874,142.52864 30.7903512,136.988984 30.7903512,136.988984 L31.2360992,146.616451 Z" id="Stroke-37"></path>
                    <path d="M42.6977669,171.218192 C42.6977669,171.248037 42.6977669,171.277003 42.6977669,171.306848 C42.7117512,172.236414 42.7169953,173.155448 42.7161213,174.054292 C42.7161213,174.746859 42.7100031,175.411337 42.703011,176.074059 C42.701263,176.272437 42.702137,176.483103 42.6986409,176.67797 C42.6671764,179.193681 42.5963811,181.424992 42.5282079,183.134903 C42.5264598,183.156848 42.5255858,183.184059 42.5255858,183.206881 C42.5019874,183.771292 42.480137,184.26987 42.4600346,184.705248 C42.4591606,184.714903 42.4591606,184.727192 42.4582866,184.736848 C42.4399323,185.125703 42.423326,185.434681 42.4093417,185.703281 C42.4067197,185.752437 42.4049717,185.817392 42.4014756,185.863037 C42.3857433,186.156214 42.3735071,186.367759 42.367389,186.466948 C42.3630189,186.543314 42.3603969,186.594226 42.3603969,186.594226 C40.9925622,192.412137 38.1738614,202.245003 37.7281134,207.01397 C37.6730504,207.608226 37.5917669,208.260414 37.4938772,208.956492 C37.4938772,208.958248 37.4930031,208.960003 37.4930031,208.961759 C37.3645228,209.872892 37.2037039,210.874437 37.0341449,211.906703 C36.8908063,212.78097 36.7413496,213.687714 36.5936409,214.608503 C36.5892709,214.634837 36.5849008,214.662048 36.5805307,214.688381 C36.429326,215.631114 36.2816173,216.58877 36.1487669,217.540281 C36.1452709,217.557837 36.1435228,217.57627 36.1409008,217.593826 C36.0054283,218.558503 35.8865622,219.517914 35.7939165,220.45187 C35.7904205,220.490492 35.7851764,220.528237 35.7808063,220.566859 C35.7729402,220.644981 35.761578,220.726614 35.7545858,220.804737 C35.7003969,221.398992 35.6698063,221.966914 35.6427118,222.531326 C35.6383417,222.618226 35.6322236,222.708637 35.6278535,222.794659 C35.6208614,222.906137 35.6129953,223.017614 35.6094992,223.124703 C35.5937669,223.638203 35.6094992,224.113081 35.6261055,224.588837 L35.6261055,224.611659 C35.6357197,224.905714 35.6269795,225.224348 35.650578,225.501726 C36.095452,230.719237 39.8065228,230.42167 39.8065228,230.42167 C42.2747433,230.42167 47.1080504,228.88117 48.6699165,226.046826 C48.8412236,225.429748 49.0081606,224.800381 49.1716016,224.16487 C50.6285858,218.496181 51.7202315,212.122637 51.7202315,205.523503 C51.7202315,204.366592 51.7525701,203.11927 51.805885,201.806992 C51.805885,192.526248 47.2374047,181.224859 42.6977669,171.218192 Z" id="Stroke-39"></path>
                    <path d="M83.3846858,225.795957 C83.3846858,226.696557 82.8576543,227.216201 82.4127803,227.216201 C81.9670323,227.216201 80.9348197,222.137379 80.9348197,218.755301 C81.1131189,218.760568 81.2249929,218.296223 81.2249929,216.993601 C81.2249929,212.361568 85.5679772,203.883112 85.5679772,187.631934 C85.5679772,171.380757 80.6315362,153.639112 79.5530008,146.616012 L79.785489,143.341901 C79.8860008,141.484523 79.9978748,136.988546 79.9978748,136.988546 L81.2249929,135.317257 C81.2249929,135.349734 81.2249929,135.379579 81.2249929,135.412934 C81.2249929,138.655446 86.6438906,141.637257 86.6438906,154.608179 C86.6438906,157.963046 90.2063787,164.224234 90.2063787,177.792046 C90.2063787,178.58819 90.1993866,179.37029 90.1871504,180.141857 C90.1836543,180.352523 90.1766622,180.556168 90.1722921,180.765079 C90.1609299,181.318957 90.1486937,181.871957 90.1312134,182.413546 C90.1233472,182.673368 90.111111,182.92529 90.1014969,183.181601 C90.0831425,183.662623 90.0656622,184.144523 90.0420638,184.61589 C90.0289535,184.887123 90.0123472,185.151334 89.997489,185.419057 C89.9738906,185.865846 89.9494181,186.313512 89.9214496,186.751523 C89.9039693,187.020123 89.8838669,187.283457 89.8646386,187.548546 C89.834922,187.977779 89.8043315,188.406134 89.7702449,188.825712 C89.7501425,189.082901 89.7265441,189.334823 89.7046937,189.589379 C89.6688591,190.008957 89.6321504,190.428534 89.5928197,190.839334 C89.5692213,191.081601 89.5438748,191.319479 89.5202764,191.559112 C89.4774496,191.974301 89.4346228,192.387734 89.389174,192.795023 C89.3638276,193.019734 89.3384811,193.240934 89.3122606,193.462134 C89.2633157,193.876446 89.2143709,194.289001 89.1628039,194.694534 C89.1374575,194.899057 89.110363,195.100946 89.0841425,195.303712 C89.0290795,195.721534 88.9731425,196.135846 88.9145835,196.54489 C88.889237,196.724834 88.8638906,196.903023 88.8376701,197.08209 C88.775615,197.507812 88.7118118,197.930901 88.6471346,198.347846 C88.6235362,198.500579 88.5999378,198.651557 88.5754654,198.802534 C88.5055441,199.244057 88.4338748,199.682068 88.3604575,200.113057 C88.3412291,200.230679 88.3211268,200.347423 88.3010244,200.464168 C88.221489,200.931146 88.1393315,201.392857 88.057174,201.847546 C88.0431898,201.921279 88.0300795,201.996768 88.0160953,202.070501 C87.9225756,202.578734 87.8281819,203.079946 87.7329142,203.573257 C87.7302921,203.587301 87.7276701,203.602223 87.724174,203.616268 C85.9123394,212.941779 83.7194339,219.698034 83.3881819,225.792446 L83.3846858,225.795957 Z" id="Stroke-41"></path>
                    <path d="M79.5527386,146.616451 C80.631274,153.638673 85.567715,171.381196 85.567715,187.632373 C85.567715,203.882673 81.2247307,212.361129 81.2247307,216.993162 C81.2247307,221.625196 79.8149433,215.661573 78.9977386,215.661573 C78.1814079,215.661573 75.2010142,221.345184 75.2010142,224.867707 C75.2010142,225.032729 75.1852819,225.125773 75.1573134,225.15474 C75.1678016,224.977429 75.1573134,224.772907 75.1634315,224.588573 C75.1791638,224.113696 75.1957701,223.638818 75.1791638,223.12444 C75.1739197,222.943618 75.1564394,222.748751 75.1476992,222.564418 C75.1206047,221.98684 75.0891402,221.405751 75.0332031,220.796573 C75.0218409,220.68334 75.0069827,220.566596 74.9947465,220.452484 C74.6224157,216.695596 73.8148252,212.527907 73.3402346,209.249407 C73.3253764,209.155484 73.3078961,209.048396 73.2947858,208.956229 C73.1968961,208.260151 73.1156126,207.607962 73.0605496,207.013707 C72.6148016,202.245618 69.7961008,192.411873 68.4282661,186.593962 C68.4282661,186.593962 68.4256441,186.543051 68.421274,186.466684 C68.4151559,186.368373 68.4037937,186.155951 68.3871874,185.862773 C68.3845654,185.818007 68.3810693,185.752173 68.3793213,185.703896 C68.365337,185.434418 68.3487307,185.126318 68.3303764,184.736584 C68.3295024,184.726929 68.3295024,184.71464 68.3295024,184.705862 C68.308526,184.269607 68.2866756,183.771907 68.2630772,183.206618 C68.2630772,183.184673 68.2622031,183.156584 68.2604551,183.13464 C68.1922819,181.424729 68.1214866,179.193418 68.090022,176.678584 C68.086526,176.48284 68.0874,176.273051 68.084778,176.074673 C68.0786598,175.411073 68.0716677,174.746596 68.0716677,174.054907 C68.0716677,173.155184 68.0908961,171.246896 68.0908961,171.216173 C68.0908961,166.984407 72.9338173,153.394651 74.8181953,147.488962 C75.192274,146.316251 75.0157228,145.87824 75.1389591,145.401607 C75.8792504,142.52864 79.9984866,136.988984 79.9984866,136.988984 L79.5527386,146.616451 Z" id="Stroke-43"></path>
                    <path d="M68.0911583,171.218192 C68.0911583,171.248037 68.0902843,171.277003 68.0902843,171.306848 C68.077174,172.236414 68.0719299,173.155448 68.0719299,174.054292 C68.0719299,174.746859 68.078922,175.411337 68.0850402,176.074059 C68.0876622,176.272437 68.0867882,176.483103 68.0902843,176.67797 C68.1217488,179.193681 68.1925441,181.424992 68.2607173,183.134903 C68.2624654,183.156848 68.2624654,183.184059 68.2633394,183.206881 C68.2869378,183.771292 68.3087882,184.26987 68.3288906,184.705248 C68.3297646,184.714903 68.3297646,184.727192 68.3306386,184.736848 C68.3489929,185.125703 68.3647252,185.434681 68.3795835,185.703281 C68.3813315,185.752437 68.3839535,185.817392 68.3874496,185.863037 C68.4031819,186.156214 68.4154181,186.367759 68.4206622,186.466948 C68.4259063,186.543314 68.4285283,186.594226 68.4285283,186.594226 C69.796363,192.412137 72.6150638,202.245003 73.0608118,207.01397 C73.1158748,207.608226 73.1971583,208.260414 73.295048,208.956492 C73.295048,208.958248 73.295922,208.960003 73.295922,208.961759 C73.4244024,209.872892 73.5852213,210.874437 73.7547803,211.906703 C73.8972449,212.78097 74.0475756,213.687714 74.1952843,214.608503 C74.1996543,214.634837 74.2040244,214.662048 74.2083945,214.688381 C74.3595992,215.631114 74.5073079,216.58877 74.6401583,217.540281 C74.6427803,217.557837 74.6454024,217.57627 74.6480244,217.593826 C74.7826228,218.558503 74.902363,219.517914 74.9950087,220.45187 C74.9985047,220.490492 75.0028748,220.528237 75.0081189,220.566859 C75.015985,220.644981 75.0273472,220.726614 75.0343394,220.804737 C75.0885283,221.398992 75.1191189,221.966914 75.1462134,222.531326 C75.1505835,222.618226 75.1567016,222.708637 75.1610717,222.794659 C75.1680638,222.906137 75.1759299,223.017614 75.179426,223.124703 C75.1951583,223.638203 75.179426,224.113081 75.1628197,224.588837 L75.1628197,224.611659 C75.1532055,224.905714 75.1619457,225.224348 75.1383472,225.501726 C74.6934732,230.719237 70.9815283,230.42167 70.9815283,230.42167 C68.5141819,230.42167 63.6800008,228.88117 62.1190087,226.046826 C61.9477016,225.429748 61.7807646,224.800381 61.6164496,224.16487 C60.1603394,218.496181 59.0686937,212.122637 59.0686937,205.523503 C59.0686937,204.366592 59.0363551,203.11927 58.9830402,201.806992 C58.9830402,192.526248 63.5515205,181.224859 68.0911583,171.218192 Z" id="Stroke-45"></path>
                    <path d="M45.0347102,292.402963 C45.0373323,292.409986 45.0408283,292.41613 45.0434504,292.422274 C44.9350724,291.458474 44.853789,290.490286 44.853789,289.536141 C44.853789,283.870963 44.7060803,267.582919 44.7060803,267.582919 C44.7060803,267.582919 45.2628283,262.215308 45.2628283,256.623863 C45.2628283,251.033297 41.8113402,248.237574 41.8113402,245.778041 C39.9304583,250.992041 35.4292772,270.935152 45.0347102,292.402963 Z" id="Stroke-47"></path>
                    <path d="M25.3326472,251.704182 C25.3326472,263.480449 31.6281827,278.078771 33.3526157,287.968693 C33.3526157,287.963427 33.3534898,287.959038 33.3543638,287.953771 C35.9274661,260.903293 29.1835606,253.266627 25.5660094,244.947049 C25.4244189,246.748249 25.3326472,248.90846 25.3326472,251.704182 Z" id="Stroke-49"></path>
                    <path d="M65.7541276,292.402963 C65.7515055,292.409986 65.7480094,292.41613 65.7445134,292.422274 C65.8537654,291.458474 65.9350488,290.490286 65.9350488,289.536141 C65.9350488,283.870963 66.0827575,267.582919 66.0827575,267.582919 C66.0827575,267.582919 65.5260094,262.215308 65.5260094,256.623863 C65.5260094,251.033297 68.9774976,248.237574 68.9774976,245.778041 C70.8575055,250.992041 75.3595606,270.935152 65.7541276,292.402963 Z" id="Stroke-51"></path>
                    <path d="M85.4557535,251.704182 C85.4557535,263.480449 79.1610921,278.078771 77.4366591,287.968693 C77.435785,287.963427 77.434911,287.959038 77.434037,287.953771 C74.8609346,260.903293 81.6057142,253.266627 85.2232654,244.947049 C85.3648559,246.748249 85.4557535,248.90846 85.4557535,251.704182 Z" id="Stroke-53"></path>
                    <path d="M9.85645039,108.576196 C9.85645039,107.77654 9.87218268,107.029551 9.88878898,106.288707 C9.86956063,107.021651 9.85645039,107.77654 9.85645039,108.576196 Z" id="Stroke-55"></path>
                    <path d="M110.537646,169.816206 C109.749283,167.930739 108.364843,162.015394 107.968913,157.102472 C106.912228,144.007783 105.994512,124.469328 105.040087,120.764228 C103.728189,115.668728 100.932213,110.402939 100.932213,108.575406 C100.932213,92.5858056 97.3697244,88.5752389 97.3697244,85.9884278 C97.3697244,84.3109944 98.1484724,85.20545 98.1484724,75.5147833 C98.1484724,65.8241167 87.6087165,55.6857833 77.0680866,55.6857833 L66.824622,49.2744944 L66.824622,40.0314944 L66.7302283,40.0314944 C64.156252,42.9141167 59.5580551,47.2994944 55.3942441,47.2994944 C51.2304331,47.2994944 46.6322362,42.9141167 44.0582598,40.0314944 L43.9638661,40.0314944 L43.9638661,49.2744944 L33.7204016,55.6857833 C23.1797717,55.6857833 12.6400157,65.8241167 12.6400157,75.5147833 C12.6400157,85.20545 13.4196378,84.3109944 13.4196378,85.9884278 C13.4196378,88.5752389 9.85627559,92.5858056 9.85627559,108.575406 C9.85627559,110.402939 7.0594252,115.668728 5.74752756,120.764228 C4.79397638,124.469328 3.87713386,144.007783 2.82044882,157.102472 C2.42364567,162.015394 1.04007874,167.930739 0.25084252,169.816206 C-1.59158268,174.220017 7.29540945,180.965739 7.88974016,181.205372 C8.65712598,181.516983 8.91845669,179.969461 9.17891339,179.36555 C10.2478346,176.880561 6.26931496,173.926839 6.52540157,172.202006 C6.83392913,170.128694 7.1983937,166.487672 8.63177953,167.068761 C10.0660394,167.64985 10.5511181,170.951172 11.9845039,171.532261 C13.4178898,172.11335 14.0331969,171.727128 14.4719528,170.635172 C14.7289134,169.995272 13.099748,165.989094 11.6375197,162.227817 C10.6044331,159.569906 10.7809843,157.66425 10.7809843,157.66425 C10.7809843,157.66425 22.1842677,131.051783 22.6658504,125.684172 C24.2154803,123.21235 23.4952913,121.974683 23.6936929,120.182261 C24.4881732,112.987117 24.4977874,99.0708278 25.5553465,99.0708278 C26.5578425,99.0708278 26.6688425,103.432506 26.6688425,106.115872 C26.6688425,112.266461 31.2338268,112.489417 31.2338268,120.764228 C31.2338268,127.025417 29.5635827,124.454406 29.5635827,135.412583 C29.5635827,138.655094 24.144685,141.636906 24.144685,154.607828 C24.144685,157.962694 20.5821969,164.223883 20.5821969,177.791694 C20.5821969,203.733539 27.4484646,216.36915 27.4484646,227.328206 C27.4484646,239.068483 25.3324724,238.06255 25.3324724,251.704094 C25.3324724,265.346517 33.7946929,282.789717 33.7946929,292.294294 C33.7946929,313.204717 26.8917165,307.837106 26.8917165,312.645572 C26.8917165,313.913083 28.2272126,314.732928 28.2272126,314.732928 L40.0299213,316.000439 L46.1156929,316.000439 L47.9721024,313.763861 C47.9721024,313.763861 46.3385669,310.931272 46.3385669,309.439928 C46.3385669,307.949461 47.1548976,305.042261 47.1548976,303.252472 C47.1548976,301.463561 44.8544882,295.201494 44.8544882,289.536317 C44.8544882,283.871139 44.7059055,267.582217 44.7059055,267.582217 C44.7059055,267.582217 45.2626535,262.215483 45.2626535,256.624039 C45.2626535,251.033472 41.8111654,248.23775 41.8111654,245.778217 C41.8111654,243.317806 51.7198819,225.426939 51.7198819,205.523328 C51.7198819,194.900461 54.280748,177.008717 54.280748,164.596939 L55.3942441,164.596939 L56.5077402,164.596939 C56.5077402,177.008717 59.0686063,194.900461 59.0686063,205.523328 C59.0686063,225.426939 68.9781969,243.317806 68.9781969,245.778217 C68.9781969,248.23775 65.5258346,251.033472 65.5258346,256.624039 C65.5258346,262.215483 66.0825827,267.582217 66.0825827,267.582217 C66.0825827,267.582217 65.934874,283.871139 65.934874,289.536317 C65.934874,295.201494 63.6335906,301.463561 63.6335906,303.252472 C63.6335906,305.042261 64.4499213,307.949461 64.4499213,309.439928 C64.4499213,310.931272 62.8172598,313.763861 62.8172598,313.763861 L64.6727953,316.000439 L70.7594409,316.000439 L82.5612756,314.732928 C82.5612756,314.732928 83.8976457,313.913083 83.8976457,312.645572 C83.8976457,307.837106 76.9946693,313.204717 76.9946693,292.294294 C76.9946693,282.789717 85.4560157,265.346517 85.4560157,251.704094 C85.4560157,238.06255 83.3400236,239.068483 83.3400236,227.328206 C83.3400236,216.36915 90.2062913,203.733539 90.2062913,177.791694 C90.2062913,164.223883 86.6438031,157.962694 86.6438031,154.607828 C86.6438031,141.636906 81.2249055,138.655094 81.2249055,135.412583 C81.2249055,124.454406 79.5546614,127.025417 79.5546614,120.764228 C79.5546614,112.489417 84.1196457,112.266461 84.1196457,106.115872 C84.1196457,103.432506 84.2315197,99.0708278 85.2331417,99.0708278 C86.2907008,99.0708278 86.300315,112.987117 87.0947953,120.182261 C87.2931969,121.974683 86.5730079,123.21235 88.1226378,125.684172 C88.6050945,131.051783 100.008378,157.66425 100.008378,157.66425 C100.008378,157.66425 100.184055,159.569906 99.1518425,162.227817 C97.6896142,165.989094 96.0595748,169.995272 96.3165354,170.635172 C96.7552913,171.727128 97.3705984,172.11335 98.8039843,171.532261 C100.238244,170.951172 100.723323,167.64985 102.156709,167.068761 C103.590094,166.487672 103.955433,170.128694 104.263087,172.202006 C104.520047,173.926839 100.540654,176.880561 101.609575,179.36555 C101.870031,179.969461 102.132236,181.516983 102.899622,181.205372 C103.492205,180.965739 112.380071,174.220017 110.537646,169.816206 Z" id="Stroke-57"></path>
                    <path d="M13.6550976,125.684348 C14.4093732,121.08567 15.1636488,119.424914 13.6550976,116.589692 C12.1465465,113.755348 11.1405543,117.65707 7.08512126,116.589692 C6.58693228,117.945859 6.1105937,119.358203 5.74787717,120.764403 C4.9228063,123.96917 5.18675906,139.195103 4.5898063,151.723626 L4.59068031,151.723626 C4.59068031,151.723626 7.87173543,145.182426 8.12345197,138.616648 C8.37429449,132.05087 12.900822,130.283026 13.6550976,125.684348 Z" id="Stroke-59"></path>
                    <path d="M14.5260543,133.629729 C12.397826,140.131429 10.7808969,157.664162 10.7808969,157.664162 C10.7808969,157.664162 22.1841803,131.051696 22.665763,125.684084 C22.665763,125.684084 16.6542827,127.128029 14.5260543,133.629729 Z" id="Stroke-61"></path>
                    <path d="M98.1486472,75.5151344 C98.1486472,85.2058011 97.3690252,84.3113456 97.3690252,85.9887789 C92.4701669,84.9828456 89.2415528,80.7335233 83.3410724,70.7812789 C77.4397181,60.8299122 72.4289858,62.39499 72.4289858,60.0469344 C72.4289858,58.2571456 75.880474,57.4750456 77.0682614,55.6861344 C87.6080173,55.6861344 98.1486472,65.82359 98.1486472,75.5151344 Z" id="Stroke-63"></path>
                    <path d="M60.0704906,66.3087378 C60.7251283,65.0113822 70.0910811,60.0466711 72.4290732,60.0466711 C72.4290732,62.3947267 77.4398055,60.8296489 83.3411598,70.7810156 C85.5323173,74.4773378 87.3546402,77.3854156 89.0318764,79.6342822 C86.3722465,81.1071933 87.237522,82.2983378 84.7876559,84.4234378 C82.3386638,86.54766 74.2111913,89.7901711 69.2004591,89.7901711 C64.1897268,89.7901711 57.2246953,86.7714933 57.2246953,86.7714933 L57.2246953,79.1673044 C57.2246953,70.8933711 59.0557583,68.3214822 60.0704906,66.3087378 Z" id="Stroke-65"></path>
                    <path d="M87.0949701,76.8540967 L87.0949701,76.8540967 C87.3292063,77.2078411 87.5590724,77.5510522 87.7854425,77.8828522 C87.5590724,77.5510522 87.3292063,77.2087189 87.0949701,76.8540967 Z" id="Stroke-67"></path>
                    <path d="M89.0317016,79.6344578 L89.0317016,79.6344578 C88.8813709,79.4325689 88.7275441,79.2175133 88.5737173,79.0050911 C91.6135441,83.22808 94.1263394,85.3224578 97.3698118,85.9886911 C97.3698118,88.5755022 100.9323,92.5860689 100.9323,108.576547 C100.9323,111.819058 93.2252291,115.990258 89.6872134,108.576547 C87.392048,103.767202 86.5285205,101.763236 85.9927488,100.582624 C85.7191819,99.6328689 85.4613472,99.0719689 85.2332291,99.0719689 C84.4544811,97.7298467 84.7883551,84.4236133 84.7883551,84.4236133 C87.2373472,82.2985133 86.3720717,81.1073689 89.0317016,79.6344578 Z" id="Stroke-69"></path>
                    <path d="M88.4435764,78.8256733 C88.2320646,78.5298622 88.0179307,78.22264 87.8011748,77.9057622 C88.0188047,78.22264 88.2320646,78.5298622 88.4435764,78.8256733 Z" id="Stroke-71"></path>
                    <path d="M97.1338276,125.684348 C96.379552,121.08567 95.6252764,119.424914 97.1338276,116.589692 C98.6423787,113.755348 99.6483709,117.65707 103.703804,116.589692 C104.201993,117.945859 104.678331,119.358203 105.040174,120.764403 C105.866119,123.96917 105.602166,139.195103 106.199119,151.723626 L106.198245,151.723626 C106.198245,151.723626 102.91719,145.182426 102.665473,138.616648 C102.413757,132.05087 97.8881031,130.283026 97.1338276,125.684348 Z" id="Stroke-73"></path>
                    <path d="M96.2627835,133.629729 C98.3910118,140.131429 100.007941,157.664162 100.007941,157.664162 C100.007941,157.664162 88.6046575,131.051696 88.1230748,125.684084 C88.1230748,125.684084 94.1345551,127.128029 96.2627835,133.629729 Z" id="Stroke-75"></path>
                    <path d="M40.7047488,21.8241011 C40.7047488,20.5478122 38.884174,20.1879233 37.6990087,20.1879233 C36.5120953,20.1879233 36.0558591,22.0207233 36.9683315,26.3279789 C37.8808039,30.6361122 41.5158354,31.8887011 41.5158354,31.8887011 L40.7047488,21.8241011 Z" id="Stroke-77"></path>
                    <path d="M70.084089,21.8241011 C70.084089,20.5478122 71.9037898,20.1879233 73.0898291,20.1879233 C74.2767425,20.1879233 74.7329787,22.0207233 73.8205063,26.3279789 C72.9071598,30.6361122 69.2730024,31.8887011 69.2730024,31.8887011 L70.084089,21.8241011 Z" id="Stroke-79"></path>
                </g>
            </g>
            <g id="grad-mask" transform="translate(0.000000, 231.000000)" fill="url(#linearGradient-1)">
                <rect x="0" y="0" width="375" height="262"></rect>
            </g>
        </g>
        <g id="canvas" transform="translate(-1551.000000, -4464.000000)"></g>
    </g>
</svg>