<?xml version="1.0" encoding="UTF-8"?>
<svg width="225px" height="175px" viewBox="0 0 225 175" version="1.1" xmlns="http://www.w3.org/2000/svg" xmlns:xlink="http://www.w3.org/1999/xlink">
    <title>img</title>
    <defs>
        <polygon id="path-1" points="0.39290525 114 71.3193163 114 71.3193163 0.3038 0.39290525 0.3038 0.39290525 114"></polygon>
    </defs>
    <g id="UI" stroke="none" stroke-width="1" fill="none" fill-rule="evenodd">
        <g id="advice-start" transform="translate(-83.000000, -120.000000)">
            <g id="img" transform="translate(83.000000, 120.000000)">
                <path d="M23.6547,40.5204 C24.2177,40.5874 25.5357,40.1264 29.1987,39.3064 C32.5767,38.5384 36.3557,37.7654 41.5107,37.2714 C46.2847,36.7034 50.4707,35.8254 53.7947,35.0874 C57.1197,34.3484 59.3247,33.7964 59.3657,34.0214 C59.1077,32.6014 56.0227,38.1754 51.7927,44.9654 C49.6667,48.3004 47.5597,51.7834 44.7947,55.3204 C42.8347,58.7104 40.2407,62.1494 37.7267,65.2884 C33.4357,71.5354 30.1177,76.2384 30.1537,76.2324 C29.6297,76.3274 29.6477,74.0184 29.1377,70.6524 C28.7197,67.2694 27.3077,62.9144 26.9037,58.3764 C26.3907,53.7234 25.2977,49.0624 24.5867,45.6424 C23.9707,42.2054 23.1887,40.1084 23.6547,40.5204 M8.7707,30.2184 C8.8207,29.2634 8.8447,31.7044 9.7557,35.6334 C10.2627,39.6364 11.4217,45.1694 12.4837,50.6244 C13.4237,56.6084 13.9517,63.2884 15.9487,69.6684 C16.7937,76.2574 18.2907,82.6954 19.3797,88.5204 C20.7847,94.2884 21.0887,99.5034 22.0317,103.0964 C22.7617,107.0054 22.8267,108.5714 23.0927,108.9264 C23.3787,108.6904 24.0627,107.7684 25.8597,104.9284 C27.5497,102.3634 29.6647,98.8064 33.1537,94.3904 C34.9317,92.2864 36.3627,89.8044 38.0837,87.3384 C39.6137,84.7404 41.6297,82.2944 43.4647,79.4904 C45.1067,76.6724 47.5007,74.1644 49.2147,71.0994 C50.7977,67.9424 53.0497,65.1634 55.2857,62.4114 C59.6207,56.7484 63.5837,50.9724 67.1207,45.4144 C70.6667,39.8624 74.4717,35.0024 77.4177,30.4314 C80.1757,25.4824 82.8637,22.2314 84.7297,19.9934 C85.8707,17.2554 87.7477,16.6084 87.4777,15.8954 C87.9677,16.2174 85.7077,16.6344 81.6667,17.0604 C78.0307,17.7684 72.9307,18.7064 67.0717,19.6094 C61.2257,20.5844 54.6657,21.7704 48.1107,22.9824 C41.1937,24.2594 35.4737,25.3444 29.1757,26.5054 C23.7017,27.8654 18.5807,28.7424 14.6337,29.3424 C11.4587,29.8024 8.7967,30.1044 8.7707,30.2184" id="Fill-1" fill="#F2F2F4"></path>
                <path d="M82.2943,22.1815 C80.0413,25.0635 78.2903,28.2045 76.2763,31.2415 C71.8813,37.8675 67.3063,44.3925 62.8603,50.9875 C58.1283,58.0055 52.6573,64.4475 48.2763,71.6795 C46.1943,75.1185 43.6283,78.4695 41.2893,81.7445 C39.1613,84.7245 37.1863,87.7875 35.1443,90.8255 C32.7893,94.3295 30.0533,97.5525 27.7333,101.0895 C26.3613,103.1815 25.1303,105.9475 23.4133,107.8625 C23.2953,107.3315 23.2763,106.7345 23.2023,106.2585 C22.9723,104.7825 22.7043,103.3255 22.3963,101.8645 C21.7073,98.5935 21.3633,95.2615 20.7583,91.9755 C19.4003,84.6005 18.0033,77.2055 16.5983,69.8425 C15.8613,65.9855 14.7733,62.2375 14.1993,58.3275 C13.6663,54.6875 13.2143,51.0525 12.5023,47.4415 C11.8063,43.9075 11.0763,40.3745 10.5463,36.8115 C10.2463,34.7855 10.0223,32.5825 9.5673,30.5495 C10.5843,30.3115 11.8853,30.3315 12.7643,30.2105 C14.3663,29.9885 15.9653,29.7465 17.5613,29.4815 C21.4553,28.8335 25.2763,27.9425 29.1323,27.1165 C36.6383,25.5075 44.2573,24.2865 51.8083,22.9045 C59.5803,21.4825 67.3813,20.2495 75.1593,18.8725 C78.3813,18.3025 81.5853,17.7615 84.8193,17.2835 C85.1913,17.2285 85.6853,17.1935 86.1803,17.1115 C85.7113,17.6105 85.1613,18.1515 85.0363,18.3325 C84.1253,19.6505 83.2823,20.9175 82.2943,22.1815 M87.9933,15.4365 C87.9713,15.4115 87.9503,15.3855 87.9283,15.3605 C87.6243,15.0035 87.2183,15.3755 87.0173,15.7595 C86.9353,15.6535 86.7753,15.6605 86.5373,15.7825 C86.3823,15.8135 86.2273,15.8435 86.0713,15.8735 C85.4823,15.8535 84.8043,16.0775 84.2113,16.1575 C82.5913,16.3745 81.0283,16.5855 79.4243,16.8875 C76.1273,17.5085 72.8213,18.0875 69.5083,18.6205 C62.0593,19.8205 54.6363,21.1715 47.2173,22.5445 C40.2573,23.8325 33.2633,25.0185 26.3583,26.5705 C22.9683,27.3325 19.5493,27.9635 16.1173,28.5075 C14.0643,28.8345 11.2593,28.7265 9.2073,29.4555 C8.8963,29.2405 8.3353,29.6375 8.2303,29.9985 C8.1953,30.1195 8.1843,30.2395 8.1753,30.3645 C8.1613,30.5615 8.2183,30.6805 8.3073,30.7495 C8.8273,32.8905 9.0533,35.2435 9.3743,37.4035 C9.9033,40.9675 10.6333,44.5005 11.3303,48.0345 C12.1013,51.9485 12.5603,55.8935 13.1633,59.8355 C13.7573,63.7235 15.0063,67.5075 15.5543,71.3735 C16.6283,78.9555 18.5503,86.3745 19.8213,93.9165 C20.3543,97.0835 20.7963,100.2475 21.4453,103.3925 C21.8163,105.1865 21.6553,107.7175 22.5543,109.3545 C22.7133,109.6435 23.1423,109.5785 23.3493,109.3855 C24.7883,108.0425 25.7673,106.0265 26.8153,104.3985 C28.9453,101.0885 31.1063,97.8155 33.5433,94.7185 C38.5583,88.3455 42.6943,81.2505 47.4643,74.6855 C49.9723,71.2345 51.8803,67.4735 54.5593,64.1195 C57.3423,60.6365 59.9543,57.0225 62.4823,53.3495 C67.2243,46.4565 71.9033,39.5085 76.6013,32.5845 C79.1543,28.8225 81.3523,24.9155 84.2433,21.3805 C85.3123,20.0735 86.0543,18.6155 87.1843,17.3495 C87.5603,16.9285 87.9093,16.5945 88.0273,16.1185 C88.0513,16.0725 88.0873,16.0355 88.1063,15.9855 C88.1843,15.7825 88.1263,15.5925 87.9933,15.4365" id="Fill-3" fill="#23253A"></path>
                <path d="M23.462,41.1485 C25.297,41.2175 27.398,40.3155 29.155,39.9175 C32.588,39.1395 36.039,38.4975 39.537,38.0915 C43.23,37.6625 46.887,37.1335 50.532,36.3885 C52.175,36.0515 53.811,35.6845 55.448,35.3175 C55.911,35.2135 58.606,34.3515 58.915,34.5575 C59.37,34.8595 60.119,34.2415 59.952,33.7255 C59.321,31.7775 57.03,35.5395 56.73,35.9975 C53.571,40.8145 50.754,45.8475 47.544,50.6355 C43.831,56.1735 39.759,61.4495 35.977,66.9355 C33.913,69.9295 31.419,72.8695 29.657,76.0575 C29.933,75.9145 30.209,75.7715 30.485,75.6285 C29.889,75.4795 29.525,69.0215 29.37,68.2155 C28.746,64.9815 27.922,61.8115 27.537,58.5325 C27.134,55.0945 26.52,51.7085 25.805,48.3235 C25.473,46.7535 25.166,45.1795 24.829,43.6115 C24.75,43.2425 23.925,40.8545 24.054,40.6445 C23.778,40.7875 23.502,40.9305 23.226,41.0725 C23.259,41.0895 23.291,41.1065 23.323,41.1235 C23.891,41.4225 24.641,40.2605 23.986,39.9165 C23.954,39.8995 23.921,39.8825 23.889,39.8655 C23.581,39.7045 23.199,40.0705 23.062,40.2945 C22.794,40.7335 22.984,41.2355 23.074,41.7005 C23.391,43.3515 23.808,44.9905 24.147,46.6385 C25.003,50.7925 25.869,54.9085 26.364,59.1245 C26.82,63.0055 27.923,66.7485 28.503,70.6035 C28.641,71.5185 28.486,76.5005 29.822,76.8355 C30.161,76.9205 30.488,76.6985 30.649,76.4065 C31.995,73.9705 33.899,71.7255 35.481,69.4395 C38.459,65.1365 41.747,61.0705 44.586,56.6695 C47.348,52.3865 50.353,48.2795 53.035,43.9335 C54.265,41.9415 55.468,39.9325 56.707,37.9455 C57.137,37.2555 57.565,36.5635 58.022,35.8915 C58.275,35.5195 58.542,35.1735 58.803,34.8105 C59.222,34.2265 58.923,34.7625 58.779,34.3185 C59.125,34.0405 59.471,33.7635 59.817,33.4865 C58.603,32.6795 55.106,34.1955 53.838,34.4765 C50.088,35.3075 46.314,36.0645 42.5,36.5425 C38.704,37.0185 34.938,37.4665 31.191,38.2645 C28.92,38.7485 26.182,39.9795 23.847,39.8925 C23.209,39.8685 22.665,41.1185 23.462,41.1485" id="Fill-5" fill="#23253A"></path>
                <line x1="21.2475" y1="28.1697" x2="22.3935" y2="34.4667" id="Fill-7" fill="#F2F2F4"></line>
                <path d="M20.6956,28.5703 C21.0776,30.6693 21.4596,32.7683 21.8416,34.8673 C21.9316,35.3623 23.0336,34.5523 22.9456,34.0653 L21.7996,27.7693 C21.7096,27.2743 20.6066,28.0833 20.6956,28.5703" id="Fill-9" fill="#23253A"></path>
                <line x1="29.1182" y1="26.7374" x2="30.5502" y2="34.6084" id="Fill-11" fill="#F2F2F4"></line>
                <path d="M28.5113,26.9909 C28.9883,29.6149 29.4663,32.2379 29.9433,34.8619 C30.0873,35.6499 31.2733,34.9919 31.1573,34.3549 C30.6803,31.7309 30.2023,29.1079 29.7253,26.4839 C29.5813,25.6959 28.3953,26.3539 28.5113,26.9909" id="Fill-13" fill="#23253A"></path>
                <line x1="36.9889" y1="25.3051" x2="38.1349" y2="31.6021" id="Fill-15" fill="#F2F2F4"></line>
                <path d="M36.3825,25.5707 C36.7645,27.6697 37.1465,29.7687 37.5285,31.8677 C37.6735,32.6677 38.8615,31.9997 38.7415,31.3367 C38.3595,29.2377 37.9775,27.1387 37.5955,25.0397 C37.4495,24.2397 36.2615,24.9077 36.3825,25.5707" id="Fill-17" fill="#23253A"></path>
                <line x1="44.8597" y1="23.8728" x2="46.2917" y2="31.7438" id="Fill-19" fill="#F2F2F4"></line>
                <path d="M44.1789,24.0215 C44.6559,26.6455 45.1339,29.2685 45.6109,31.8925 C45.7719,32.7755 47.1309,32.4635 46.9729,31.5955 C46.4949,28.9715 46.0179,26.3475 45.5409,23.7245 C45.3799,22.8405 44.0209,23.1535 44.1789,24.0215" id="Fill-21" fill="#23253A"></path>
                <line x1="52.7304" y1="22.4406" x2="53.8764" y2="28.7376" id="Fill-23" fill="#F2F2F4"></line>
                <path d="M52.2302,22.8963 C52.6122,24.9953 52.9942,27.0943 53.3762,29.1933 C53.4082,29.3723 54.4392,28.6253 54.3762,28.2813 L53.2312,21.9853 C53.1982,21.8053 52.1672,22.5523 52.2302,22.8963" id="Fill-25" fill="#23253A"></path>
                <line x1="60.6012" y1="21.0083" x2="62.0332" y2="28.8793" id="Fill-27" fill="#F2F2F4"></line>
                <path d="M59.9641,21.2434 C60.4411,23.8674 60.9191,26.4904 61.3961,29.1144 C61.5501,29.9604 62.8091,29.4084 62.6701,28.6434 C62.1931,26.0204 61.7151,23.3964 61.2381,20.7734 C61.0841,19.9274 59.8251,20.4794 59.9641,21.2434" id="Fill-29" fill="#23253A"></path>
                <line x1="68.4719" y1="19.576" x2="69.6179" y2="25.873" id="Fill-31" fill="#F2F2F4"></line>
                <path d="M67.9374,19.9923 L69.0834,26.2893 C69.1324,26.5613 70.2174,25.8153 70.1524,25.4563 C69.7704,23.3573 69.3884,21.2583 69.0064,19.1593 C68.9564,18.8873 67.8724,19.6333 67.9374,19.9923" id="Fill-33" fill="#23253A"></path>
                <path d="M146.1727,152.0282 C145.5827,152.3942 144.7347,152.2652 141.6437,152.1092 C138.9487,151.9522 135.8127,151.7692 129.7027,152.0282 C124.4667,151.9102 118.6457,151.8042 112.8217,151.7812 C106.6447,151.7572 100.0577,151.8162 93.4697,152.0282 C86.8817,152.4662 80.2937,152.4582 74.1177,152.3452 C71.0487,152.2882 67.9917,152.2052 65.1217,152.1382 C62.4677,152.0712 59.5077,152.0202 57.2357,152.0282 C52.2527,152.4072 48.5757,152.4442 45.2957,152.3682 C42.7577,152.2912 40.9277,152.1022 40.7657,152.0282 C39.5917,150.9732 39.3407,150.5162 38.7597,150.0052 C38.5547,148.8742 39.0427,144.2492 38.7597,135.6992 C39.0987,131.2972 38.6857,126.0702 38.7597,120.2922 C38.8947,117.4042 38.9277,114.3772 38.9217,111.2482 C38.9437,108.1182 39.0457,104.8862 38.7597,101.5842 C38.4947,96.6322 38.7667,91.5252 38.9117,86.3802 C39.2997,81.2342 39.1957,76.0502 38.7597,70.9432 C38.6367,65.8362 39.1777,60.8072 38.8717,55.9712 C38.4747,51.1342 39.4587,46.4922 38.7597,42.1592 C38.6797,37.8262 38.9887,33.8022 38.5817,30.2042 C38.6777,26.6062 38.5207,23.4342 38.7597,20.8032 C38.6567,15.5412 38.8697,12.4462 38.7597,12.4462 C38.6387,11.3292 39.3387,10.4232 40.7657,10.4232 L48.5737,10.4232 L57.1107,10.4232 L68.0937,10.4232 L80.4157,10.4232 L93.4697,10.4232 L129.7027,10.4232 L146.1727,10.4232 C147.0417,10.4232 148.2327,11.3292 148.1787,12.4462 C148.0437,12.4462 148.1517,15.5412 148.1787,20.8032 C147.7947,26.0642 148.4457,33.4932 148.1787,42.1592 C148.1637,50.8252 148.1127,60.7292 148.1787,70.9432 C148.2337,81.1572 148.4077,91.6802 148.1787,101.5842 C148.4587,108.1872 149.4887,114.5152 148.1787,120.2922 C149.6057,126.0702 147.6307,131.2972 148.1787,135.6992 C148.2687,143.1162 147.7497,149.3902 148.1787,150.0052 C147.6657,150.5732 149.0047,151.8592 146.1727,152.0282" id="Fill-35" fill="#D2D2D8"></path>
                <g id="Group-39" transform="translate(112.000000, 60.181000)">
                    <mask id="mask-2" fill="white">
                        <use xlink:href="#path-1"></use>
                    </mask>
                    <g id="Clip-38"></g>
                    <path d="M18.8947,0.3038 C18.8317,0.5658 21.2147,1.0748 26.2077,1.0228 C28.3947,1.6718 30.9477,1.8948 33.6837,1.9088 C36.4127,2.8078 39.3297,2.6818 42.2427,3.0508 C45.1567,3.4888 48.0107,3.7758 50.8047,4.1828 C53.3567,4.5038 56.2317,4.8148 58.2747,5.1008 C62.5837,5.8718 65.9397,6.0528 65.5897,5.7978 C69.0637,6.3718 71.7697,8.8968 71.2567,12.5058 C71.2607,11.5708 70.6257,17.1898 69.4877,27.5348 C68.9067,31.6598 68.1437,37.7558 67.6187,43.4228 C66.8937,46.2608 67.0897,49.1438 66.6067,52.0268 C66.0437,54.9108 65.5257,57.7898 65.5977,60.5988 C64.7797,66.9628 63.9287,72.8218 63.5167,78.2908 C63.2177,83.7588 62.5067,89.0658 61.7077,93.6618 C61.0677,102.9958 59.7087,108.7868 59.9397,108.6908 C58.8937,111.5368 56.4517,114.5938 52.8707,113.9008 C52.4517,113.3208 49.9307,113.0048 45.5567,113.1958 C43.3537,113.6578 40.7977,112.7038 38.0617,112.4528 C35.3297,111.7068 32.4157,111.9698 29.5227,111.1538 C26.6157,110.6478 23.6267,110.8168 20.8577,110.0528 C18.0817,110.0588 15.5287,108.9028 13.4677,109.2968 C8.5617,108.6388 7.2697,108.5918 6.1757,108.4068 C2.6927,107.7488 0.6297,103.8638 0.5087,101.6988 C0.1647,101.7538 0.5397,95.0778 2.2777,86.6698 C2.2647,81.9508 3.4807,76.6808 4.1097,71.0958 C5.2287,65.5068 5.2877,59.6068 6.1677,53.6058 C6.1827,50.6598 7.1307,47.6638 7.2157,44.6988 C6.7957,41.7388 8.8597,38.7848 8.2457,35.9448 C9.2507,30.5558 9.6697,24.6318 10.0577,20.5428 C11.8077,11.5508 11.3127,6.3678 11.8257,5.5138 C11.7197,2.0688 15.0417,0.6488 18.8947,0.3038" id="Fill-37" fill="#D2D2D8" mask="url(#mask-2)"></path>
                </g>
                <path d="M146.3848,146.135 C146.3848,147.24 145.4898,148.135 144.3848,148.135 L42.3848,148.135 C41.2798,148.135 40.3848,147.24 40.3848,146.135 L40.3848,10.135 C40.3848,9.03 41.2798,8.135 42.3848,8.135 L144.3848,8.135 C145.4898,8.135 146.3848,9.03 146.3848,10.135 L146.3848,146.135 Z" id="Fill-40" fill="#F2F2F4"></path>
                <path d="M145.8331,146.4426 C145.5521,148.1836 142.1941,147.5726 141.1741,147.5726 L131.4531,147.5726 L100.6531,147.5726 L44.9151,147.5726 C43.2201,147.5726 41.3881,147.9326 40.9361,145.7096 C40.6941,144.5196 40.9361,143.0256 40.9361,141.8196 L40.9361,120.8176 L40.9361,54.5616 L40.9361,25.6706 L40.9361,15.8636 C40.9361,14.1416 40.6961,12.2216 40.9361,10.5126 C41.1151,9.2416 41.7801,8.8046 43.0061,8.6976 C45.2761,8.4986 47.6551,8.6976 49.9321,8.6976 L77.8091,8.6976 L138.3771,8.6976 C140.1091,8.6976 142.1221,8.4096 143.8371,8.6976 C145.9001,9.0426 145.8331,10.3526 145.8331,11.9046 L145.8331,29.0466 L145.8331,93.5426 L145.8331,143.7796 L145.8331,146.4426 C145.8331,147.0856 146.9361,146.2876 146.9361,145.8276 L146.9361,107.1226 L146.9361,38.4936 L146.9361,15.2156 C146.9361,13.5606 147.0111,11.8846 146.9361,10.2306 C146.8531,8.3926 145.7801,7.6256 144.0511,7.5726 C137.7241,7.3776 131.3601,7.5726 125.0311,7.5726 L91.1731,7.5726 L58.4231,7.5726 L47.5601,7.5726 C45.9941,7.5726 44.2971,7.3866 42.7391,7.5726 C38.6241,8.0646 39.8331,14.1746 39.8331,17.0436 L39.8331,41.4246 L39.8331,109.9956 L39.8331,136.6896 L39.8331,144.2176 C39.8331,145.4986 39.5371,147.3896 40.7171,148.2526 C41.8101,149.0516 43.9591,148.6976 45.2101,148.6976 L54.9691,148.6976 L86.6121,148.6976 L142.5911,148.6976 C144.6831,148.6976 146.5311,148.3396 146.9361,145.8276 C147.0321,145.2346 145.9051,145.9956 145.8331,146.4426" id="Fill-42" fill="#23253A"></path>
                <path d="M138.9776,134.1349 C109.0096,138.4729 79.5096,134.1349 49.1426,135.8699 C44.8036,95.9589 49.1426,56.0469 47.4066,16.1349 C77.7746,11.7969 107.2746,16.1349 137.6426,14.3999 C141.9806,48.2379 137.6426,82.0759 139.0496,115.6979 C139.0046,126.7599 138.9776,134.1349 138.9776,134.1349" id="Fill-44" fill="#FFFFFF"></path>
                <path d="M139.2068,133.5309 C112.6318,137.2969 85.8398,134.3709 59.1388,134.8989 C57.5128,134.9309 55.8878,134.9769 54.2618,135.0369 C52.9648,135.0849 50.5148,135.7669 49.6078,134.5789 C48.9788,133.7559 49.2308,130.7719 49.1298,129.6309 C48.9558,127.6529 48.8018,125.6739 48.6638,123.6939 C48.1848,116.7759 47.9228,109.8449 47.8008,102.9129 C47.5618,89.3889 47.8588,75.8629 48.1158,62.3419 C48.4098,46.8389 48.6328,31.3299 47.9778,15.8329 C47.7108,16.1349 47.4448,16.4369 47.1778,16.7389 C76.0048,12.7079 105.0438,16.4159 133.9878,15.1739 C134.5438,15.1499 135.9778,14.8169 136.4338,15.0579 C137.5248,15.6329 137.3078,16.5979 137.4288,17.6589 C137.6148,19.2989 137.7818,20.9419 137.9318,22.5859 C138.2898,26.5209 138.5458,30.4649 138.7228,34.4119 C139.0458,41.6299 139.0998,48.8569 139.0278,56.0809 C138.8808,70.8289 138.1968,85.5669 138.1848,100.3159 C138.1748,111.6919 138.4478,123.0589 138.4068,134.4369 C138.4038,135.1529 139.5468,134.3889 139.5488,133.8329 C139.5938,121.3119 139.2488,108.7959 139.3418,96.2779 C139.4708,78.8999 140.3978,61.5329 140.1588,44.1519 C140.0208,34.1059 139.4668,24.0699 138.2128,14.0979 C138.1908,13.9219 138.0558,13.7859 137.8718,13.7959 C107.7998,15.4509 77.5908,11.3419 47.6358,15.5309 C47.2018,15.5919 46.8168,15.9809 46.8358,16.4369 C48.5208,56.3379 44.3148,96.3629 48.5708,136.1719 C48.5898,136.3489 48.7308,136.4839 48.9128,136.4739 C78.8468,134.8269 108.9378,138.9629 138.7488,134.7389 C139.2938,134.6619 139.9158,133.4309 139.2068,133.5309" id="Fill-46" fill="#23253A"></path>
                <path d="M73.8848,43.635 L59.8848,43.635 C58.7798,43.635 57.8848,42.74 57.8848,41.635 L57.8848,27.635 C57.8848,26.53 58.7798,25.635 59.8848,25.635 L73.8848,25.635 C74.9898,25.635 75.8848,26.53 75.8848,27.635 L75.8848,41.635 C75.8848,42.74 74.9898,43.635 73.8848,43.635" id="Fill-48" fill="#A6B2ED"></path>
                <path d="M59.8847,26.1351 C59.0577,26.1351 58.3847,26.8081 58.3847,27.6351 L58.3847,41.6351 C58.3847,42.4621 59.0577,43.1351 59.8847,43.1351 L73.8847,43.1351 C74.7117,43.1351 75.3847,42.4621 75.3847,41.6351 L75.3847,27.6351 C75.3847,26.8081 74.7117,26.1351 73.8847,26.1351 L59.8847,26.1351 Z M73.8847,44.1351 L59.8847,44.1351 C58.5057,44.1351 57.3847,43.0131 57.3847,41.6351 L57.3847,27.6351 C57.3847,26.2571 58.5057,25.1351 59.8847,25.1351 L73.8847,25.1351 C75.2637,25.1351 76.3847,26.2571 76.3847,27.6351 L76.3847,41.6351 C76.3847,43.0131 75.2637,44.1351 73.8847,44.1351 L73.8847,44.1351 Z" id="Fill-50" fill="#23253A"></path>
                <path d="M74.2334,66.5066 C88.9024,66.8636 103.5764,66.6376 118.2274,65.8306 C118.6454,65.8076 119.0714,64.9236 118.5334,64.9536 C103.8824,65.7616 89.2084,65.9866 74.5394,65.6296 C74.1174,65.6196 73.6854,66.4936 74.2334,66.5066" id="Fill-52" fill="#23253A"></path>
                <path d="M74.5337,78.7936 C90.3177,79.2646 106.1107,78.9676 121.8657,77.9016 C122.2027,77.8786 122.7137,77.0446 122.2397,77.0766 C106.4847,78.1426 90.6917,78.4396 74.9077,77.9686 C74.5697,77.9586 74.0467,78.7786 74.5337,78.7936" id="Fill-54" fill="#23253A"></path>
                <path d="M74.0943,91.6317 C92.2483,92.6937 110.3903,91.2577 128.4783,89.7787 C128.7733,89.7537 129.2273,88.9597 129.0233,88.9767 C110.9353,90.4557 92.7943,91.8927 74.6393,90.8297 C74.3513,90.8127 73.8533,91.6177 74.0943,91.6317" id="Fill-56" fill="#23253A"></path>
                <path d="M74.7993,103.7339 C92.6883,103.8379 110.5773,103.9419 128.4663,104.0459 C128.7623,104.0479 129.3943,103.3099 128.9713,103.3079 C111.0823,103.2039 93.1933,103.0999 75.3053,102.9959 C75.0083,102.9939 74.3763,103.7319 74.7993,103.7339" id="Fill-58" fill="#23253A"></path>
                <path d="M75.3822,117.4733 C89.8322,117.6293 104.2792,117.2043 118.6952,116.1973 C118.9642,116.1783 119.4072,115.5003 119.3672,115.5033 C104.9512,116.5093 90.5042,116.9353 76.0542,116.7793 C75.7922,116.7763 75.3202,117.4723 75.3822,117.4733" id="Fill-60" fill="#23253A"></path>
                <path d="M87.027,29.3042 C97.372,29.4252 107.708,29.0332 118.014,28.1272 C118.591,28.0762 118.699,27.1212 118.062,27.1772 C107.756,28.0832 97.42,28.4762 87.075,28.3542 C86.492,28.3472 86.389,29.2972 87.027,29.3042" id="Fill-62" fill="#23253A"></path>
                <path d="M86.8939,38.85 C92.2079,39.075 97.5259,39.047 102.8349,38.714 C108.6289,38.351 114.4049,37.455 120.2159,37.982 C120.6739,38.023 121.1049,37.149 120.5359,37.098 C115.3019,36.624 110.1279,37.315 104.9139,37.707 C99.0219,38.15 93.1149,38.216 87.2129,37.966 C86.7559,37.947 86.3269,38.826 86.8939,38.85" id="Fill-64" fill="#23253A"></path>
                <path d="M66.8192,66.2953 C66.3852,69.1353 64.3852,71.1353 62.3852,71.1353 C60.3852,71.1353 57.3852,68.1353 57.3852,66.1353 C57.3852,62.1353 63.3852,60.1353 66.4702,64.5453 C66.6962,65.0833 66.8202,65.6743 66.8192,66.2953" id="Fill-66" fill="#F7CCAD"></path>
                <path d="M61.9677,62.5467 C61.4717,62.5467 60.9977,62.6257 60.5717,62.7587 C58.9397,63.2737 57.8847,64.5987 57.8847,66.1347 C57.8847,67.8587 60.6597,70.6347 62.3847,70.6347 C64.2057,70.6347 65.9287,68.7147 66.3197,66.2567 C66.3157,65.7477 66.2177,65.2537 66.0297,64.7877 C64.8547,63.1357 63.3257,62.5467 61.9677,62.5467 M62.3847,71.6347 C60.1227,71.6347 56.8847,68.3967 56.8847,66.1347 C56.8847,64.1537 58.2147,62.4537 60.2727,61.8057 C62.7107,61.0367 65.3017,62.0027 66.8797,64.2587 L66.9317,64.3517 C67.1907,64.9667 67.3207,65.6217 67.3197,66.2967 L67.3137,66.3707 C66.8547,69.3717 64.7357,71.6347 62.3847,71.6347" id="Fill-68" fill="#23253A"></path>
                <path d="M66.8192,91.2953 C66.3852,94.1353 64.3852,96.1353 62.3852,96.1353 C60.3852,96.1353 57.3852,93.1353 57.3852,91.1353 C57.3852,87.1353 63.3852,85.1353 66.4702,89.5453 C66.6962,90.0833 66.8202,90.6743 66.8192,91.2953" id="Fill-70" fill="#EDA6AD"></path>
                <path d="M61.9677,87.5467 C61.4717,87.5467 60.9977,87.6257 60.5717,87.7587 C58.9397,88.2737 57.8847,89.5987 57.8847,91.1347 C57.8847,92.8587 60.6597,95.6347 62.3847,95.6347 C64.2057,95.6347 65.9287,93.7147 66.3197,91.2567 C66.3157,90.7477 66.2177,90.2537 66.0297,89.7877 C64.8547,88.1357 63.3257,87.5467 61.9677,87.5467 M62.3847,96.6347 C60.1227,96.6347 56.8847,93.3967 56.8847,91.1347 C56.8847,89.1537 58.2147,87.4537 60.2727,86.8057 C62.7107,86.0377 65.3017,87.0027 66.8797,89.2587 L66.9317,89.3517 C67.1907,89.9667 67.3207,90.6217 67.3197,91.2967 L67.3137,91.3707 C66.8547,94.3717 64.7357,96.6347 62.3847,96.6347" id="Fill-72" fill="#23253A"></path>
                <path d="M90.468,5.4683 C90.468,3.4683 91.662,2.8013 93.135,2.8013 C94.608,2.8013 95.801,3.4683 95.801,5.4683 L90.468,5.4683 Z M115.385,5.4683 L103.135,5.4683 L98.135,5.4683 C98.135,2.4683 95.896,0.4683 93.135,0.4683 C90.373,0.4683 88.135,2.4683 88.135,5.4683 L83.135,5.4683 L71.385,5.4683 C70.28,5.4683 69.385,6.3633 69.385,7.4683 L69.385,16.4683 L81.135,16.4683 L105.135,16.4683 L117.385,16.4683 L117.385,7.4683 C117.385,6.3633 116.489,5.4683 115.385,5.4683 L115.385,5.4683 Z" id="Fill-74" fill="#C9C9D1"></path>
                <path d="M117.1015,16.0431 C117.2435,16.0481 117.3565,16.1631 117.1015,16.0431 M115.1995,15.9951 L109.0845,15.9951 L94.1495,15.9951 L78.9345,15.9951 C75.9315,15.9951 72.8135,16.2381 69.8135,16.0101 C69.8145,15.9181 69.8235,15.8011 69.8565,15.6181 C69.9945,14.8561 69.8565,13.9381 69.8565,13.1651 C69.8565,11.5411 69.5365,9.5561 69.8565,7.9631 C70.3265,5.6261 71.8315,5.9411 73.5855,5.9411 L79.6285,5.9411 L88.1195,5.9411 C88.3805,5.9411 88.5925,5.6711 88.6065,5.4291 C88.9495,-0.4949 97.3245,-0.3429 97.6635,5.5071 C97.6785,5.7741 97.8475,5.9411 98.1195,5.9411 L115.2715,5.9411 C117.5825,6.3381 116.9135,9.7761 116.9135,11.2601 C116.9135,12.8041 116.7965,14.4091 116.8925,15.9581 C116.4645,15.8351 115.5775,15.9951 115.1995,15.9951 M69.8135,16.1251 C69.8775,16.2081 69.8305,16.2701 69.8135,16.1251 M87.8945,4.9141 C87.8825,4.9281 87.8975,4.9251 87.9145,4.9181 C87.9015,4.9251 87.8845,4.9331 87.8605,4.9461 C87.8725,4.9361 87.8815,4.9301 87.8945,4.9141 M115.5195,5.0011 C115.4945,4.9961 115.4725,5.0041 115.4475,5.0041 C115.4305,5.0031 115.4185,4.9951 115.4005,4.9951 L103.3165,4.9951 L101.3905,4.9951 L99.4465,4.9951 C99.3575,4.9951 98.8095,5.0511 98.6705,4.9951 C98.6435,4.9841 98.6325,4.9831 98.6085,4.9741 C98.6165,4.9271 98.6095,4.8611 98.5675,4.7551 C98.1285,3.6381 98.0875,2.6371 97.2175,1.6901 C96.2115,0.5941 94.7435,0.0181 93.2695,0.0011 C91.0165,-0.0259 88.0875,1.5651 87.8345,4.0761 C87.9265,3.1671 87.5835,4.9671 87.8015,4.9781 C87.7895,4.9841 87.7825,4.9881 87.7685,4.9951 C87.4725,5.1551 86.4675,4.9951 86.1455,4.9951 L83.1375,4.9951 C79.3305,4.9951 75.1945,4.4961 71.4275,4.9951 C69.1085,5.3021 68.9135,7.0701 68.9135,9.0081 L68.9135,16.5071 C68.9135,16.7751 69.1095,16.9411 69.3695,16.9411 L105.7295,16.9411 L117.3695,16.9411 C117.6205,16.9411 117.8565,16.6711 117.8565,16.4291 L117.8565,9.5471 C117.8565,7.5361 118.0495,5.4081 115.5195,5.0011" id="Fill-76" fill="#23253A"></path>
                <path d="M90.9399,5.4293 C90.9869,4.0413 91.7029,3.2583 93.1189,3.2743 C94.5369,3.2903 95.2819,4.1063 95.3299,5.5073 C95.4919,5.3363 95.6549,5.1653 95.8169,4.9953 L90.4839,4.9953 C89.9059,4.9953 89.8159,5.9413 90.4519,5.9413 L95.7859,5.9413 C96.0309,5.9413 96.2819,5.6703 96.2729,5.4293 C96.2089,3.5223 95.1029,2.3163 93.1509,2.3283 C91.2019,2.3403 90.0609,3.6043 89.9959,5.5073 C89.9749,6.1453 90.9199,6.0043 90.9399,5.4293" id="Fill-78" fill="#23253A"></path>
                <path d="M179.6187,43.9354 C178.8457,43.3534 178.8637,41.5444 179.5397,41.1084 C180.5607,40.6564 181.0257,40.0124 182.3667,41.0284 C183.3277,41.6254 183.5357,43.2804 182.4457,43.8564 C181.4927,44.8004 180.7087,44.4224 179.6187,43.9354 M180.7187,32.7284 C180.6737,32.7754 179.6857,33.8214 178.2957,35.2904 C177.0867,36.5694 174.5387,39.1794 171.6527,42.3184 C168.5717,45.1654 165.9407,48.5864 161.7257,52.8174 C159.5787,54.8094 157.9097,57.1204 155.7737,59.1134 C153.8207,61.2774 151.7657,63.4704 149.4547,65.7974 C146.9347,67.9484 144.8007,70.7114 142.4677,73.1874 C140.5417,76.0484 138.0917,78.3154 135.7757,80.2654 C133.4707,82.2884 131.0967,84.6264 129.0027,87.4304 C126.5707,89.9134 124.4637,92.9064 121.6287,95.2294 C119.6067,97.3394 117.4367,99.9104 114.9517,102.2924 C112.6077,104.8064 110.3277,107.4904 107.9497,109.6974 C105.8977,111.5444 104.0877,113.6894 102.1107,115.8744 C99.8907,117.8294 97.9627,120.2574 95.6787,122.6774 C92.3737,126.2394 88.5977,130.5674 85.7517,133.1774 C82.4107,136.1784 80.5717,138.2274 79.1087,140.2044 C77.5837,142.1034 77.5007,142.3514 76.6857,142.7674 C76.6357,142.5874 78.8037,145.5744 81.6987,147.5074 C84.3907,149.8564 86.8227,151.9564 86.7127,152.2474 C86.6917,152.4144 87.0357,151.4334 88.7387,150.1054 C90.3117,148.5564 91.6877,146.6884 94.3417,144.1784 C96.5747,141.7664 100.0037,138.1134 102.8107,135.2204 C105.6267,132.1534 109.3847,128.0644 113.4357,123.9814 C115.4387,121.6334 117.3187,119.2844 119.6227,117.4374 C121.5847,115.2664 123.4747,113.1294 125.5057,111.2144 C127.9227,108.5984 130.2447,106.3544 132.2667,104.0644 C134.2157,101.7064 136.2697,99.6864 138.3097,97.6714 C140.6467,95.4834 142.6467,92.9764 144.8537,90.7504 C147.0107,88.4784 149.3637,86.4784 151.1367,84.1044 C153.1667,81.7544 155.2097,79.5244 157.3687,77.5124 C159.7697,75.7294 161.5457,73.4624 163.2767,71.2644 C166.9687,67.8024 170.5787,63.1174 174.0167,59.9034 C174.0497,59.7894 174.6027,59.6824 174.4907,59.4024 C176.1777,57.7974 177.7337,56.0184 178.9717,54.9034 C180.3747,53.7464 182.0337,52.3924 182.8057,50.6074 C183.0937,50.1124 183.7657,50.2744 183.5007,49.8724 C185.5437,48.0554 187.6767,46.0134 188.8257,44.2394 C189.9567,43.0434 191.2007,41.7274 190.7467,42.2084 C190.9687,41.9734 188.2287,39.8494 185.7327,37.4684 C183.1017,35.2294 180.5457,32.9114 180.7187,32.7284" id="Fill-80" fill="#DCDCE2"></path>
                <path d="M178.6187,41.9354 C177.8457,41.3534 177.8637,39.5444 178.5397,39.1084 C179.5607,38.6564 180.0257,38.0124 181.3667,39.0284 C182.3277,39.6254 182.5357,41.2804 181.4457,41.8564 C180.4927,42.8004 179.7087,42.4224 178.6187,41.9354 M179.7187,30.7284 C179.6737,30.7754 178.6857,31.8214 177.2957,33.2904 C176.0867,34.5694 173.5387,37.1794 170.6527,40.3184 C167.5717,43.1654 164.9407,46.5864 160.7257,50.8174 C158.5787,52.8094 156.9097,55.1204 154.7737,57.1134 C152.8207,59.2774 150.7657,61.4704 148.4547,63.7974 C145.9347,65.9484 143.8007,68.7114 141.4677,71.1874 C139.5417,74.0484 137.0917,76.3154 134.7757,78.2654 C132.4707,80.2884 130.0967,82.6264 128.0027,85.4304 C125.5707,87.9134 123.4637,90.9064 120.6287,93.2294 C118.6067,95.3394 116.4367,97.9104 113.9517,100.2924 C111.6077,102.8064 109.3277,105.4904 106.9497,107.6974 C104.8977,109.5444 103.0877,111.6894 101.1107,113.8744 C98.8907,115.8294 96.9627,118.2574 94.6787,120.6774 C91.3737,124.2394 87.5977,128.5674 84.7517,131.1774 C81.4107,134.1784 79.5717,136.2274 78.1087,138.2044 C76.5837,140.1034 76.5007,140.3514 75.6857,140.7674 C75.6357,140.5874 77.8037,143.5744 80.6987,145.5074 C83.3907,147.8564 85.8227,149.9564 85.7127,150.2474 C85.6917,150.4144 86.0357,149.4334 87.7387,148.1054 C89.3117,146.5564 90.6877,144.6884 93.3417,142.1784 C95.5747,139.7664 99.0037,136.1134 101.8107,133.2204 C104.6267,130.1534 108.3847,126.0644 112.4357,121.9814 C114.4387,119.6334 116.3187,117.2844 118.6227,115.4374 C120.5847,113.2664 122.4747,111.1294 124.5057,109.2144 C126.9227,106.5984 129.2447,104.3544 131.2667,102.0644 C133.2157,99.7064 135.2697,97.6864 137.3097,95.6714 C139.6467,93.4834 141.6467,90.9764 143.8537,88.7504 C146.0107,86.4784 148.3637,84.4784 150.1367,82.1044 C152.1667,79.7544 154.2097,77.5244 156.3687,75.5124 C158.7697,73.7294 160.5457,71.4624 162.2767,69.2644 C165.9687,65.8024 169.5787,61.1174 173.0167,57.9034 C173.0497,57.7894 173.6027,57.6824 173.4907,57.4024 C175.1777,55.7974 176.7337,54.0184 177.9717,52.9034 C179.3747,51.7464 181.0337,50.3924 181.8057,48.6074 C182.0937,48.1124 182.7657,48.2744 182.5007,47.8724 C184.5437,46.0554 186.6767,44.0134 187.8257,42.2394 C188.9567,41.0434 190.2007,39.7274 189.7467,40.2084 C189.9687,39.9734 187.2287,37.8494 184.7327,35.4684 C182.1017,33.2294 179.5457,30.9114 179.7187,30.7284" id="Fill-82" fill="#F2F2F4"></path>
                <path d="M184.1303,45.6116 C183.3883,46.3306 182.6253,47.0876 181.9073,47.7936 C181.7813,47.9176 181.7953,47.9166 181.8503,47.8766 C181.6563,48.0286 181.4563,48.1756 181.2873,48.3686 C180.3513,49.4446 179.7723,50.6196 178.6503,51.6086 C177.7513,52.4016 176.8923,53.1486 176.0503,54.0066 C174.6613,55.4246 173.3853,56.8016 172.0383,58.0656 C167.5363,62.2906 163.5293,67.2176 159.4533,71.8346 C157.4083,74.1516 154.9223,76.0336 152.8003,78.2946 C150.6263,80.6126 148.6893,83.1256 146.4403,85.3736 C137.4913,94.3196 128.6953,103.5516 120.1653,112.8976 C111.9583,121.8886 103.3963,130.6036 95.0673,139.5046 C92.9923,141.7216 90.8603,143.8746 88.8263,146.1296 C87.9293,147.1236 86.8813,147.9626 86.0003,148.9626 C85.9773,148.9886 85.9323,149.0366 85.8813,149.0926 C85.4003,148.5386 84.4803,147.9066 84.1923,147.6476 C82.9003,146.4826 81.5873,145.3626 80.2163,144.2946 C79.1163,143.4376 78.1233,142.4576 77.1923,141.4206 C77.0323,141.2426 76.8623,140.9916 76.6773,140.7556 C77.3893,140.1416 77.9373,139.3306 78.5123,138.5916 C79.7943,136.9426 81.1433,135.3906 82.6333,133.9236 C86.1083,130.5036 89.5333,127.1316 92.8243,123.5256 C100.2973,115.3356 107.9173,107.2756 115.6803,99.3646 C122.8713,92.0386 129.3473,84.0376 136.9313,77.1266 C140.7653,73.6316 143.6413,69.2516 147.3293,65.6026 C151.2343,61.7396 155.0453,57.7916 158.7213,53.7066 C165.4493,46.2336 172.5613,39.0836 179.4833,31.7836 C180.2753,32.9336 182.0473,34.0676 182.8373,34.7576 C183.9963,35.7706 185.1303,36.8076 186.2803,37.8306 C186.7303,38.2316 188.5683,39.4266 189.0183,40.1856 C187.3713,41.9866 185.8833,43.9126 184.1303,45.6116 M190.2723,39.6166 C189.7683,38.3706 187.3843,36.9506 186.5833,36.2266 C185.4413,35.1936 184.2873,34.1796 183.1353,33.1586 C182.5533,32.6426 180.4873,31.2936 180.3413,30.4866 C180.2823,30.1636 180.0553,30.0686 179.8113,30.1076 C179.6513,30.1056 179.4773,30.1696 179.3153,30.3406 C173.2143,36.7946 167.2403,43.4096 161.0103,49.7336 C153.5423,57.3136 146.1563,65.0716 139.2593,73.1566 C136.0183,76.9566 131.8493,79.7986 128.6673,83.6796 C125.4873,87.5586 121.9093,90.9786 118.5343,94.6586 C111.0803,102.7836 103.1613,110.4596 95.7833,118.6456 C92.0753,122.7596 88.4083,127.0166 84.3483,130.7906 C82.5203,132.4896 80.6923,134.1756 79.0773,136.0846 C77.9493,137.4186 76.9823,139.4026 75.4243,140.2596 C75.0573,140.4616 74.8673,141.1446 75.3253,141.3576 C75.6603,141.5126 76.1283,142.3316 76.4033,142.6326 C77.2813,143.5936 78.2193,144.5046 79.2483,145.3056 C80.4083,146.2096 81.5233,147.1456 82.6253,148.1246 C83.1293,148.5716 84.9073,149.7696 85.0903,150.4886 C85.1473,150.7096 85.2763,150.8306 85.4983,150.8796 C85.5043,150.8806 85.5093,150.8816 85.5143,150.8826 C85.7973,150.9446 86.1053,150.7126 86.2473,150.4896 C87.0563,149.2196 88.3983,148.2646 89.4153,147.1466 C90.9763,145.4326 92.5783,143.7756 94.1773,142.0986 C97.1113,139.0226 100.0633,135.9466 102.9403,132.8176 C109.7273,125.4316 116.5273,118.0316 123.5743,110.9086 C130.4123,103.9966 136.9583,96.7946 143.6593,89.7516 C146.9183,86.3266 150.0833,82.8626 153.2983,79.4016 C154.9313,77.6436 156.7133,76.1096 158.4613,74.4776 C160.2413,72.8156 161.6133,70.8046 163.2943,69.0636 C166.8303,65.4006 170.2573,61.6256 173.8283,58.0186 C175.1963,56.6356 176.4613,55.0836 177.8963,53.7386 C178.7563,52.9316 179.7113,52.2296 180.5283,51.3776 C181.0663,50.8186 181.9893,49.0106 182.6063,48.7206 C182.8513,48.6056 183.1323,48.3486 183.1303,48.0476 C183.1273,47.6436 185.2473,46.0906 185.5873,45.7466 C186.1933,45.1336 186.7723,44.5006 187.3293,43.8436 C188.2893,42.7106 189.2213,41.5766 190.2443,40.4956 C190.5543,40.1676 190.4883,39.8066 190.2723,39.6166" id="Fill-84" fill="#23253A"></path>
                <path d="M179.1031,41.4301 C178.7021,41.0901 178.4321,40.0881 178.7961,39.6271 C178.8811,39.5191 179.3821,39.3111 179.6061,39.2171 C179.9951,39.0541 180.3101,39.1651 180.6621,39.3811 C181.1781,39.6991 181.9281,40.5331 181.4171,41.1801 C181.2011,41.4531 180.7081,41.7971 180.3541,41.8051 C179.8821,41.8161 179.3941,41.5311 178.9781,41.3451 C178.3281,41.0551 177.5461,42.2071 178.2591,42.5251 C178.9711,42.8441 179.7241,43.1951 180.5211,43.0241 C181.2131,42.8761 181.9611,42.3271 182.3771,41.7601 C183.2631,40.5541 182.6961,39.0661 181.5491,38.3101 C180.9571,37.9201 180.3111,37.7381 179.6181,37.9581 C179.0731,38.1301 178.2971,38.4841 177.9281,38.9231 C177.1581,39.8401 177.1961,41.6471 178.1341,42.4411 C178.6991,42.9191 179.6651,41.9051 179.1031,41.4301" id="Fill-86" fill="#23253A"></path>
                <line x1="82.5491" y1="133.5009" x2="87.2001" y2="137.8979" id="Fill-88" fill="#F2F2F4"></line>
                <path d="M82.035,133.9759 C83.585,135.4419 85.135,136.9069 86.686,138.3729 C87.322,138.9739 88.354,138.0279 87.714,137.4229 C86.164,135.9569 84.613,134.4909 83.063,133.0259 C82.427,132.4239 81.395,133.3709 82.035,133.9759" id="Fill-90" fill="#23253A"></path>
                <line x1="88.3323" y1="127.9591" x2="93.8583" y2="133.1841" id="Fill-92" fill="#F2F2F4"></line>
                <path d="M87.7993,128.4129 C89.6413,130.1549 91.4833,131.8959 93.3253,133.6379 C93.9553,134.2329 95.0263,133.3299 94.3913,132.7299 C92.5493,130.9879 90.7073,129.2469 88.8653,127.5049 C88.2353,126.9099 87.1643,127.8129 87.7993,128.4129" id="Fill-94" fill="#23253A"></path>
                <line x1="93.8283" y1="122.1458" x2="98.1923" y2="126.2708" id="Fill-96" fill="#F2F2F4"></line>
                <path d="M93.3043,122.61 C94.7583,123.985 96.2133,125.36 97.6683,126.735 C98.0443,127.091 99.0703,126.142 98.7153,125.807 C97.2613,124.432 95.8063,123.057 94.3523,121.682 C93.9763,121.326 92.9503,122.275 93.3043,122.61" id="Fill-98" fill="#23253A"></path>
                <line x1="99.0371" y1="116.0611" x2="104.8501" y2="121.5571" id="Fill-100" fill="#F2F2F4"></line>
                <path d="M98.5236,116.5367 C100.4616,118.3687 102.3996,120.2007 104.3366,122.0327 C104.6686,122.3467 105.6766,121.3767 105.3636,121.0817 C103.4266,119.2497 101.4886,117.4177 99.5506,115.5857 C99.2186,115.2717 98.2116,116.2417 98.5236,116.5367" id="Fill-102" fill="#23253A"></path>
                <line x1="104.5331" y1="110.2478" x2="109.1841" y2="114.6448" id="Fill-104" fill="#F2F2F4"></line>
                <path d="M104.0431,110.7477 C105.5931,112.2137 107.1431,113.6787 108.6941,115.1447 C108.9491,115.3857 109.9251,114.3827 109.6741,114.1447 C108.1241,112.6797 106.5731,111.2137 105.0231,109.7477 C104.7681,109.5067 103.7921,110.5097 104.0431,110.7477" id="Fill-106" fill="#23253A"></path>
                <path d="M110.3163,104.706 C110.4803,104.532 115.9693,109.797 115.8423,109.931" id="Fill-108" fill="#F2F2F4"></path>
                <path d="M110.2259,105.3134 C109.8949,105.4014 109.9959,105.1994 110.2379,105.4704 C110.4249,105.6814 110.6889,105.8514 110.8999,106.0394 C111.5109,106.5804 112.1049,107.1384 112.6959,107.7004 C113.2859,108.2624 113.8719,108.8294 114.4439,109.4104 C114.6349,109.6034 114.8239,109.7974 115.0079,109.9964 C115.2719,110.2804 115.2029,110.4074 115.2359,110.0264 C115.1609,110.8924 116.3919,110.4984 116.4489,109.8344 C116.4899,109.3614 115.9539,108.9544 115.6599,108.6504 C115.0179,107.9864 114.3509,107.3434 113.6809,106.7054 C113.0119,106.0684 112.3379,105.4324 111.6389,104.8274 C111.3659,104.5914 110.8329,103.9854 110.4069,104.0984 C109.7829,104.2644 109.3989,105.5324 110.2259,105.3134" id="Fill-110" fill="#23253A"></path>
                <path d="M115.8122,98.8927 C116.1212,98.5657 120.1902,103.0037 120.1762,103.0177" id="Fill-112" fill="#F2F2F4"></path>
                <path d="M116.1173,99.4026 C115.6723,99.6786 115.4923,99.3906 115.8943,99.6966 C116.0993,99.8536 116.2893,100.0316 116.4793,100.2056 C116.9463,100.6366 117.3953,101.0876 117.8393,101.5426 C118.2603,101.9736 118.6753,102.4096 119.0853,102.8506 C119.2313,103.0076 119.3753,103.1656 119.5203,103.3236 C119.5783,103.3866 119.7343,103.6096 119.6163,103.4266 C120.0523,104.1046 121.1393,103.2386 120.7353,102.6096 C120.1293,101.6666 119.1153,100.8386 118.3293,100.0516 C117.7413,99.4626 116.4823,97.7766 115.5073,98.3826 C114.7923,98.8276 115.3483,99.8806 116.1173,99.4026" id="Fill-114" fill="#23253A"></path>
                <path d="M122.6822,91.6262 C122.8352,91.4652 127.0432,95.7542 127.0462,95.7512" id="Fill-116" fill="#F2F2F4"></path>
                <path d="M122.8448,92.2703 C122.4608,92.3993 122.2498,92.1073 122.5998,92.4033 C122.7858,92.5603 122.9658,92.7273 123.1448,92.8933 C123.6458,93.3593 124.1348,93.8373 124.6218,94.3173 C125.2728,94.9593 125.8998,95.6273 126.5618,96.2573 C127.1748,96.8403 128.1428,95.8293 127.5298,95.2453 C126.7218,94.4763 125.9558,93.6603 125.1568,92.8813 C124.6518,92.3883 123.3798,90.6943 122.5198,90.9823 C121.7078,91.2533 121.9848,92.5583 122.8448,92.2703" id="Fill-118" fill="#23253A"></path>
                <path d="M127.8911,85.5414 C128.0861,85.3354 133.6801,91.0634 133.7041,91.0374" id="Fill-120" fill="#F2F2F4"></path>
                <path d="M127.6155,86.1009 C127.4915,86.1399 127.7705,86.2769 127.9175,86.3979 C128.1615,86.5989 128.3915,86.8179 128.6215,87.0329 C129.2835,87.6479 129.9285,88.2819 130.5715,88.9159 C131.4055,89.7379 132.2585,90.9379 133.2495,91.5699 C133.6355,91.8159 134.4915,90.7169 134.1595,90.5049 C133.7845,90.2659 133.4535,89.8139 133.1425,89.5029 C132.4805,88.8429 131.8185,88.1829 131.1515,87.5279 C130.5125,86.9009 129.8735,86.2709 129.2085,85.6709 C129.0055,85.4869 128.5025,84.8759 128.1665,84.9819 C127.7945,85.0989 127.1145,86.2589 127.6155,86.1009" id="Fill-122" fill="#23253A"></path>
                <path d="M133.6439,79.971 C133.6229,79.993 138.2739,84.389 138.2949,84.368" id="Fill-124" fill="#F2F2F4"></path>
                <path d="M133.1135,80.4278 C133.2805,80.6888 133.6075,80.9158 133.8285,81.1278 C134.3805,81.6558 134.9345,82.1818 135.4905,82.7058 C136.2105,83.3868 136.9705,84.3728 137.8365,84.8708 C138.1885,85.0728 139.1835,84.1128 138.7525,83.8648 C138.8585,83.9258 138.5975,83.7108 138.5545,83.6698 C138.3655,83.4918 138.1725,83.3168 137.9835,83.1398 C137.4595,82.6498 136.9375,82.1578 136.4165,81.6658 C135.9065,81.1828 135.3965,80.6998 134.8895,80.2138 C134.6655,79.9998 134.3425,79.7778 134.1745,79.5138 C133.9605,79.1798 132.8615,80.0328 133.1135,80.4278" id="Fill-126" fill="#23253A"></path>
                <path d="M139.2913,74.3009 C139.0583,74.5469 144.7143,79.3919 144.6963,79.4109" id="Fill-128" fill="#F2F2F4"></path>
                <path d="M138.801,74.53 C138.661,74.915 139.132,75.274 139.365,75.513 C139.955,76.119 140.588,76.686 141.215,77.253 C142.17,78.118 143.427,78.933 144.236,79.938 C144.478,80.239 145.453,79.252 145.156,78.883 C144.454,78.01 143.365,77.304 142.533,76.557 C141.929,76.015 141.327,75.471 140.742,74.908 C140.525,74.698 140.304,74.489 140.1,74.265 C139.89,74.036 139.867,73.836 139.782,74.072 C140.033,73.38 138.934,74.164 138.801,74.53" id="Fill-130" fill="#23253A"></path>
                <line x1="144.6662" y1="68.3731" x2="149.0302" y2="72.4981" id="Fill-132" fill="#F2F2F4"></line>
                <path d="M144.1551,68.8514 C145.6091,70.2264 147.0641,71.6014 148.5191,72.9764 C149.0641,73.4924 150.0841,72.5334 149.5411,72.0204 C148.0861,70.6454 146.6321,69.2694 145.1771,67.8944 C144.6321,67.3794 143.6121,68.3374 144.1551,68.8514" id="Fill-134" fill="#23253A"></path>
                <line x1="149.875" y1="62.2883" x2="155.688" y2="67.7843" id="Fill-136" fill="#F2F2F4"></line>
                <path d="M149.342,62.7421 C151.28,64.5741 153.218,66.4061 155.155,68.2381 C155.461,68.5271 156.489,67.5841 156.221,67.3301 C154.283,65.4981 152.346,63.6661 150.408,61.8341 C150.102,61.5451 149.074,62.4891 149.342,62.7421" id="Fill-138" fill="#23253A"></path>
                <line x1="155.371" y1="56.4751" x2="160.022" y2="60.8721" id="Fill-140" fill="#F2F2F4"></line>
                <path d="M154.878,56.972 C156.428,58.438 157.978,59.903 159.529,61.369 C159.912,61.732 160.895,60.734 160.515,60.375 C158.965,58.909 157.414,57.444 155.864,55.978 C155.48,55.615 154.498,56.613 154.878,56.972" id="Fill-142" fill="#23253A"></path>
                <line x1="162.241" y1="49.2085" x2="166.892" y2="53.6055" id="Fill-144" fill="#F2F2F4"></line>
                <path d="M161.7665,49.7231 C163.3165,51.1891 164.8665,52.6541 166.4175,54.1201 C166.6735,54.3621 167.6315,53.3411 167.3665,53.0911 C165.8155,51.6251 164.2655,50.1591 162.7155,48.6941 C162.4595,48.4521 161.5015,49.4721 161.7665,49.7231" id="Fill-146" fill="#23253A"></path>
                <path d="M163.6647,170.7658 C163.6567,170.7928 160.9187,170.4678 156.8207,170.1018 C152.7217,169.5458 147.2637,169.0818 141.8157,168.1948 C136.3607,167.5438 130.9067,166.6438 126.8127,166.2668 C122.7187,165.5608 119.9837,165.6978 119.9657,165.6238 C116.7217,165.0548 114.2327,162.6968 114.7087,158.9638 C114.6397,159.3478 115.3067,154.0258 116.4767,143.9358 C117.0377,139.8108 117.6787,133.7148 118.3457,128.0468 C119.0127,122.3788 119.7047,116.4958 120.3667,110.8718 C121.8647,98.1428 123.1237,87.4418 124.2567,77.8078 C125.2957,68.9778 125.9527,63.3978 126.0257,62.7798 C126.4727,58.9768 129.4027,57.0588 132.6857,57.5218 C132.6367,57.9388 143.7077,57.9798 154.5347,60.0928 C165.4157,61.7508 176.4377,62.2048 176.3837,62.6628 C179.6717,63.0778 181.9667,66.5648 181.6417,69.3228 C181.6467,69.2848 180.9027,75.6038 179.8737,84.3518 C178.7617,93.7978 177.3947,105.4158 175.9827,117.4158 C175.2897,123.3128 174.5747,129.3828 173.9057,135.0768 C173.2357,140.4328 172.6097,146.2028 172.0927,150.4788 C170.9447,159.6408 170.3607,166.0058 170.3247,165.5078 C169.9087,168.7388 167.0077,170.4658 163.6647,170.7658" id="Fill-148" fill="#F2F2F4"></path>
                <path d="M180.3144,76.1022 C179.1704,85.8202 178.0274,95.5392 176.8834,105.2572 C175.5084,116.9452 174.1154,128.6302 172.7444,140.3192 C172.1064,145.7542 171.4544,151.1882 170.8234,156.6242 C170.5784,158.7352 170.3454,160.8462 170.1124,162.9582 C170.0294,163.7142 170.0804,165.0002 169.8244,165.6532 C169.7914,165.7032 169.7694,165.7462 169.7634,165.7792 C169.2104,168.7022 166.7424,169.9282 164.0274,170.2582 C160.3594,170.2652 156.5584,169.4912 152.9234,169.0762 C147.3034,168.4342 141.7024,167.6602 136.1004,166.8852 C131.5994,166.2622 127.0474,165.4882 122.5094,165.2172 C118.5614,164.9812 114.9064,163.3982 115.2704,158.6932 C115.2724,158.6592 115.2604,158.6452 115.2564,158.6202 C115.2614,158.6172 115.2674,158.6142 115.2724,158.6112 C115.2884,156.9842 115.7134,154.9132 115.9194,153.1842 C116.4414,148.8032 116.9704,144.4222 117.4974,140.0422 C118.7534,129.5852 119.9264,119.1182 121.1574,108.6582 C122.2744,99.1582 123.3924,89.6582 124.5104,80.1582 C125.0284,75.7542 125.5464,71.3502 126.0644,66.9472 C126.3684,64.3712 126.2374,60.8562 128.3504,59.0832 C130.4094,57.3552 133.1874,58.2392 135.6544,58.4182 C140.2204,58.7492 144.7824,59.1192 149.3144,59.7842 C154.3464,60.5222 159.3324,61.3522 164.3974,61.8722 C167.9704,62.2392 171.7354,62.2472 175.2604,62.9542 C178.3024,63.5642 181.0654,65.7562 181.1034,69.1352 C181.1294,71.4272 180.5814,73.8352 180.3144,76.1022 M177.4914,62.2892 C175.3394,61.5852 172.8754,61.5912 170.6334,61.3852 C164.9294,60.8612 159.2064,60.3382 153.5654,59.3292 C148.5844,58.4372 143.5434,57.9332 138.5014,57.5572 C136.2334,57.3872 133.5084,56.7082 131.2534,57.0022 C125.3354,57.7722 125.3374,64.1242 124.7984,68.7012 C123.6434,78.5262 122.4864,88.3502 121.3314,98.1752 C119.8324,110.9172 118.3144,123.6582 116.8594,136.4062 C116.2494,141.7572 115.5834,147.1032 114.9474,152.4522 C114.6794,154.7082 114.1574,157.0782 114.1354,159.3562 C114.1354,159.3722 114.1454,159.3752 114.1474,159.3872 C113.9474,162.8652 116.0684,165.6782 119.6554,166.1452 C124.1904,166.7372 128.7934,166.9982 133.3414,167.6252 C139.4134,168.4632 145.4804,169.3262 151.5694,170.0212 C155.4134,170.4602 159.4304,171.2802 163.3014,171.2732 C166.8384,170.8432 170.1024,169.0402 170.8594,165.3492 C171.6634,163.4082 171.4504,160.4492 171.6814,158.4042 C172.2644,153.2372 172.9084,148.0772 173.5034,142.9112 C174.7904,131.7482 176.1394,120.5922 177.4524,109.4322 C178.7074,98.7682 179.9614,88.1042 181.2164,77.4402 C181.8254,72.2622 184.2354,64.4942 177.4914,62.2892" id="Fill-150" fill="#23253A"></path>
                <path d="M144.5097,164.7711 C143.7687,165.5861 143.1907,165.6131 142.1837,165.3841 C140.6927,165.0451 139.5557,164.0651 139.5067,162.3951 C139.4827,161.5461 139.8317,160.6141 140.3757,159.9641 C140.6397,159.6491 140.9957,159.3151 141.4067,159.1961 C142.1047,158.9941 142.2357,159.2921 142.8107,159.4121 C143.6257,159.5821 144.1587,159.5591 144.7387,160.2791 C145.2837,160.9561 145.5417,161.8541 145.4847,162.7141 C145.3537,163.4811 145.0377,164.1911 144.5097,164.7711 M143.2157,158.4191 C142.0857,158.1691 141.2497,157.9601 140.2417,158.7161 C139.2697,159.4451 138.6657,160.7031 138.5317,161.8961 C138.2637,164.3001 140.0137,165.9971 142.1937,166.4651 C144.4387,166.9461 146.1057,164.9981 146.4627,162.9001 C146.6137,160.6261 145.3977,158.9021 143.2157,158.4191" id="Fill-152" fill="#2D3047"></path>
                <path d="M167.6853,160.1907 C167.6723,160.4127 164.5983,159.9437 159.9913,159.3777 C155.3833,158.8127 149.2423,158.0357 143.0973,157.2977 C130.8713,155.2807 118.5433,154.1177 118.5103,154.4047 C118.4663,154.7757 119.5883,145.2347 121.1823,131.6947 C122.6223,119.4517 124.5883,102.7467 126.1443,89.5187 C127.6913,76.3737 128.7943,66.9957 128.8163,66.8087 C128.8933,66.1497 141.1793,67.6657 153.4043,69.7017 C165.7033,71.1057 177.9913,72.5977 177.9913,72.5947 C178.0563,72.0437 176.8693,82.1317 175.3193,95.3047 C173.7853,108.3427 171.8653,124.6617 170.3573,137.4807 C169.5803,144.0817 168.8903,150.0777 168.4053,154.0707 C167.9203,159.1477 167.6403,160.9087 167.6853,160.1907" id="Fill-154" fill="#FFFFFF"></path>
                <path d="M172.7777,114.0996 C171.7737,122.6326 170.7667,131.1646 169.7667,139.6976 C169.2697,143.9316 168.7807,148.1676 168.2767,152.4006 C168.0487,154.3126 167.8687,156.2286 167.6537,158.1416 C167.5977,158.6416 167.3607,159.3966 167.4427,159.8966 C167.4447,159.9076 167.4417,159.9226 167.4417,159.9356 C166.9537,159.9286 166.0507,159.7096 165.8437,159.6856 C164.6107,159.5416 163.3817,159.3746 162.1497,159.2186 C159.3517,158.8636 156.5517,158.5236 153.7527,158.1756 C147.5887,157.4106 141.4517,156.5336 135.3007,155.6856 C130.6007,155.0386 125.8797,154.4316 121.1477,154.0746 C120.7387,154.0436 119.6407,153.8076 118.8907,153.9796 C121.0437,135.6776 123.1967,117.3756 125.3507,99.0736 C126.5277,89.0676 127.7047,79.0616 128.8827,69.0556 C128.9597,68.3966 129.0037,67.7096 129.1117,67.0476 C129.2267,67.0306 129.3407,67.0186 129.4347,67.0466 C130.0637,67.2346 130.9697,67.1066 131.6227,67.1566 C136.5807,67.5426 141.5227,68.2916 146.4367,69.0336 C156.7907,70.5986 167.2047,71.8276 177.6157,72.9776 C176.0037,86.6856 174.3907,100.3926 172.7777,114.0996 M178.3547,72.3166 C178.3647,72.2286 178.3267,72.2006 178.2627,72.2116 C178.2667,72.2086 178.2707,72.2046 178.2747,72.2006 C168.7947,71.1536 159.2567,70.1686 149.8387,68.6836 C144.2417,67.8016 138.6187,66.9436 132.9737,66.4356 C131.8197,66.3316 129.1897,65.6046 128.4787,66.9806 C128.2557,67.4126 128.3197,68.2256 128.2647,68.6846 C128.0737,70.3106 127.8827,71.9356 127.6917,73.5616 C127.0247,79.2266 126.3587,84.8916 125.6917,90.5576 C124.2907,102.4666 122.8887,114.3756 121.4877,126.2846 C120.3747,135.7466 119.2617,145.2086 118.1487,154.6706 C118.1067,155.0216 118.8387,154.4216 118.8697,154.1576 C118.7647,155.0456 118.3327,154.5786 119.2667,154.7766 C119.8297,154.8956 120.4707,154.8526 121.0467,154.8996 C122.9307,155.0526 124.8117,155.2516 126.6897,155.4636 C132.0877,156.0716 137.4387,156.9326 142.8147,157.6916 C148.0557,158.4316 153.3327,158.9856 158.5867,159.6336 C160.9067,159.9196 163.2247,160.2466 165.5487,160.5046 C166.0117,160.5556 166.7777,160.7726 167.3237,160.6306 C167.3247,160.6436 167.3227,160.6556 167.3237,160.6676 C167.3407,160.9386 167.8797,160.4146 167.9117,160.3676 C168.8007,159.0926 168.5277,156.1726 168.6777,154.7276 C169.1177,150.4936 169.6587,146.2676 170.1537,142.0396 C171.1947,133.1386 172.2457,124.2406 173.2927,115.3406 C174.9797,101.0066 176.6657,86.6716 178.3527,72.3376 L178.3527,72.3376 C178.3537,72.3306 178.3547,72.3236 178.3547,72.3166" id="Fill-156" fill="#23253A"></path>
                <path d="M148.1681,65.2203 C148.0931,65.8593 147.4891,66.0193 146.7281,66.3573 C146.0011,66.4113 145.4621,66.0203 145.5921,64.9173 C145.6781,64.1853 146.3181,63.7093 147.0311,63.7803 C147.7521,63.7823 148.2511,64.5113 148.1681,65.2203" id="Fill-158" fill="#2A303F"></path>
                <path d="M154.7999,63.3886 C154.8219,63.1986 154.5569,62.9696 154.0799,63.9566 C153.8039,63.2426 153.4349,63.8886 153.5119,63.2366 C153.4249,63.9736 153.9419,62.0676 154.2319,62.6686 C154.4839,63.5896 154.8659,62.8296 154.7999,63.3886" id="Fill-160" fill="#2A303F"></path>
                <path d="M157.1448,66.9295 C157.1898,66.5505 150.3608,66.5495 150.4088,66.1365 C150.1138,66.2815 149.9338,65.8935 149.9708,65.5815 C149.9868,65.4435 150.1388,64.1535 150.0058,65.2865 C149.9788,65.5115 150.1568,65.9195 150.5608,64.8485 C150.6628,63.9825 157.3278,65.3735 157.2968,65.6415 C157.5618,65.7505 157.7538,66.0345 157.7348,66.1965 C157.7368,66.1795 157.6638,66.7985 157.6998,66.4915 C157.6488,66.9225 157.4418,66.7645 157.1448,66.9295" id="Fill-162" fill="#2A303F"></path>
                <path d="M137.43,117.1251 C136.667,119.8941 134.447,121.6471 132.46,121.4131 C130.474,121.1801 127.845,117.8501 128.079,115.8631 C128.546,111.8911 134.739,110.6061 137.288,115.3461 C137.45,115.9071 137.504,116.5081 137.43,117.1251" id="Fill-164" fill="#EDA6AD"></path>
                <path d="M132.4999,112.8031 C132.2019,112.8031 131.9129,112.8311 131.6409,112.8841 C129.9579,113.2031 128.7549,114.3961 128.5749,115.9221 C128.3739,117.6341 130.8069,120.7151 132.5199,120.9171 C134.3409,121.1321 136.2629,119.4241 136.9369,117.0281 C136.9939,116.5241 136.9549,116.0221 136.8219,115.5351 C135.7139,113.5121 133.9899,112.8031 132.4999,112.8031 M132.8339,121.9351 C132.6889,121.9351 132.5459,121.9271 132.4019,121.9101 C130.1559,121.6451 127.3179,118.0511 127.5819,115.8051 C127.8139,113.8371 129.3339,112.3041 131.4529,111.9011 C133.9639,111.4231 136.4239,112.6831 137.7289,115.1101 L137.7689,115.2081 C137.9529,115.8511 138.0069,116.5161 137.9259,117.1841 L137.9119,117.2581 C137.1549,120.0051 135.0219,121.9351 132.8339,121.9351" id="Fill-166" fill="#23253A"></path>
                <path d="M134.5087,141.9538 C133.7457,144.7228 131.5257,146.4758 129.5387,146.2418 C127.5527,146.0088 124.9237,142.6788 125.1577,140.6918 C125.6247,136.7198 131.8177,135.4348 134.3667,140.1748 C134.5287,140.7358 134.5827,141.3368 134.5087,141.9538" id="Fill-168" fill="#A6B2ED"></path>
                <path d="M129.578,137.6317 C129.28,137.6317 128.991,137.6597 128.718,137.7127 C127.036,138.0327 125.834,139.2247 125.655,140.7507 C125.562,141.5307 126.055,142.7337 126.908,143.8147 C127.762,144.8957 128.817,145.6537 129.598,145.7457 C131.397,145.9647 133.343,144.2537 134.016,141.8577 C134.073,141.3527 134.034,140.8507 133.901,140.3637 C132.792,138.3407 131.069,137.6317 129.578,137.6317 M129.911,146.7637 C129.767,146.7637 129.624,146.7557 129.48,146.7387 C128.419,146.6137 127.164,145.7527 126.123,144.4347 C125.083,143.1157 124.536,141.6947 124.662,140.6337 C124.892,138.6657 126.411,137.1337 128.53,136.7297 C131.037,136.2517 133.502,137.5107 134.807,139.9387 L134.848,140.0367 C135.032,140.6807 135.086,141.3457 135.005,142.0137 L134.991,142.0867 C134.233,144.8337 132.1,146.7637 129.911,146.7637" id="Fill-170" fill="#23253A"></path>
                <path d="M140.1062,117.6688 C147.1642,118.6198 154.2562,119.1658 161.3762,119.3048 C161.7052,119.3108 162.2912,118.5298 161.8252,118.5208 C154.7052,118.3818 147.6132,117.8368 140.5552,116.8848 C140.2302,116.8408 139.6302,117.6048 140.1062,117.6688" id="Fill-172" fill="#23253A"></path>
                <path d="M140.1611,123.8689 C144.1411,124.7439 148.1501,125.2099 152.2231,125.2829 C152.8441,125.2939 152.8381,124.3139 152.1991,124.3019 C148.2051,124.2299 144.2851,123.7609 140.3861,122.9039 C139.7831,122.7719 139.5381,123.7319 140.1611,123.8689" id="Fill-174" fill="#23253A"></path>
                <path d="M138.1031,139.552 L156.9731,141.772 C157.2751,141.808 157.8601,141.074 157.6151,141.045 C151.3251,140.305 145.0351,139.565 138.7451,138.825 C138.4431,138.789 137.8581,139.523 138.1031,139.552" id="Fill-176" fill="#23253A"></path>
                <path d="M137.8613,144.5676 C140.7303,144.9056 143.5993,145.2426 146.4683,145.5806 C146.7903,145.6186 147.3783,144.8656 147.0883,144.8316 C144.2193,144.4936 141.3503,144.1566 138.4813,143.8186 C138.1593,143.7806 137.5713,144.5336 137.8613,144.5676" id="Fill-178" fill="#23253A"></path>
                <path d="M143.1615,95.3996 C143.1745,95.2916 143.3155,94.0926 143.3175,94.0746 C143.3375,93.9076 143.4565,93.5646 143.5965,93.5766 C143.5945,93.5876 144.2295,93.0636 145.2115,92.2846 C145.4565,92.0896 145.7235,91.8796 146.0085,91.6576 C148.2395,89.9986 150.4595,88.2456 153.0615,86.1036 C153.3765,85.8616 153.6785,85.6256 153.9625,85.4016 C155.3865,84.2816 156.3785,83.4496 156.3745,83.4886 C156.5415,83.2656 156.7255,83.3296 156.9245,83.3326 C156.9155,83.4036 158.2335,83.6226 158.2485,83.4886 C158.6465,83.6356 158.9725,83.7316 158.9035,84.3176 C158.9085,84.2746 158.7325,85.7706 158.7475,85.6426 C158.7385,85.7166 158.6335,85.9336 158.4685,86.1416 C158.4675,86.1516 157.8365,86.6446 156.8555,87.4156 C156.6105,87.6086 156.3435,87.8186 156.0585,88.0436 C153.3225,89.5896 150.8685,93.3286 148.0965,94.3696 C147.8105,94.5986 147.5435,94.8056 147.2985,94.9906 C146.3215,95.7326 145.7025,96.1296 145.6905,96.2286 C145.5575,96.1586 145.3175,96.5706 145.1405,96.3846 C145.1175,96.5786 143.8185,96.2076 143.8155,96.2286 C143.4115,96.1336 143.1115,95.8246 143.1615,95.3996" id="Fill-180" fill="#5063EE"></path>
                <path d="M144.6537,89.1082 C144.6607,89.0472 144.9997,89.0232 145.3327,89.0452 C145.6657,89.0682 145.9927,89.1382 145.9787,89.2642 C147.3627,88.8882 148.7067,86.0252 150.5977,85.8892 C151.0507,85.5052 151.3547,85.2452 151.3477,85.3032 C151.4967,85.2382 151.5977,85.0512 151.6267,84.8042 C151.5977,85.0512 151.7927,83.3992 151.7827,83.4802 C151.8107,83.2442 151.5237,82.8222 151.1287,82.6512 C151.1417,82.5402 149.7907,82.6082 149.8037,82.4952 C149.6187,82.3742 149.3967,82.6362 149.2537,82.6512 C149.2757,82.4622 148.0457,83.6282 146.8437,84.5532 C145.6377,85.5122 144.4237,86.5442 144.4337,86.4562 C144.2867,86.5062 144.2127,86.4632 144.1547,86.9552 C144.1517,86.9862 143.9857,88.3982 143.9997,88.2792 C143.9667,88.5572 144.2277,89.1992 144.6537,89.1082" id="Fill-182" fill="#5063EE"></path>
                <path d="M156.5733,97.7296 C156.5683,97.7726 155.2303,97.7286 155.2483,97.5736 C155.0513,97.5596 154.8783,97.3976 154.7503,97.2946 C154.7453,97.3366 154.4023,96.8366 153.9653,96.2786 C153.8193,96.0926 153.6643,95.9006 153.5063,95.7196 C150.7513,94.3216 152.9713,92.5686 154.0813,91.6926 C155.0743,91.8096 155.9513,92.9196 156.1593,93.6256 C156.3153,93.8186 156.4703,94.0176 156.6153,94.2056 C157.0513,94.7716 157.3973,95.2466 157.4023,95.2006 C157.5353,95.2736 157.5803,95.5656 157.5583,95.7506 C157.5533,95.7946 157.4283,96.8516 157.4023,97.0756 C157.3613,97.4216 157.0103,97.5466 156.5733,97.7296" id="Fill-184" fill="#23253A"></path>
                <path d="M145.3196,83.6038 C145.3366,83.4578 146.2706,82.8788 146.2746,82.8498 C146.6226,82.3058 146.4496,82.0638 146.0486,82.0538 C146.0226,82.2748 145.1896,81.9958 145.1946,81.9528 C144.9526,81.8938 144.7226,82.1318 144.6976,82.3458 C144.6696,82.5788 144.5806,83.3408 144.5966,83.1998 C144.5476,83.6198 145.0056,83.8568 145.3196,83.6038" id="Fill-186" fill="#5063EE"></path>
                <path d="M223.1651,128.5936 C223.4121,128.5836 223.8021,127.8226 223.7491,127.8246 C223.5021,127.8346 223.1121,128.5956 223.1651,128.5936" id="Fill-195" fill="#D7D7E0"></path>
                <path d="M21.3263,132.6318 L20.0393,134.6918 L19.7283,131.4158 L14.2043,127.2118 C10.9533,125.1798 6.5543,125.9128 4.4263,129.1008 C2.2243,132.3988 3.1953,136.8408 6.5343,138.9278 C9.8133,140.9768 14.1313,139.9798 16.1803,136.7018 C16.2103,136.6548 16.2333,136.6048 16.2613,136.5578 L27.8753,143.1768 C28.7743,143.5398 29.8053,143.2048 30.3193,142.3828 L31.5503,140.4128 L21.3263,132.6318 Z" id="Fill-197" fill="#D2D2D8"></path>
                <path d="M21.3263,130.6318 L20.0393,132.6918 L19.7283,129.4158 L14.2043,125.2118 C10.9533,123.1798 6.5543,123.9128 4.4263,127.1008 C2.2243,130.3988 3.1953,134.8408 6.5343,136.9278 C9.8133,138.9768 14.1313,137.9798 16.1803,134.7018 C16.2103,134.6548 16.2333,134.6048 16.2613,134.5578 L27.8753,141.1768 C28.7743,141.5398 29.8053,141.2048 30.3193,140.3828 L31.5503,138.4128 L21.3263,130.6318 Z" id="Fill-199" fill="#F2F2F4"></path>
                <path d="M20.9536,130.7689 C20.5246,131.4559 20.0956,132.1419 19.6666,132.8289 L20.5376,132.2329 C20.4396,131.2079 20.6186,129.6119 20.0616,128.7929 C19.2056,127.5379 16.9826,126.4499 15.7726,125.5299 C12.5016,123.0409 8.2326,122.8259 5.1766,125.8699 C1.7906,129.2429 1.9436,135.1349 6.3546,137.6079 C10.0936,139.7029 14.6976,137.8979 16.7056,134.2939 C16.3996,134.5539 16.0936,134.8129 15.7876,135.0729 C18.9716,136.8879 22.1566,138.7029 25.3416,140.5189 C26.4146,141.1299 27.5916,142.1409 28.9106,141.7409 C30.3946,141.2909 31.1806,139.4639 31.9236,138.2759 C31.9596,138.2169 32.1236,137.9729 32.0246,137.8979 C28.6166,135.3039 25.2086,132.7099 21.8006,130.1169 C21.5376,129.9159 20.6336,130.9809 20.8526,131.1469 L26.7476,135.6329 C27.9006,136.5109 29.0536,137.3879 30.2066,138.2659 C30.3996,138.4129 30.9156,138.6689 31.0276,138.8909 C31.0686,138.9719 31.0076,138.3929 30.9336,138.9399 C30.9086,139.1249 30.3276,139.9989 30.1906,140.1289 C28.4576,141.7859 24.8126,138.6459 23.1786,137.7149 C21.0306,136.4909 18.8826,135.2669 16.7356,134.0419 C16.4346,133.8709 15.9276,134.6219 15.8166,134.8209 C13.0946,139.7059 5.7766,137.2999 4.1686,132.9369 C3.1286,130.1169 3.9676,126.6109 7.0466,125.1729 C8.9076,124.3039 11.3456,124.4509 13.1446,125.3969 C14.8246,126.2799 16.3176,127.6959 17.8216,128.8409 C18.4016,129.2819 18.9926,129.5959 19.2626,130.2149 C19.5986,130.9889 19.4596,132.2979 19.5406,133.1499 C19.5716,133.4769 20.3626,132.6329 20.4116,132.5539 C20.8406,131.8679 21.2696,131.1809 21.6986,130.4949 C22.1696,129.7409 21.1406,130.4709 20.9536,130.7689" id="Fill-201" fill="#23253A"></path>
                <path d="M13.2128,132.847 C12.1878,134.486 10.0288,134.984 8.3898,133.96 C6.7508,132.935 6.2528,130.776 7.2768,129.137 C8.3018,127.498 10.4608,126.999 12.0998,128.024 C13.7388,129.049 14.2378,131.208 13.2128,132.847" id="Fill-203" fill="#FFFFFF"></path>
                <path d="M10.2509,127.9906 C10.0239,127.9906 9.7969,128.0166 9.5699,128.0686 C8.7899,128.2486 8.1259,128.7216 7.7009,129.4016 C6.8239,130.8046 7.2519,132.6586 8.6539,133.5356 C10.0609,134.4126 11.9119,133.9846 12.7889,132.5816 C13.6659,131.1786 13.2369,129.3246 11.8349,128.4476 C11.3519,128.1456 10.8059,127.9906 10.2509,127.9906 M10.2379,134.9906 C9.5149,134.9906 8.7819,134.7946 8.1249,134.3836 C6.2549,133.2146 5.6849,130.7416 6.8539,128.8716 C7.4199,127.9656 8.3049,127.3346 9.3459,127.0946 C10.3829,126.8546 11.4569,127.0326 12.3639,127.5996 C14.2349,128.7686 14.8059,131.2416 13.6369,133.1126 C12.8789,134.3246 11.5729,134.9906 10.2379,134.9906" id="Fill-205" fill="#23253A"></path>
                <path d="M1.3339,125.4198 C2.3549,123.7638 4.8399,125.3438 3.8929,127.0238 C2.7989,128.6098 0.3119,127.0758 1.3339,125.4198 M3.8199,124.3918 C2.6669,123.6728 1.2239,123.7568 0.5009,124.9038 C-0.2231,126.0508 0.1379,127.6188 1.2849,128.3388 C2.4709,129.0838 3.6789,128.6038 4.4449,127.4918 C5.1099,126.3138 5.0119,125.1338 3.8199,124.3918" id="Fill-207" fill="#23253A"></path>
            </g>
        </g>
        <g id="canvas" transform="translate(-661.000000, -847.000000)"></g>
    </g>
</svg>
