<?xml version="1.0" encoding="UTF-8"?>
<svg width="128px" height="317px" viewBox="0 0 128 317" version="1.1" xmlns="http://www.w3.org/2000/svg" xmlns:xlink="http://www.w3.org/1999/xlink">
    <title>back</title>
    <defs>
        <linearGradient x1="50%" y1="42.4354877%" x2="50%" y2="93.1847%" id="linearGradient-1">
            <stop stop-color="#F6F6F8" stop-opacity="0" offset="0%"></stop>
            <stop stop-color="#F6F6F8" offset="100%"></stop>
        </linearGradient>
    </defs>
    <g id="UI" stroke="none" stroke-width="1" fill="none" fill-rule="evenodd">
        <g id="ex-details" transform="translate(-166.000000, -165.000000)">
            <g id="back" transform="translate(167.000000, 166.000000)">
                <g id="fill">
                    <path d="M125.404738,169.358747 C123.282863,164.093622 120.519613,160.579758 120.112738,155.54063 C119.705863,150.501503 116.179613,135.336129 114.862738,130.256863 C113.544988,125.177597 106.978113,114.892542 106.978113,113.071475 C106.978113,97.1303809 105.116113,87.5817798 105.116113,85.0033172 C105.116113,83.3305886 105.899238,84.2223615 105.899238,74.5611981 C105.899238,67.612874 100.424363,60.4341898 93.4138625,56.9508657 C93.3981125,56.9430125 93.3832375,56.9369044 93.3674875,56.9290512 C93.0586125,56.7763504 92.7471125,56.6315028 92.4329875,56.4936357 C92.3288625,56.4482618 92.2229875,56.4063781 92.1179875,56.3627493 C91.8896125,56.2667659 91.6612375,56.1725277 91.4302375,56.0843975 C91.3033625,56.0355332 91.1756125,55.9919044 91.0478625,55.9456579 C90.8369875,55.8697438 90.6252375,55.7964474 90.4117375,55.7266413 C90.2752375,55.6830125 90.1369875,55.6411288 89.9996125,55.6001177 C89.7931125,55.5381648 89.5857375,55.4788296 89.3774875,55.4229848 C89.2366125,55.385464 89.0948625,55.3496884 88.9531125,55.3156579 C88.7448625,55.2650485 88.5357375,55.2188019 88.3266125,55.1760457 C88.1848625,55.1463781 88.0439875,55.1175831 87.9022375,55.0914058 C87.6878625,55.0521399 87.4717375,55.018982 87.2556125,54.9875693 C87.1199875,54.9675 86.9843625,54.944813 86.8478625,54.9282341 C86.6124875,54.8994391 86.3753625,54.8784972 86.1391125,54.8593006 C86.0227375,54.8497022 85.9072375,54.835741 85.7917375,54.8287604 C85.4399875,54.806946 85.0873625,54.7938573 84.7347375,54.7938573 L84.7347375,54.7938573 L71.9527375,47.2835942 L72.5398625,41.6580956 C72.5398625,41.6580956 69.6794875,32.8223892 62.9734875,32.8223892 C56.2683625,32.8223892 53.4071125,41.6580956 53.4071125,41.6580956 L53.9951125,47.2835942 L41.2131125,54.7938573 L41.2131125,54.7938573 C40.8604875,54.7938573 40.5078625,54.806946 40.1561125,54.8287604 C40.0397375,54.835741 39.9242375,54.8497022 39.8087375,54.8593006 C39.5716125,54.8784972 39.3353625,54.8994391 39.0991125,54.9282341 C38.9634875,54.944813 38.8278625,54.9675 38.6913625,54.9875693 C38.4761125,55.018982 38.2599875,55.0521399 38.0447375,55.0914058 C37.9038625,55.1175831 37.7621125,55.1463781 37.6203625,55.1760457 C37.4121125,55.2188019 37.2029875,55.2650485 36.9947375,55.3156579 C36.8529875,55.3496884 36.7112375,55.385464 36.5703625,55.4229848 C36.3621125,55.4788296 36.1547375,55.5381648 35.9482375,55.6001177 C35.8099875,55.6411288 35.6726125,55.6830125 35.5352375,55.7266413 C35.3226125,55.7964474 35.1108625,55.8697438 34.8991125,55.9456579 C34.7713625,55.9919044 34.6436125,56.0355332 34.5167375,56.0843975 C34.2866125,56.1725277 34.0582375,56.2667659 33.8289875,56.3627493 C33.7248625,56.4063781 33.6189875,56.4482618 33.5148625,56.4936357 C33.2007375,56.6315028 32.8892375,56.7763504 32.5803625,56.9290512 C32.5646125,56.9369044 32.5488625,56.9430125 32.5331125,56.9508657 L32.5339875,56.9508657 C25.5226125,60.4341898 20.0486125,67.612874 20.0486125,74.5611981 C20.0486125,84.2223615 20.8308625,83.3305886 20.8308625,85.0033172 C20.8308625,87.5817798 18.9697375,97.1303809 18.9697375,113.071475 C18.9697375,114.892542 12.4019875,125.177597 11.0851125,130.256863 C9.7682375,135.336129 6.2419875,150.501503 5.8351125,155.54063 C5.4282375,160.579758 2.6649875,164.093622 0.5431125,169.358747 C-2.2455125,176.27653 6.5806125,180.060893 7.2176125,180.317431 C8.0418625,180.64901 8.9658625,180.639411 9.2449875,179.99545 C10.3929875,177.346309 4.3336125,173.831572 5.4203625,171.911904 C6.5219875,169.96606 8.4023625,167.782001 9.9414875,168.40153 C11.4806125,169.02106 10.7429875,173.894398 12.2829875,174.513927 C13.8221125,175.133456 14.4818625,174.7216 14.9534875,173.557583 C15.4251125,172.393566 15.2054875,163.29696 12.8701125,162.357195 C14.0434875,160.754273 14.7898625,159.648719 14.7898625,159.648719 C14.7898625,159.648719 20.8641125,150.003262 23.5468625,146.213663 C26.2296125,142.423193 31.0228625,128.146974 31.5067375,122.795464 C32.8857375,120.789411 31.3054875,118.735367 31.9048625,117.040824 C34.2936125,110.293193 34.1772375,102.649425 35.2394875,102.649425 C36.2457375,102.649425 38.7167375,111.422306 38.7167375,119.671641 C38.7167375,125.914051 37.0402375,123.350422 37.0402375,134.274204 C37.0402375,137.507098 31.5994875,140.479965 31.5994875,153.410672 C31.5994875,156.755256 28.0233625,162.997666 28.0233625,176.52347 C28.0233625,202.385755 39.5996125,218.70642 39.5996125,229.631073 C39.5996125,241.33581 36.4154875,237.993843 36.4154875,251.592943 C36.4154875,265.192916 45.7027375,282.999578 45.7027375,292.474882 C45.7027375,311.526711 33.7624875,301.339384 33.7624875,307.160339 C33.7624875,308.424702 37.0796125,310.203885 37.0796125,310.203885 L46.0684875,313.725602 L52.0709875,314.304993 C54.7353625,314.304993 57.2457375,313.37919 57.2457375,308.748428 C57.2457375,307.262431 57.1127375,303.519952 57.1127375,301.736406 C57.1127375,299.95286 55.1221125,294.815132 55.1221125,289.167819 C55.1221125,283.519633 55.5202375,267.602098 55.5202375,267.602098 C55.5202375,267.602098 58.3062375,259.813483 58.3062375,254.239467 C58.3062375,248.66545 55.2551125,239.889079 55.2551125,237.43714 C55.2551125,234.984328 59.2853625,228.704398 59.2853625,204.168428 C59.2853625,193.578843 61.8561125,175.742514 61.8561125,163.369384 L62.9734875,163.369384 L64.0917375,163.369384 C64.0917375,175.742514 66.6624875,193.578843 66.6624875,204.168428 C66.6624875,228.704398 70.6927375,234.984328 70.6927375,237.43714 C70.6927375,239.889079 67.6407375,248.66545 67.6407375,254.239467 C67.6407375,259.813483 70.4267375,267.602098 70.4267375,267.602098 C70.4267375,267.602098 70.8248625,283.519633 70.8248625,289.167819 C70.8248625,294.815132 68.8351125,299.95286 68.8351125,301.736406 C68.8351125,303.519952 68.7021125,307.262431 68.7021125,308.748428 C68.7021125,313.37919 71.2116125,314.304993 73.8759875,314.304993 L79.8793625,313.725602 L88.8682375,310.203885 C88.8682375,310.203885 92.1853625,308.424702 92.1853625,307.160339 C92.1853625,301.339384 80.2442375,311.526711 80.2442375,292.474882 C80.2442375,282.999578 89.5314875,265.192916 89.5314875,251.592943 C89.5314875,237.993843 86.3473625,241.33581 86.3473625,229.631073 C86.3473625,218.70642 97.9244875,202.385755 97.9244875,176.52347 C97.9244875,162.997666 94.3474875,156.755256 94.3474875,153.410672 C94.3474875,140.479965 88.9076125,137.507098 88.9076125,134.274204 C88.9076125,123.350422 87.2311125,125.914051 87.2311125,119.671641 C87.2311125,111.422306 89.7021125,102.649425 90.7083625,102.649425 C91.7706125,102.649425 91.6542375,110.293193 94.0421125,117.040824 C94.6423625,118.735367 93.0621125,120.789411 94.4402375,122.795464 C94.9249875,128.146974 99.7182375,142.423193 102.400113,146.213663 C105.083738,150.003262 111.157113,159.648719 111.157113,159.648719 C111.157113,159.648719 111.903487,160.754273 113.077738,162.357195 C110.742363,163.29696 110.522738,172.393566 110.994363,173.557583 C111.465113,174.7216 112.125738,175.133456 113.664863,174.513927 C115.203988,173.894398 114.466363,169.02106 116.005488,168.40153 C117.545488,167.782001 119.425863,169.96606 120.527488,171.911904 C121.614238,173.831572 115.554862,177.346309 116.702863,179.99545 C116.981988,180.639411 117.905988,180.64901 118.730238,180.317431 C119.367238,180.060893 128.192487,176.27653 125.404738,169.358747" id="Fill-1" fill="#FFFFFF"></path>
                    <path d="M37.039975,134.27464 C37.039975,137.507535 31.6001,140.480402 31.6001,153.411108 C31.6001,156.755693 28.0231,162.99723 28.0231,176.523033 C28.0231,184.929432 29.248975,192.32277 30.9001,198.854875 C33.762225,187.822895 37.3996,176.296163 45.625475,175.237729 C53.85135,174.179294 62.9741,160.833241 62.9741,156.335111 C62.9741,156.335111 46.9371,134.637632 46.9371,132.255499 C46.9371,129.874238 41.378225,131.795651 37.039975,134.27464" id="Fill-4" fill="#FFFFFF"></path>
                    <path d="M37.3002,181.475165 C37.799825,185.508212 38.2732,191.679071 38.2732,200.590691 C38.2732,208.888018 38.009825,215.094652 37.5872,219.723669 C38.78245,223.454805 39.5997,226.735691 39.5997,229.630899 C39.5997,229.665802 39.598825,229.696342 39.598825,229.730373 C42.834575,222.059555 45.498075,210.263198 45.498075,198.855137 C45.498075,181.538863 45.625825,175.23799 45.625825,175.23799 C42.111825,175.689985 39.43695,178.056411 37.3002,181.475165" id="Fill-6" fill="#FFFFFF"></path>
                    <path d="M58.3275,165.874899 L58.3275,165.874899 C54.929,170.367794 50.143625,174.656506 45.625125,175.237641 C45.59275,175.242004 45.562125,175.249857 45.52975,175.255093 C45.567375,179.178195 45.625125,186.10994 45.625125,191.263375 C45.625125,198.854788 52.203375,212.299442 52.203375,216.863888 C52.203375,221.428334 51.606625,222.222378 52.203375,223.610647 C52.801,225.000661 54.326125,232.012683 54.79075,234.72465 C54.91675,235.457614 55.1355,236.037004 55.38575,236.497724 C56.072625,233.428874 59.28475,226.081783 59.28475,204.168777 C59.28475,198.014497 60.151875,189.414386 60.879875,180.85965 C59.483375,176.351048 57.966125,170.238652 58.3275,165.874899" id="Fill-8" fill="#FFFFFF"></path>
                    <path d="M47.228475,232.541726 C47.228475,227.580258 45.039225,223.015812 44.04435,225.993042 C43.049475,228.969399 40.6616,232.740673 39.2511,235.207446 C38.462725,240.423706 36.597225,240.770119 36.429225,250.193942 C36.437975,250.674731 36.436225,251.144177 36.4161,251.593554 C36.4161,251.894593 36.425725,252.199994 36.434475,252.504524 C36.84485,258.611684 43.1711,270.992668 45.497725,270.060756 C47.94685,269.079981 49.0196,265.881989 48.621475,259.730327 C48.22335,253.577792 47.228475,237.503194 47.228475,232.541726" id="Fill-10" fill="#FFFFFF"></path>
                    <path d="M55.2552,237.436791 C55.2552,237.174145 55.30245,236.865253 55.3847,236.496154 C55.13445,236.035434 54.9157,235.456916 54.790575,234.724824 C54.32595,232.012857 52.800825,225.000835 52.204075,223.610821 C51.60645,222.22168 51.11645,218.965226 49.87745,221.409312 C48.63495,223.863868 47.23845,226.663965 46.637325,228.029547 C46.63645,228.031292 46.635575,228.033037 46.635575,228.03391 C46.989075,229.326195 47.228825,230.909048 47.228825,232.541639 C47.228825,237.503107 48.2237,253.578578 48.621825,259.73024 C48.621825,259.73024 50.888075,268.528425 53.2042,268.065087 C53.81495,267.942927 54.638325,267.816403 55.518575,267.695988 C55.51945,267.641015 55.520325,267.601749 55.520325,267.601749 C55.520325,267.601749 58.306325,259.813134 58.306325,254.239118 C58.306325,248.665974 55.2552,239.889602 55.2552,237.436791" id="Fill-12" fill="#FFFFFF"></path>
                    <path d="M32.533375,56.9511274 C26.97975,59.2905042 20.048875,67.2920277 20.048875,74.5614598 C20.048875,84.2226233 20.831125,83.3308504 20.831125,85.0027064 C20.831125,85.9311274 20.58875,87.776626 20.28075,90.4833573 C23.94525,86.4782327 29.715875,81.9137867 35.287875,79.3344515 C40.859,76.7551163 38.794,71.7159889 45.49475,69.0755734 C41.885375,63.6577479 35.50575,59.2163352 32.533375,56.9511274" id="Fill-14" fill="#FFFFFF"></path>
                    <path d="M20.763225,84.2676482 C20.749225,84.1987147 20.733475,84.1289086 20.71685,84.0582299 C20.733475,84.1297812 20.749225,84.1978421 20.763225,84.2676482" id="Fill-16" fill="#FFFFFF"></path>
                    <path d="M20.831125,85.0030554 C20.831125,85.147903 20.82325,85.3215457 20.81275,85.5100222 C20.82325,85.3215457 20.831125,85.147903 20.831125,85.0030554" id="Fill-18" fill="#FFFFFF"></path>
                    <path d="M20.76445,84.2757632 C20.77845,84.3438241 20.789825,84.4127576 20.79945,84.4843089 C20.789825,84.4127576 20.77845,84.3438241 20.76445,84.2757632" id="Fill-20" fill="#FFFFFF"></path>
                    <path d="M20.823425,84.7325568 C20.828675,84.8163241 20.8313,84.9053269 20.8313,85.0030554 C20.8313,84.9053269 20.828675,84.8163241 20.823425,84.7325568" id="Fill-22" fill="#FFFFFF"></path>
                    <path d="M20.8007625,84.4947798 C20.8103875,84.5672036 20.8173875,84.6422452 20.8226375,84.7242673 C20.8182625,84.6422452 20.8103875,84.5672036 20.8007625,84.4947798" id="Fill-24" fill="#FFFFFF"></path>
                    <path d="M20.2804,90.4830956 C19.731775,95.2970983 18.96965,102.867569 18.96965,113.071475 C18.96965,113.35768 18.8069,113.852431 18.529525,114.5025 C20.6864,117.461406 23.40065,120.414204 25.736025,120.414204 C27.785275,120.414204 30.02265,118.856655 31.847025,117.251115 C31.864525,117.181309 31.880275,117.109758 31.904775,117.040824 C34.293525,110.293193 34.17715,102.649425 35.2394,102.649425 C35.427525,102.649425 35.665525,102.955699 35.93065,103.507168 C36.2299,98.2917798 35.775775,87.9796745 32.772775,80.6264751 C28.030275,83.2764889 23.394525,87.0800485 20.2804,90.4830956" id="Fill-26" fill="#BCC4FF"></path>
                    <path d="M20.2829375,90.4609321 C20.4273125,89.1956967 20.5559375,88.1259183 20.6530625,87.2437438 C20.5559375,88.1206828 20.4264375,89.2009321 20.2829375,90.4609321" id="Fill-28" fill="#FFFFFF"></path>
                    <path d="M20.759375,86.1943837 C20.776,86.0120152 20.79,85.8418629 20.8005,85.6856717 C20.79,85.8427355 20.776875,86.0111427 20.759375,86.1943837" id="Fill-30" fill="#FFFFFF"></path>
                    <path d="M20.74485,86.3579917 C20.721225,86.6084211 20.693225,86.8771745 20.66085,87.1729778 C20.693225,86.8789197 20.721225,86.6075485 20.74485,86.3579917" id="Fill-32" fill="#FFFFFF"></path>
                    <path d="M8.689625,155.301283 C7.846125,153.41041 8.46125,140.967474 9.309125,137.456227 C10.157875,133.944108 15.9005,124.582238 18.529875,123.193097 C21.158375,121.803956 22.35275,134.902197 21.158375,138.473651 C19.964875,142.045978 14.790125,159.648457 14.790125,159.648457 C14.790125,159.648457 9.533125,157.192155 8.689625,155.301283" id="Fill-34" fill="#FFFFFF"></path>
                    <path d="M117.257963,155.301283 C118.101463,153.41041 117.486338,140.967474 116.638463,137.456227 C115.789713,133.944108 110.047088,124.582238 107.417713,123.193097 C104.789213,121.803956 103.594838,134.902197 104.789213,138.473651 C105.982713,142.045978 111.156588,159.648457 111.156588,159.648457 C111.156588,159.648457 116.414463,157.192155 117.257963,155.301283" id="Fill-36" fill="#FFFFFF"></path>
                    <path d="M21.1588125,138.473913 C20.3118125,141.208566 18.6361875,146.745935 17.0751875,151.917694 C15.8256875,156.127874 14.7905625,159.648719 14.7905625,159.648719 C14.7905625,159.648719 20.8639375,150.004134 23.5466875,146.213663 C26.2294375,142.423193 31.0226875,128.146974 31.5074375,122.796337 C29.1186875,125.574619 22.9919375,132.551738 21.1588125,138.473913" id="Fill-38" fill="#FFFFFF"></path>
                    <path d="M49.417725,78.3419834 C48.407975,73.8490886 47.07185,71.6475789 45.4951,69.0752244 C39.367475,71.1475928 40.85935,76.7547673 35.288225,79.3341025 C34.451725,79.7215263 33.61085,80.158687 32.7726,80.6263878 C36.084475,83.8985485 38.68235,86.223964 41.4631,87.2440055 C44.242975,88.2649197 49.218225,88.0441579 51.904475,86.7658338 C50.8711,83.8112909 49.99785,80.9221911 49.417725,78.3419834" id="Fill-40" fill="#FFFFFF"></path>
                    <path d="M51.9043,86.7656593 C49.21805,88.0439834 44.2428,88.2647452 41.462925,87.243831 C38.682175,86.2237895 36.0843,83.898374 32.772425,80.6262133 C35.7763,87.9794127 36.22955,98.291518 35.9303,103.506906 C35.9058,103.454551 38.045175,110.092238 38.522925,115.494357 C41.461175,119.372086 45.6253,126.169454 45.6253,126.169454 C54.510925,115.219496 57.97505,111.086975 60.7593,106.583609 C57.939175,101.198069 54.790925,94.9626399 51.9043,86.7656593" id="Fill-42" fill="#FFFFFF"></path>
                    <path d="M58.3275,165.874899 L58.3275,165.874899 C58.3135,165.893223 58.298625,165.911547 58.284625,165.928999 C58.193625,166.050287 58.09825,166.16983 58.004625,166.290245 C57.84275,166.497918 57.679125,166.705591 57.511125,166.911519 C57.4105,167.036298 57.308125,167.160204 57.204875,167.284109 C57.022,167.503126 56.8365,167.720398 56.648375,167.935924 C56.562625,168.033652 56.4795,168.131381 56.39375,168.228237 C55.822375,168.86958 55.2265,169.491727 54.611375,170.085079 C54.560625,170.133943 54.509,170.181935 54.45825,170.230799 C54.18525,170.489954 53.909625,170.743001 53.6305,170.98994 C53.58325,171.031824 53.536,171.073708 53.487875,171.114719 C52.824625,171.693237 52.1465,172.232489 51.45525,172.716769 C52.147375,177.863223 53.66725,184.068112 55.188875,185.904885 C56.401625,187.368195 58.18575,180.239248 59.152625,174.296132 C58.524375,171.332863 58.1245,168.328583 58.3275,165.874899" id="Fill-44" fill="#FFFFFF"></path>
                    <path d="M88.9076125,134.27464 C88.9076125,137.507535 94.3474875,140.480402 94.3474875,153.411108 C94.3474875,156.755693 97.9244875,162.99723 97.9244875,176.523033 C97.9244875,184.929432 96.6986125,192.32277 95.0474875,198.854875 C92.1853625,187.822895 88.5471125,176.296163 80.3212375,175.237729 C72.0962375,174.179294 62.9734875,160.833241 62.9734875,156.335111 C62.9734875,156.335111 79.0104875,134.637632 79.0104875,132.255499 C79.0104875,129.874238 84.5693625,131.795651 88.9076125,134.27464" id="Fill-46" fill="#FFFFFF"></path>
                    <path d="M88.647475,181.475165 C88.14785,185.508212 87.674475,191.679071 87.674475,200.590691 C87.674475,208.888018 87.93785,215.094652 88.360475,219.723669 C87.165225,223.454805 86.347975,226.735691 86.347975,229.630899 C86.347975,229.665802 86.34885,229.696342 86.34885,229.730373 C83.1131,222.059555 80.448725,210.263198 80.448725,198.855137 C80.448725,181.538863 80.32185,175.23799 80.32185,175.23799 C83.83585,175.689985 86.510725,178.056411 88.647475,181.475165" id="Fill-48" fill="#FFFFFF"></path>
                    <path d="M67.61965,165.874899 L67.61965,165.874899 C71.019025,170.367794 75.8044,174.656506 80.322025,175.237641 C80.3544,175.242004 80.3859,175.249857 80.418275,175.255093 C80.38065,179.178195 80.322025,186.10994 80.322025,191.263375 C80.322025,198.854788 73.743775,212.299442 73.743775,216.863888 C73.743775,221.428334 74.340525,222.222378 73.743775,223.610647 C73.14615,225.000661 71.621025,232.012683 71.1564,234.72465 C71.031275,235.457614 70.812525,236.037004 70.5614,236.497724 C69.874525,233.428874 66.6624,226.081783 66.6624,204.168777 C66.6624,198.014497 65.795275,189.414386 65.06815,180.85965 C66.463775,176.351048 67.9819,170.238652 67.61965,165.874899" id="Fill-50" fill="#FFFFFF"></path>
                    <path d="M78.718675,232.541726 C78.718675,227.580258 80.907925,223.015812 81.9028,225.993042 C82.897675,228.969399 85.286425,232.740673 86.69605,235.207446 C87.484425,240.423706 89.3508,240.770119 89.5188,250.193942 C89.509175,250.674731 89.5118,251.144177 89.53105,251.593554 C89.53105,251.894593 89.521425,252.199994 89.512675,252.504524 C89.103175,258.611684 82.77605,270.992668 80.449425,270.060756 C78.0003,269.079981 76.92755,265.881989 77.325675,259.730327 C77.7238,253.577792 78.718675,237.503194 78.718675,232.541726" id="Fill-52" fill="#FFFFFF"></path>
                    <path d="M70.692475,237.436791 C70.692475,237.174145 70.645225,236.865253 70.562975,236.496154 C70.813225,236.035434 71.0311,235.456916 71.1571,234.724824 C71.62085,232.012857 73.14685,225.000835 73.7436,223.610821 C74.34035,222.22168 74.83035,218.965226 76.06935,221.409312 C77.312725,223.863868 78.709225,226.663965 79.31035,228.029547 C79.311225,228.031292 79.311225,228.033037 79.3121,228.03391 C78.9586,229.326195 78.71885,230.909048 78.71885,232.541639 C78.71885,237.503107 77.723975,253.578578 77.32585,259.73024 C77.32585,259.73024 75.0596,268.528425 72.743475,268.065087 C72.132725,267.942927 71.30935,267.816403 70.4291,267.695988 C70.428225,267.641015 70.42735,267.601749 70.42735,267.601749 C70.42735,267.601749 67.64135,259.813134 67.64135,254.239118 C67.64135,248.665974 70.692475,239.889602 70.692475,237.436791" id="Fill-54" fill="#FFFFFF"></path>
                    <path d="M93.4138625,56.9511274 C98.9683625,59.2905042 105.899238,67.2920277 105.899238,74.5614598 C105.899238,84.2226233 105.116112,83.3308504 105.116112,85.0027064 C105.116112,85.9311274 105.358487,87.776626 105.667363,90.4833573 C102.001988,86.4782327 96.2313625,81.9137867 90.6593625,79.3344515 C85.0882375,76.7551163 87.1541125,71.7159889 80.4524875,69.0755734 C84.0618625,63.6577479 90.4414875,59.2163352 93.4138625,56.9511274" id="Fill-56" fill="#FFFFFF"></path>
                    <path d="M105.18445,84.2676482 C105.19845,84.1987147 105.213325,84.1289086 105.230825,84.0582299 C105.213325,84.1297812 105.19845,84.1978421 105.18445,84.2676482" id="Fill-58" fill="#FFFFFF"></path>
                    <path d="M105.116112,85.0030554 C105.116112,85.147903 105.123987,85.3215457 105.134488,85.5100222 C105.123987,85.3215457 105.116112,85.147903 105.116112,85.0030554" id="Fill-60" fill="#FFFFFF"></path>
                    <path d="M105.1827,84.2757632 C105.169575,84.3438241 105.1582,84.4127576 105.1477,84.4843089 C105.1582,84.4127576 105.169575,84.3438241 105.1827,84.2757632" id="Fill-62" fill="#FFFFFF"></path>
                    <path d="M105.12425,84.7325568 C105.119,84.8163241 105.116375,84.9053269 105.116375,85.0030554 C105.116375,84.9053269 105.119,84.8163241 105.12425,84.7325568" id="Fill-64" fill="#FFFFFF"></path>
                    <path d="M105.146825,84.4947798 C105.1372,84.5672036 105.129325,84.6422452 105.12495,84.7242673 C105.129325,84.6422452 105.1372,84.5672036 105.146825,84.4947798" id="Fill-66" fill="#FFFFFF"></path>
                    <path d="M105.667275,90.4830956 C106.2159,95.2970983 106.978025,102.867569 106.978025,113.071475 C106.978025,113.35768 107.1399,113.852431 107.41815,114.5025 C105.261275,117.461406 102.547025,120.414204 100.21165,120.414204 C98.161525,120.414204 95.92415,118.856655 94.099775,117.251115 C94.082275,117.181309 94.0674,117.109758 94.042025,117.040824 C91.65415,110.293193 91.770525,102.649425 90.708275,102.649425 C90.52015,102.649425 90.281275,102.955699 90.017025,103.507168 C89.717775,98.2917798 90.1719,87.9796745 93.1749,80.6264751 C97.916525,83.2764889 102.552275,87.0800485 105.667275,90.4830956" id="Fill-68" fill="#BCC4FF"></path>
                    <path d="M105.66465,90.4609321 C105.520275,89.1956967 105.39165,88.1259183 105.294525,87.2437438 C105.39165,88.1206828 105.520275,89.2009321 105.66465,90.4609321" id="Fill-70" fill="#FFFFFF"></path>
                    <path d="M105.187862,86.1943837 C105.171237,86.0120152 105.157238,85.8418629 105.146738,85.6856717 C105.157238,85.8427355 105.171237,86.0111427 105.187862,86.1943837" id="Fill-72" fill="#FFFFFF"></path>
                    <path d="M105.202388,86.3579917 C105.226012,86.6084211 105.254013,86.8771745 105.286388,87.1729778 C105.254887,86.8789197 105.226012,86.6075485 105.202388,86.3579917" id="Fill-74" fill="#FFFFFF"></path>
                    <path d="M104.788862,138.473913 C105.634987,141.208566 107.311487,146.745935 108.871612,151.917694 C110.121987,156.127874 111.157112,159.648719 111.157112,159.648719 C111.157112,159.648719 105.083737,150.004134 102.400987,146.213663 C99.7182375,142.423193 94.9249875,128.146974 94.4402375,122.796337 C96.8281125,125.574619 102.955737,132.551738 104.788862,138.473913" id="Fill-76" fill="#FFFFFF"></path>
                    <path d="M76.52995,78.3419834 C77.5397,73.8490886 78.875825,71.6475789 80.452575,69.0752244 C86.579325,71.1475928 85.088325,76.7547673 90.65945,79.3341025 C91.49595,79.7215263 92.336825,80.158687 93.175075,80.6263878 C89.8632,83.8985485 87.265325,86.223964 84.484575,87.2440055 C81.7047,88.2649197 76.72945,88.0441579 74.0432,86.7658338 C75.076575,83.8112909 75.949825,80.9221911 76.52995,78.3419834" id="Fill-78" fill="#FFFFFF"></path>
                    <path d="M80.3221125,126.169629 C77.5247375,122.597302 64.7882375,107.281845 65.1863625,106.589892 C65.1872375,106.588147 65.1872375,106.584657 65.1881125,106.582911 C64.2719875,108.144823 63.4984875,109.250377 62.9734875,109.698008 C62.4484875,109.250377 61.6749875,108.144823 60.7597375,106.582911 C60.7606125,106.584657 60.7597375,106.588147 60.7614875,106.589892 C61.1587375,107.281845 48.4222375,122.597302 45.6257375,126.169629 C45.6257375,126.169629 47.2287375,129.344934 46.9373625,132.255848 C46.9373625,134.637108 62.9734875,156.334587 62.9734875,156.334587 C62.9734875,156.334587 79.0104875,134.637108 79.0104875,132.255848 C78.7182375,129.344934 80.3221125,126.169629 80.3221125,126.169629" id="Fill-80" fill="#FFFFFF"></path>
                    <path d="M74.043375,86.7656593 C76.729625,88.0439834 81.704875,88.2647452 84.48475,87.243831 C87.2655,86.2237895 89.863375,83.898374 93.17525,80.6262133 C90.171375,87.9794127 89.718125,98.291518 90.0165,103.506906 C90.041875,103.454551 87.9025,110.092238 87.423875,115.494357 C84.485625,119.372086 80.3215,126.169454 80.3215,126.169454 C71.435875,115.219496 67.972625,111.086975 65.1875,106.583609 C68.0085,101.198069 71.15675,94.9626399 74.043375,86.7656593" id="Fill-82" fill="#FFFFFF"></path>
                    <path d="M67.61965,165.874899 L67.61965,165.874899 C67.63365,165.893223 67.648525,165.911547 67.662525,165.928999 C67.7544,166.050287 67.849775,166.16983 67.9434,166.290245 C68.105275,166.497918 68.268025,166.705591 68.436025,166.911519 C68.53665,167.036298 68.6399,167.160204 68.74315,167.284109 C68.92515,167.503126 69.111525,167.720398 69.298775,167.935924 C69.384525,168.033652 69.46765,168.131381 69.5534,168.228237 C70.12565,168.86958 70.721525,169.491727 71.335775,170.085079 C71.386525,170.133943 71.43815,170.181935 71.4889,170.230799 C71.7619,170.489954 72.037525,170.743001 72.31665,170.98994 C72.3639,171.031824 72.412025,171.073708 72.459275,171.114719 C73.122525,171.693237 73.80065,172.232489 74.4919,172.716769 C73.799775,177.863223 72.2799,184.068112 70.758275,185.904885 C69.5464,187.368195 67.7614,180.239248 66.794525,174.296132 C67.42365,171.332863 67.82265,168.328583 67.61965,165.874899" id="Fill-84" fill="#FFFFFF"></path>
                    <path d="M84.7343,54.7935083 L71.953175,47.2832452 L72.5403,41.6577465 C72.5403,41.6577465 69.67905,32.8229127 62.973925,32.8229127 C56.267925,32.8229127 53.40755,41.6577465 53.40755,41.6577465 L53.994675,47.2832452 L41.21355,54.7935083 C38.24205,54.7935083 35.27055,55.5910429 32.53355,56.9505166 C38.8703,61.8701011 46.83105,66.8315693 49.41755,78.3417216 C52.004925,89.851874 60.410175,107.514561 62.973925,109.697747 C65.537675,107.514561 73.942925,89.851874 76.5303,78.3417216 C79.1168,66.8315693 87.07755,61.8701011 93.4143,56.9505166 C90.6773,55.5910429 87.7058,54.7935083 84.7343,54.7935083" id="Fill-86" fill="#FFFFFF"></path>
                    <path d="M80.6344875,20.068554 C79.5582375,20.068554 77.9762375,20.3704654 77.6848625,21.3686925 C77.9289875,18.0101468 78.1083625,15.0320443 78.1083625,13.5443019 C78.1083625,8.9013241 73.0631125,0.000174515235 62.9734875,0.000174515235 C52.8838625,0.000174515235 47.8394875,8.9013241 47.8394875,13.5443019 C47.8394875,15.0320443 48.0188625,18.0110194 48.2621125,21.3695651 C47.9716125,20.3704654 46.3896125,20.068554 45.3133625,20.068554 C44.1251125,20.068554 43.6683625,21.8904931 44.5818625,26.1722244 C45.4358625,30.1738587 48.6681125,31.5228615 49.0881125,31.6825429 C49.3689875,34.9643019 49.5859875,37.3446898 49.5859875,37.3446898 C49.5859875,37.3446898 51.1312375,39.4266565 53.4071125,41.6587064 L53.4071125,41.6578338 C53.4071125,41.6578338 56.2683625,32.823 62.9734875,32.823 C69.6794875,32.823 72.5407375,41.6578338 72.5407375,41.6578338 L72.5407375,41.6587064 C74.8166125,39.4266565 76.3618625,37.3446898 76.3618625,37.3446898 C76.3618625,37.3446898 76.5788625,34.9643019 76.8597375,31.6825429 C77.2797375,31.5228615 80.5111125,30.1738587 81.3651125,26.1722244 C82.2786125,21.8904931 81.8218625,20.068554 80.6344875,20.068554" id="Fill-88" fill="#FFFFFF"></path>
                </g>
                <g id="stroke" stroke="#353E82" stroke-linejoin="round" stroke-width="1.74515235">
                    <path d="M37.039975,134.27464 C37.039975,137.507535 31.6001,140.480402 31.6001,153.411108 C31.6001,156.755693 28.0231,162.99723 28.0231,176.523033 C28.0231,184.929432 29.248975,192.32277 30.9001,198.854875 C33.762225,187.822895 37.3996,176.296163 45.625475,175.237729 C53.85135,174.179294 62.9741,160.833241 62.9741,156.335111 C62.9741,156.335111 46.9371,134.637632 46.9371,132.255499 C46.9371,129.874238 41.378225,131.795651 37.039975,134.27464 Z" id="Stroke-1"></path>
                    <path d="M37.3002,181.475165 C37.799825,185.508212 38.2732,191.679071 38.2732,200.590691 C38.2732,208.888018 38.009825,215.094652 37.5872,219.723669 C38.78245,223.454805 39.5997,226.735691 39.5997,229.630899 C39.5997,229.665802 39.598825,229.696342 39.598825,229.730373 C42.834575,222.059555 45.498075,210.263198 45.498075,198.855137 C45.498075,181.538863 45.625825,175.23799 45.625825,175.23799 C42.111825,175.689985 39.43695,178.056411 37.3002,181.475165 Z" id="Stroke-3"></path>
                    <path d="M58.3275,165.874899 L58.3275,165.874899 C54.929,170.367794 50.143625,174.656506 45.625125,175.237641 C45.59275,175.242004 45.562125,175.249857 45.52975,175.255093 C45.567375,179.178195 45.625125,186.10994 45.625125,191.263375 C45.625125,198.854788 52.203375,212.299442 52.203375,216.863888 C52.203375,221.428334 51.606625,222.222378 52.203375,223.610647 C52.801,225.000661 54.326125,232.012683 54.79075,234.72465 C54.91675,235.457614 55.1355,236.037004 55.38575,236.497724 C56.072625,233.428874 59.28475,226.081783 59.28475,204.168777 C59.28475,198.014497 60.151875,189.414386 60.879875,180.85965 C59.483375,176.351048 57.966125,170.238652 58.3275,165.874899 Z" id="Stroke-5"></path>
                    <path d="M47.228475,232.541726 C47.228475,227.580258 45.039225,223.015812 44.04435,225.993042 C43.049475,228.969399 40.6616,232.740673 39.2511,235.207446 C38.462725,240.423706 36.597225,240.770119 36.429225,250.193942 C36.437975,250.674731 36.436225,251.144177 36.4161,251.593554 C36.4161,251.894593 36.425725,252.199994 36.434475,252.504524 C36.84485,258.611684 43.1711,270.992668 45.497725,270.060756 C47.94685,269.079981 49.0196,265.881989 48.621475,259.730327 C48.22335,253.577792 47.228475,237.503194 47.228475,232.541726 Z" id="Stroke-7"></path>
                    <path d="M55.2552,237.436791 C55.2552,237.174145 55.30245,236.865253 55.3847,236.496154 C55.13445,236.035434 54.9157,235.456916 54.790575,234.724824 C54.32595,232.012857 52.800825,225.000835 52.204075,223.610821 C51.60645,222.22168 51.11645,218.965226 49.87745,221.409312 C48.63495,223.863868 47.23845,226.663965 46.637325,228.029547 C46.63645,228.031292 46.635575,228.033037 46.635575,228.03391 C46.989075,229.326195 47.228825,230.909048 47.228825,232.541639 C47.228825,237.503107 48.2237,253.578578 48.621825,259.73024 C48.621825,259.73024 50.888075,268.528425 53.2042,268.065087 C53.81495,267.942927 54.638325,267.816403 55.518575,267.695988 C55.51945,267.641015 55.520325,267.601749 55.520325,267.601749 C55.520325,267.601749 58.306325,259.813134 58.306325,254.239118 C58.306325,248.665974 55.2552,239.889602 55.2552,237.436791 Z" id="Stroke-9"></path>
                    <path d="M32.533375,56.9511274 C26.97975,59.2905042 20.048875,67.2920277 20.048875,74.5614598 C20.048875,84.2226233 20.831125,83.3308504 20.831125,85.0027064 C20.831125,85.9311274 20.58875,87.776626 20.28075,90.4833573 C23.94525,86.4782327 29.715875,81.9137867 35.287875,79.3344515 C40.859,76.7551163 38.794,71.7159889 45.49475,69.0755734 C41.885375,63.6577479 35.50575,59.2163352 32.533375,56.9511274 Z" id="Stroke-11"></path>
                    <path d="M20.763225,84.2676482 C20.749225,84.1987147 20.733475,84.1289086 20.71685,84.0582299 C20.733475,84.1297812 20.749225,84.1978421 20.763225,84.2676482 Z" id="Stroke-13"></path>
                    <path d="M20.831125,85.0030554 C20.831125,85.147903 20.82325,85.3215457 20.81275,85.5100222 C20.82325,85.3215457 20.831125,85.147903 20.831125,85.0030554 Z" id="Stroke-15"></path>
                    <path d="M20.76445,84.2757632 C20.77845,84.3438241 20.789825,84.4127576 20.79945,84.4843089 C20.789825,84.4127576 20.77845,84.3438241 20.76445,84.2757632 Z" id="Stroke-17"></path>
                    <path d="M20.823425,84.7325568 C20.828675,84.8163241 20.8313,84.9053269 20.8313,85.0030554 C20.8313,84.9053269 20.828675,84.8163241 20.823425,84.7325568 Z" id="Stroke-19"></path>
                    <path d="M20.8007625,84.4947798 C20.8103875,84.5672036 20.8173875,84.6422452 20.8226375,84.7242673 C20.8182625,84.6422452 20.8103875,84.5672036 20.8007625,84.4947798 Z" id="Stroke-21"></path>
                    <path d="M20.2804,90.4830956 C19.731775,95.2970983 18.96965,102.867569 18.96965,113.071475 C18.96965,113.35768 18.8069,113.852431 18.529525,114.5025 C20.6864,117.461406 23.40065,120.414204 25.736025,120.414204 C27.785275,120.414204 30.02265,118.856655 31.847025,117.251115 C31.864525,117.181309 31.880275,117.109758 31.904775,117.040824 C34.293525,110.293193 34.17715,102.649425 35.2394,102.649425 C35.427525,102.649425 35.665525,102.955699 35.93065,103.507168 C36.2299,98.2917798 35.775775,87.9796745 32.772775,80.6264751 C28.030275,83.2764889 23.394525,87.0800485 20.2804,90.4830956 Z" id="Stroke-23"></path>
                    <path d="M20.2829375,90.4609321 C20.4273125,89.1956967 20.5559375,88.1259183 20.6530625,87.2437438 C20.5559375,88.1206828 20.4264375,89.2009321 20.2829375,90.4609321 Z" id="Stroke-25"></path>
                    <path d="M20.759375,86.1943837 C20.776,86.0120152 20.79,85.8418629 20.8005,85.6856717 C20.79,85.8427355 20.776875,86.0111427 20.759375,86.1943837 Z" id="Stroke-27"></path>
                    <path d="M20.74485,86.3579917 C20.721225,86.6084211 20.693225,86.8771745 20.66085,87.1729778 C20.693225,86.8789197 20.721225,86.6075485 20.74485,86.3579917 Z" id="Stroke-29"></path>
                    <path d="M8.689625,155.301283 C7.846125,153.41041 8.46125,140.967474 9.309125,137.456227 C10.157875,133.944108 15.9005,124.582238 18.529875,123.193097 C21.158375,121.803956 22.35275,134.902197 21.158375,138.473651 C19.964875,142.045978 14.790125,159.648457 14.790125,159.648457 C14.790125,159.648457 9.533125,157.192155 8.689625,155.301283 Z" id="Stroke-31"></path>
                    <path d="M117.257963,155.301283 C118.101463,153.41041 117.486338,140.967474 116.638463,137.456227 C115.789713,133.944108 110.047088,124.582238 107.417713,123.193097 C104.789213,121.803956 103.594838,134.902197 104.789213,138.473651 C105.982713,142.045978 111.156588,159.648457 111.156588,159.648457 C111.156588,159.648457 116.414463,157.192155 117.257963,155.301283 Z" id="Stroke-33"></path>
                    <path d="M21.1588125,138.473913 C20.3118125,141.208566 18.6361875,146.745935 17.0751875,151.917694 C15.8256875,156.127874 14.7905625,159.648719 14.7905625,159.648719 C14.7905625,159.648719 20.8639375,150.004134 23.5466875,146.213663 C26.2294375,142.423193 31.0226875,128.146974 31.5074375,122.796337 C29.1186875,125.574619 22.9919375,132.551738 21.1588125,138.473913 Z" id="Stroke-35"></path>
                    <path d="M49.417725,78.3419834 C48.407975,73.8490886 47.07185,71.6475789 45.4951,69.0752244 C39.367475,71.1475928 40.85935,76.7547673 35.288225,79.3341025 C34.451725,79.7215263 33.61085,80.158687 32.7726,80.6263878 C36.084475,83.8985485 38.68235,86.223964 41.4631,87.2440055 C44.242975,88.2649197 49.218225,88.0441579 51.904475,86.7658338 C50.8711,83.8112909 49.99785,80.9221911 49.417725,78.3419834 Z" id="Stroke-37"></path>
                    <path d="M51.9043,86.7656593 C49.21805,88.0439834 44.2428,88.2647452 41.462925,87.243831 C38.682175,86.2237895 36.0843,83.898374 32.772425,80.6262133 C35.7763,87.9794127 36.22955,98.291518 35.9303,103.506906 C35.9058,103.454551 38.045175,110.092238 38.522925,115.494357 C41.461175,119.372086 45.6253,126.169454 45.6253,126.169454 C54.510925,115.219496 57.97505,111.086975 60.7593,106.583609 C57.939175,101.198069 54.790925,94.9626399 51.9043,86.7656593 Z" id="Stroke-39"></path>
                    <path d="M58.3275,165.874899 L58.3275,165.874899 C58.3135,165.893223 58.298625,165.911547 58.284625,165.928999 C58.193625,166.050287 58.09825,166.16983 58.004625,166.290245 C57.84275,166.497918 57.679125,166.705591 57.511125,166.911519 C57.4105,167.036298 57.308125,167.160204 57.204875,167.284109 C57.022,167.503126 56.8365,167.720398 56.648375,167.935924 C56.562625,168.033652 56.4795,168.131381 56.39375,168.228237 C55.822375,168.86958 55.2265,169.491727 54.611375,170.085079 C54.560625,170.133943 54.509,170.181935 54.45825,170.230799 C54.18525,170.489954 53.909625,170.743001 53.6305,170.98994 C53.58325,171.031824 53.536,171.073708 53.487875,171.114719 C52.824625,171.693237 52.1465,172.232489 51.45525,172.716769 C52.147375,177.863223 53.66725,184.068112 55.188875,185.904885 C56.401625,187.368195 58.18575,180.239248 59.152625,174.296132 C58.524375,171.332863 58.1245,168.328583 58.3275,165.874899 Z" id="Stroke-41"></path>
                    <path d="M88.9076125,134.27464 C88.9076125,137.507535 94.3474875,140.480402 94.3474875,153.411108 C94.3474875,156.755693 97.9244875,162.99723 97.9244875,176.523033 C97.9244875,184.929432 96.6986125,192.32277 95.0474875,198.854875 C92.1853625,187.822895 88.5471125,176.296163 80.3212375,175.237729 C72.0962375,174.179294 62.9734875,160.833241 62.9734875,156.335111 C62.9734875,156.335111 79.0104875,134.637632 79.0104875,132.255499 C79.0104875,129.874238 84.5693625,131.795651 88.9076125,134.27464 Z" id="Stroke-43"></path>
                    <path d="M88.647475,181.475165 C88.14785,185.508212 87.674475,191.679071 87.674475,200.590691 C87.674475,208.888018 87.93785,215.094652 88.360475,219.723669 C87.165225,223.454805 86.347975,226.735691 86.347975,229.630899 C86.347975,229.665802 86.34885,229.696342 86.34885,229.730373 C83.1131,222.059555 80.448725,210.263198 80.448725,198.855137 C80.448725,181.538863 80.32185,175.23799 80.32185,175.23799 C83.83585,175.689985 86.510725,178.056411 88.647475,181.475165 Z" id="Stroke-45"></path>
                    <path d="M67.61965,165.874899 L67.61965,165.874899 C71.019025,170.367794 75.8044,174.656506 80.322025,175.237641 C80.3544,175.242004 80.3859,175.249857 80.418275,175.255093 C80.38065,179.178195 80.322025,186.10994 80.322025,191.263375 C80.322025,198.854788 73.743775,212.299442 73.743775,216.863888 C73.743775,221.428334 74.340525,222.222378 73.743775,223.610647 C73.14615,225.000661 71.621025,232.012683 71.1564,234.72465 C71.031275,235.457614 70.812525,236.037004 70.5614,236.497724 C69.874525,233.428874 66.6624,226.081783 66.6624,204.168777 C66.6624,198.014497 65.795275,189.414386 65.06815,180.85965 C66.463775,176.351048 67.9819,170.238652 67.61965,165.874899 Z" id="Stroke-47"></path>
                    <path d="M78.718675,232.541726 C78.718675,227.580258 80.907925,223.015812 81.9028,225.993042 C82.897675,228.969399 85.286425,232.740673 86.69605,235.207446 C87.484425,240.423706 89.3508,240.770119 89.5188,250.193942 C89.509175,250.674731 89.5118,251.144177 89.53105,251.593554 C89.53105,251.894593 89.521425,252.199994 89.512675,252.504524 C89.103175,258.611684 82.77605,270.992668 80.449425,270.060756 C78.0003,269.079981 76.92755,265.881989 77.325675,259.730327 C77.7238,253.577792 78.718675,237.503194 78.718675,232.541726 Z" id="Stroke-49"></path>
                    <path d="M70.692475,237.436791 C70.692475,237.174145 70.645225,236.865253 70.562975,236.496154 C70.813225,236.035434 71.0311,235.456916 71.1571,234.724824 C71.62085,232.012857 73.14685,225.000835 73.7436,223.610821 C74.34035,222.22168 74.83035,218.965226 76.06935,221.409312 C77.312725,223.863868 78.709225,226.663965 79.31035,228.029547 C79.311225,228.031292 79.311225,228.033037 79.3121,228.03391 C78.9586,229.326195 78.71885,230.909048 78.71885,232.541639 C78.71885,237.503107 77.723975,253.578578 77.32585,259.73024 C77.32585,259.73024 75.0596,268.528425 72.743475,268.065087 C72.132725,267.942927 71.30935,267.816403 70.4291,267.695988 C70.428225,267.641015 70.42735,267.601749 70.42735,267.601749 C70.42735,267.601749 67.64135,259.813134 67.64135,254.239118 C67.64135,248.665974 70.692475,239.889602 70.692475,237.436791 Z" id="Stroke-51"></path>
                    <path d="M93.4138625,56.9511274 C98.9683625,59.2905042 105.899238,67.2920277 105.899238,74.5614598 C105.899238,84.2226233 105.116112,83.3308504 105.116112,85.0027064 C105.116112,85.9311274 105.358487,87.776626 105.667363,90.4833573 C102.001988,86.4782327 96.2313625,81.9137867 90.6593625,79.3344515 C85.0882375,76.7551163 87.1541125,71.7159889 80.4524875,69.0755734 C84.0618625,63.6577479 90.4414875,59.2163352 93.4138625,56.9511274 Z" id="Stroke-53"></path>
                    <path d="M105.18445,84.2676482 C105.19845,84.1987147 105.213325,84.1289086 105.230825,84.0582299 C105.213325,84.1297812 105.19845,84.1978421 105.18445,84.2676482 Z" id="Stroke-55"></path>
                    <path d="M105.116112,85.0030554 C105.116112,85.147903 105.123987,85.3215457 105.134488,85.5100222 C105.123987,85.3215457 105.116112,85.147903 105.116112,85.0030554 Z" id="Stroke-57"></path>
                    <path d="M105.1827,84.2757632 C105.169575,84.3438241 105.1582,84.4127576 105.1477,84.4843089 C105.1582,84.4127576 105.169575,84.3438241 105.1827,84.2757632 Z" id="Stroke-59"></path>
                    <path d="M105.12425,84.7325568 C105.119,84.8163241 105.116375,84.9053269 105.116375,85.0030554 C105.116375,84.9053269 105.119,84.8163241 105.12425,84.7325568 Z" id="Stroke-61"></path>
                    <path d="M105.146825,84.4947798 C105.1372,84.5672036 105.129325,84.6422452 105.12495,84.7242673 C105.129325,84.6422452 105.1372,84.5672036 105.146825,84.4947798 Z" id="Stroke-63"></path>
                    <path d="M105.667275,90.4830956 C106.2159,95.2970983 106.978025,102.867569 106.978025,113.071475 C106.978025,113.35768 107.1399,113.852431 107.41815,114.5025 C105.261275,117.461406 102.547025,120.414204 100.21165,120.414204 C98.161525,120.414204 95.92415,118.856655 94.099775,117.251115 C94.082275,117.181309 94.0674,117.109758 94.042025,117.040824 C91.65415,110.293193 91.770525,102.649425 90.708275,102.649425 C90.52015,102.649425 90.281275,102.955699 90.017025,103.507168 C89.717775,98.2917798 90.1719,87.9796745 93.1749,80.6264751 C97.916525,83.2764889 102.552275,87.0800485 105.667275,90.4830956 Z" id="Stroke-65"></path>
                    <path d="M105.66465,90.4609321 C105.520275,89.1956967 105.39165,88.1259183 105.294525,87.2437438 C105.39165,88.1206828 105.520275,89.2009321 105.66465,90.4609321 Z" id="Stroke-67"></path>
                    <path d="M105.187862,86.1943837 C105.171237,86.0120152 105.157238,85.8418629 105.146738,85.6856717 C105.157238,85.8427355 105.171237,86.0111427 105.187862,86.1943837 Z" id="Stroke-69"></path>
                    <path d="M105.202388,86.3579917 C105.226012,86.6084211 105.254013,86.8771745 105.286388,87.1729778 C105.254887,86.8789197 105.226012,86.6075485 105.202388,86.3579917 Z" id="Stroke-71"></path>
                    <path d="M104.788862,138.473913 C105.634987,141.208566 107.311487,146.745935 108.871612,151.917694 C110.121987,156.127874 111.157112,159.648719 111.157112,159.648719 C111.157112,159.648719 105.083737,150.004134 102.400987,146.213663 C99.7182375,142.423193 94.9249875,128.146974 94.4402375,122.796337 C96.8281125,125.574619 102.955737,132.551738 104.788862,138.473913 Z" id="Stroke-73"></path>
                    <path d="M76.52995,78.3419834 C77.5397,73.8490886 78.875825,71.6475789 80.452575,69.0752244 C86.579325,71.1475928 85.088325,76.7547673 90.65945,79.3341025 C91.49595,79.7215263 92.336825,80.158687 93.175075,80.6263878 C89.8632,83.8985485 87.265325,86.223964 84.484575,87.2440055 C81.7047,88.2649197 76.72945,88.0441579 74.0432,86.7658338 C75.076575,83.8112909 75.949825,80.9221911 76.52995,78.3419834 Z" id="Stroke-75"></path>
                    <path d="M80.3221125,126.169629 C77.5247375,122.597302 64.7882375,107.281845 65.1863625,106.589892 C65.1872375,106.588147 65.1872375,106.584657 65.1881125,106.582911 C64.2719875,108.144823 63.4984875,109.250377 62.9734875,109.698008 C62.4484875,109.250377 61.6749875,108.144823 60.7597375,106.582911 C60.7606125,106.584657 60.7597375,106.588147 60.7614875,106.589892 C61.1587375,107.281845 48.4222375,122.597302 45.6257375,126.169629 C45.6257375,126.169629 47.2287375,129.344934 46.9373625,132.255848 C46.9373625,134.637108 62.9734875,156.334587 62.9734875,156.334587 C62.9734875,156.334587 79.0104875,134.637108 79.0104875,132.255848 C78.7182375,129.344934 80.3221125,126.169629 80.3221125,126.169629 Z" id="Stroke-77"></path>
                    <path d="M74.043375,86.7656593 C76.729625,88.0439834 81.704875,88.2647452 84.48475,87.243831 C87.2655,86.2237895 89.863375,83.898374 93.17525,80.6262133 C90.171375,87.9794127 89.718125,98.291518 90.0165,103.506906 C90.041875,103.454551 87.9025,110.092238 87.423875,115.494357 C84.485625,119.372086 80.3215,126.169454 80.3215,126.169454 C71.435875,115.219496 67.972625,111.086975 65.1875,106.583609 C68.0085,101.198069 71.15675,94.9626399 74.043375,86.7656593 Z" id="Stroke-79"></path>
                    <path d="M67.61965,165.874899 L67.61965,165.874899 C67.63365,165.893223 67.648525,165.911547 67.662525,165.928999 C67.7544,166.050287 67.849775,166.16983 67.9434,166.290245 C68.105275,166.497918 68.268025,166.705591 68.436025,166.911519 C68.53665,167.036298 68.6399,167.160204 68.74315,167.284109 C68.92515,167.503126 69.111525,167.720398 69.298775,167.935924 C69.384525,168.033652 69.46765,168.131381 69.5534,168.228237 C70.12565,168.86958 70.721525,169.491727 71.335775,170.085079 C71.386525,170.133943 71.43815,170.181935 71.4889,170.230799 C71.7619,170.489954 72.037525,170.743001 72.31665,170.98994 C72.3639,171.031824 72.412025,171.073708 72.459275,171.114719 C73.122525,171.693237 73.80065,172.232489 74.4919,172.716769 C73.799775,177.863223 72.2799,184.068112 70.758275,185.904885 C69.5464,187.368195 67.7614,180.239248 66.794525,174.296132 C67.42365,171.332863 67.82265,168.328583 67.61965,165.874899 Z" id="Stroke-81"></path>
                    <path d="M48.3226625,21.6952978 C48.3226625,20.426572 46.5009125,20.0688158 45.3135375,20.0688158 C44.1252875,20.0688158 43.6685375,21.8907548 44.5820375,26.1724861 C45.4964125,30.4542175 49.1346625,31.6993837 49.1346625,31.6993837 L48.3226625,21.6952978 Z" id="Stroke-83"></path>
                    <path d="M77.6244875,21.6952978 C77.6244875,20.426572 79.4471125,20.0688158 80.6344875,20.0688158 C81.8218625,20.0688158 82.2786125,21.8907548 81.3651125,26.1724861 C80.4516125,30.4542175 76.8124875,31.6993837 76.8124875,31.6993837 L77.6244875,21.6952978 Z" id="Stroke-85"></path>
                    <path d="M84.7343,54.7935083 L71.953175,47.2832452 L72.5403,41.6577465 C72.5403,41.6577465 69.67905,32.8229127 62.973925,32.8229127 C56.267925,32.8229127 53.40755,41.6577465 53.40755,41.6577465 L53.994675,47.2832452 L41.21355,54.7935083 C38.24205,54.7935083 35.27055,55.5910429 32.53355,56.9505166 C38.8703,61.8701011 46.83105,66.8315693 49.41755,78.3417216 C52.004925,89.851874 60.410175,107.514561 62.973925,109.697747 C65.537675,107.514561 73.942925,89.851874 76.5303,78.3417216 C79.1168,66.8315693 87.07755,61.8701011 93.4143,56.9505166 C90.6773,55.5910429 87.7058,54.7935083 84.7343,54.7935083 Z" id="Stroke-87"></path>
                    <path d="M53.407375,41.6584446 L53.407375,41.6584446 C53.407375,41.6584446 56.268625,32.8227382 62.97375,32.8227382 C69.67975,32.8227382 72.540125,41.6584446 72.540125,41.6584446 L72.540125,41.6584446 C74.816,39.4263947 76.362125,37.344428 76.362125,37.344428 C76.362125,37.344428 78.10775,18.1887632 78.10775,13.5449127 C78.10775,8.90106233 73.063375,-8.72576178e-05 62.97375,-8.72576178e-05 C52.884125,-8.72576178e-05 47.83975,8.90106233 47.83975,13.5449127 C47.83975,18.1887632 49.585375,37.344428 49.585375,37.344428 C49.585375,37.344428 51.1315,39.4263947 53.407375,41.6584446 Z" id="Stroke-89"></path>
                    <path d="M125.404738,169.358747 C123.282863,164.093622 120.519613,160.579758 120.112738,155.54063 C119.705863,150.501503 116.179613,135.336129 114.862738,130.256863 C113.544988,125.177597 106.978113,114.892542 106.978113,113.071475 C106.978113,97.1303809 105.116113,87.5817798 105.116113,85.0033172 C105.116113,83.3305886 105.899238,84.2223615 105.899238,74.5611981 C105.899238,67.612874 100.424363,60.4341898 93.4138625,56.9508657 C93.3981125,56.9430125 93.3832375,56.9369044 93.3674875,56.9290512 C93.0586125,56.7763504 92.7471125,56.6315028 92.4329875,56.4936357 C92.3288625,56.4482618 92.2229875,56.4063781 92.1179875,56.3627493 C91.8896125,56.2667659 91.6612375,56.1725277 91.4302375,56.0843975 C91.3033625,56.0355332 91.1756125,55.9919044 91.0478625,55.9456579 C90.8369875,55.8697438 90.6252375,55.7964474 90.4117375,55.7266413 C90.2752375,55.6830125 90.1369875,55.6411288 89.9996125,55.6001177 C89.7931125,55.5381648 89.5857375,55.4788296 89.3774875,55.4229848 C89.2366125,55.385464 89.0948625,55.3496884 88.9531125,55.3156579 C88.7448625,55.2650485 88.5357375,55.2188019 88.3266125,55.1760457 C88.1848625,55.1463781 88.0439875,55.1175831 87.9022375,55.0914058 C87.6878625,55.0521399 87.4717375,55.018982 87.2556125,54.9875693 C87.1199875,54.9675 86.9843625,54.944813 86.8478625,54.9282341 C86.6124875,54.8994391 86.3753625,54.8784972 86.1391125,54.8593006 C86.0227375,54.8497022 85.9072375,54.835741 85.7917375,54.8287604 C85.4399875,54.806946 85.0873625,54.7938573 84.7347375,54.7938573 L84.7347375,54.7938573 L71.9527375,47.2835942 L72.5398625,41.6580956 C72.5398625,41.6580956 69.6794875,32.8223892 62.9734875,32.8223892 C56.2683625,32.8223892 53.4071125,41.6580956 53.4071125,41.6580956 L53.9951125,47.2835942 L41.2131125,54.7938573 L41.2131125,54.7938573 C40.8604875,54.7938573 40.5078625,54.806946 40.1561125,54.8287604 C40.0397375,54.835741 39.9242375,54.8497022 39.8087375,54.8593006 C39.5716125,54.8784972 39.3353625,54.8994391 39.0991125,54.9282341 C38.9634875,54.944813 38.8278625,54.9675 38.6913625,54.9875693 C38.4761125,55.018982 38.2599875,55.0521399 38.0447375,55.0914058 C37.9038625,55.1175831 37.7621125,55.1463781 37.6203625,55.1760457 C37.4121125,55.2188019 37.2029875,55.2650485 36.9947375,55.3156579 C36.8529875,55.3496884 36.7112375,55.385464 36.5703625,55.4229848 C36.3621125,55.4788296 36.1547375,55.5381648 35.9482375,55.6001177 C35.8099875,55.6411288 35.6726125,55.6830125 35.5352375,55.7266413 C35.3226125,55.7964474 35.1108625,55.8697438 34.8991125,55.9456579 C34.7713625,55.9919044 34.6436125,56.0355332 34.5167375,56.0843975 C34.2866125,56.1725277 34.0582375,56.2667659 33.8289875,56.3627493 C33.7248625,56.4063781 33.6189875,56.4482618 33.5148625,56.4936357 C33.2007375,56.6315028 32.8892375,56.7763504 32.5803625,56.9290512 C32.5646125,56.9369044 32.5488625,56.9430125 32.5331125,56.9508657 L32.5339875,56.9508657 C25.5226125,60.4341898 20.0486125,67.612874 20.0486125,74.5611981 C20.0486125,84.2223615 20.8308625,83.3305886 20.8308625,85.0033172 C20.8308625,87.5817798 18.9697375,97.1303809 18.9697375,113.071475 C18.9697375,114.892542 12.4019875,125.177597 11.0851125,130.256863 C9.7682375,135.336129 6.2419875,150.501503 5.8351125,155.54063 C5.4282375,160.579758 2.6649875,164.093622 0.5431125,169.358747 C-2.2455125,176.27653 6.5806125,180.060893 7.2176125,180.317431 C8.0418625,180.64901 8.9658625,180.639411 9.2449875,179.99545 C10.3929875,177.346309 4.3336125,173.831572 5.4203625,171.911904 C6.5219875,169.96606 8.4023625,167.782001 9.9414875,168.40153 C11.4806125,169.02106 10.7429875,173.894398 12.2829875,174.513927 C13.8221125,175.133456 14.4818625,174.7216 14.9534875,173.557583 C15.4251125,172.393566 15.2054875,163.29696 12.8701125,162.357195 C14.0434875,160.754273 14.7898625,159.648719 14.7898625,159.648719 C14.7898625,159.648719 20.8641125,150.003262 23.5468625,146.213663 C26.2296125,142.423193 31.0228625,128.146974 31.5067375,122.795464 C32.8857375,120.789411 31.3054875,118.735367 31.9048625,117.040824 C34.2936125,110.293193 34.1772375,102.649425 35.2394875,102.649425 C36.2457375,102.649425 38.7167375,111.422306 38.7167375,119.671641 C38.7167375,125.914051 37.0402375,123.350422 37.0402375,134.274204 C37.0402375,137.507098 31.5994875,140.479965 31.5994875,153.410672 C31.5994875,156.755256 28.0233625,162.997666 28.0233625,176.52347 C28.0233625,202.385755 39.5996125,218.70642 39.5996125,229.631073 C39.5996125,241.33581 36.4154875,237.993843 36.4154875,251.592943 C36.4154875,265.192916 45.7027375,282.999578 45.7027375,292.474882 C45.7027375,311.526711 33.7624875,301.339384 33.7624875,307.160339 C33.7624875,308.424702 37.0796125,310.203885 37.0796125,310.203885 L46.0684875,313.725602 L52.0709875,314.304993 C54.7353625,314.304993 57.2457375,313.37919 57.2457375,308.748428 C57.2457375,307.262431 57.1127375,303.519952 57.1127375,301.736406 C57.1127375,299.95286 55.1221125,294.815132 55.1221125,289.167819 C55.1221125,283.519633 55.5202375,267.602098 55.5202375,267.602098 C55.5202375,267.602098 58.3062375,259.813483 58.3062375,254.239467 C58.3062375,248.66545 55.2551125,239.889079 55.2551125,237.43714 C55.2551125,234.984328 59.2853625,228.704398 59.2853625,204.168428 C59.2853625,193.578843 61.8561125,175.742514 61.8561125,163.369384 L62.9734875,163.369384 L64.0917375,163.369384 C64.0917375,175.742514 66.6624875,193.578843 66.6624875,204.168428 C66.6624875,228.704398 70.6927375,234.984328 70.6927375,237.43714 C70.6927375,239.889079 67.6407375,248.66545 67.6407375,254.239467 C67.6407375,259.813483 70.4267375,267.602098 70.4267375,267.602098 C70.4267375,267.602098 70.8248625,283.519633 70.8248625,289.167819 C70.8248625,294.815132 68.8351125,299.95286 68.8351125,301.736406 C68.8351125,303.519952 68.7021125,307.262431 68.7021125,308.748428 C68.7021125,313.37919 71.2116125,314.304993 73.8759875,314.304993 L79.8793625,313.725602 L88.8682375,310.203885 C88.8682375,310.203885 92.1853625,308.424702 92.1853625,307.160339 C92.1853625,301.339384 80.2442375,311.526711 80.2442375,292.474882 C80.2442375,282.999578 89.5314875,265.192916 89.5314875,251.592943 C89.5314875,237.993843 86.3473625,241.33581 86.3473625,229.631073 C86.3473625,218.70642 97.9244875,202.385755 97.9244875,176.52347 C97.9244875,162.997666 94.3474875,156.755256 94.3474875,153.410672 C94.3474875,140.479965 88.9076125,137.507098 88.9076125,134.274204 C88.9076125,123.350422 87.2311125,125.914051 87.2311125,119.671641 C87.2311125,111.422306 89.7021125,102.649425 90.7083625,102.649425 C91.7706125,102.649425 91.6542375,110.293193 94.0421125,117.040824 C94.6423625,118.735367 93.0621125,120.789411 94.4402375,122.795464 C94.9249875,128.146974 99.7182375,142.423193 102.400113,146.213663 C105.083738,150.003262 111.157112,159.648719 111.157112,159.648719 C111.157112,159.648719 111.903487,160.754273 113.077738,162.357195 C110.742363,163.29696 110.522738,172.393566 110.994363,173.557583 C111.465113,174.7216 112.125738,175.133456 113.664863,174.513927 C115.203988,173.894398 114.466363,169.02106 116.005488,168.40153 C117.545488,167.782001 119.425863,169.96606 120.527488,171.911904 C121.614238,173.831572 115.554862,177.346309 116.702863,179.99545 C116.981988,180.639411 117.905988,180.64901 118.730238,180.317431 C119.367238,180.060893 128.192487,176.27653 125.404738,169.358747 Z" id="Stroke-91"></path>
                </g>
            </g>
            <g id="grad-mask" transform="translate(0.000000, 231.000000)" fill="url(#linearGradient-1)">
                <rect x="0" y="0" width="375" height="262"></rect>
            </g>
        </g>
    </g>
</svg>